<?xml version="1.0" encoding="utf-8"?><!DOCTYPE svg  PUBLIC '-//W3C//DTD SVG 1.1//EN'  'http://www.w3.org/Graphics/SVG/1.1/DTD/svg11.dtd'><svg width="266" height="225" viewBox="0 0 266 225" xmlns="http://www.w3.org/2000/svg" xmlns:xlink="http://www.w3.org/1999/xlink"><view id="arrow--svg_arrow" viewBox="38 0 38 23.44"/><svg width="38" height="23.44" viewBox="-39.55 -39.55 501.01 309.11" x="38" xmlns="http://www.w3.org/2000/svg"><path fill="none" d="M-1-1h423.9v232H-1z"/><path fill="#cc181e" d="M212.248 127.432L419.047 12.23 212.248 219.368 5.45 12.23l206.8 115.202z"/></svg><view id="contact--svg_contact" viewBox="152 36.82 38 38"/><svg width="38" height="38" viewBox="-39.55 -39.55 501.01 501.01" x="152" y="36.82" xmlns="http://www.w3.org/2000/svg"><path fill="none" d="M-1-1h582v402H-1z"/><g fill="#2793e8"><path d="M219.866 163.814c-7.254 0-13.964 2.053-20.125 6.173-6.173 4.107-11.49 9.412-15.961 15.948-4.488 6.536-7.926 13.851-10.343 21.941-2.429 8.116-3.627 16.018-3.627 23.765 0 7.974 1.633 14.507 4.9 19.587 3.263 5.068 8.872 7.614 16.861 7.614 3.375 0 7.025-1.021 10.89-3.086 3.867-2.054 7.599-4.769 11.238-8.167 3.63-3.375 7.122-7.254 10.521-11.602a106.038 106.038 0 0 0 9.067-13.774l9.073-50.056c-3.164-2.669-6.425-4.723-9.8-6.173-3.393-1.452-7.626-2.17-12.694-2.17z"/><path d="M210.976 0C94.461 0 0 94.453 0 210.964 0 327.478 94.452 421.94 210.975 421.94c116.526 0 210.963-94.455 210.963-210.976C421.939 94.453 327.514 0 210.976 0zm134.931 264.283c-9.56 9.92-20.675 17.78-33.363 23.575-12.688 5.801-26.307 8.707-40.814 8.707-6.059 0-11.667-.655-16.867-1.987-5.206-1.34-9.565-3.567-13.055-6.72-3.507-3.146-6.112-7.254-7.812-12.334-1.693-5.08-2.173-11.361-1.435-18.849h-1.453a193.058 193.058 0 0 1-11.794 14.867 86.719 86.719 0 0 1-13.964 12.875c-5.065 3.759-10.637 6.719-16.669 8.887-6.062 2.174-12.703 3.261-19.96 3.261-5.798 0-11.361-1.273-16.693-3.808-5.309-2.54-9.905-6.106-13.775-10.694-3.867-4.588-6.953-10.16-9.235-16.693-2.317-6.527-3.461-13.774-3.461-21.761 0-14.994 2.429-29.559 7.256-43.703 4.84-14.147 11.431-26.662 19.768-37.539 8.344-10.884 18.029-19.633 29.03-26.298 11-6.642 22.665-9.968 34.993-9.968 8.47 0 15.604 1.273 21.398 3.807a64.569 64.569 0 0 1 15.967 9.979l11.234-11.616h25.395l-17.401 98.302c-1.934 11.361-1.994 19.588-.192 24.668 1.825 5.067 5.86 7.614 12.153 7.614 6.281 0 12.466-1.453 18.507-4.359 6.029-2.9 11.47-7.362 16.321-13.422 4.815-6.034 8.767-13.66 11.781-22.842 3.026-9.199 4.527-20.083 4.527-32.657 0-18.134-3.026-33.617-9.067-46.432-6.053-12.814-14.327-23.395-24.835-31.729-10.522-8.344-22.923-14.447-37.19-18.314-14.261-3.87-29.621-5.812-46.065-5.812-18.852 0-36.389 3.387-52.593 10.145-16.201 6.789-30.288 16.093-42.262 27.935-11.959 11.856-21.329 25.944-28.112 42.262-6.752 16.321-10.145 34.035-10.145 53.134 0 18.867 2.846 35.788 8.515 50.776 5.696 15.012 13.977 27.754 24.86 38.274 10.871 10.521 24.355 18.615 40.448 24.295 16.065 5.682 34.5 8.533 55.304 8.533 7.014 0 14.988-.847 23.947-2.534 8.936-1.693 17.042-4.233 24.296-7.626l11.24 34.828c-9.907 4.84-20.008 8.215-30.288 10.142-10.28 1.934-22.062 2.925-35.371 2.925-23.452 0-45.156-3.398-65.092-10.154-19.957-6.779-37.254-16.813-51.885-30.107-14.627-13.307-26.058-29.809-34.272-49.504-8.227-19.708-12.322-42.502-12.322-68.371 0-26.361 4.708-50.188 14.135-71.469 9.428-21.269 22.149-39.403 38.092-54.406 15.964-14.997 34.458-26.526 55.481-34.651 21.056-8.08 43.294-12.142 66.746-12.142 22.242 0 42.922 3.204 62.018 9.611 19.107 6.413 35.668 15.597 49.695 27.559 14.027 11.971 25.028 26.613 33.003 43.896 7.986 17.3 11.985 36.944 11.985 58.946 0 15.483-2.727 29.991-8.167 43.532-5.451 13.526-12.933 25.258-22.486 35.166z"/></g></svg><view id="contact--svg_send" viewBox="0 38 38 38"/><svg height="38" viewBox="-46.87 -46.87 593.75 593.75" width="38" y="38" xmlns="http://www.w3.org/2000/svg"><path d="M412.226 87.133L88.29 412.367c41.458 40.974 98.435 66.279 161.33 66.279 126.765 0 229.526-102.765 229.526-229.527 0-63.224-25.566-120.475-66.92-161.986z" fill="#639AE3"/><path d="M249.619 19.592c-126.765 0-229.527 102.762-229.527 229.527 0 63.87 26.096 121.639 68.197 163.248L412.226 87.133c-41.561-41.719-99.067-67.541-162.607-67.541z" fill="#4E7AC1"/><circle cx="249.1" cy="248.6" fill="none" r="243.4" stroke="#639AE3" stroke-miterlimit="10" stroke-width="5"/><path d="M384 139.055c-4.041 20.417-7.518 39.018-11.423 57.528-10.962 51.951-22.077 103.868-33.185 155.788-3.004 14.044-8.102 16.007-20.086 7.892-19.162-12.976-38.447-25.777-57.357-39.105-5.195-3.661-8.256-3.136-12.587 1.16-9.328 9.25-19.265 17.887-28.902 26.826-6.885 6.387-10.748 5.919-13.746-2.929-7.256-21.404-14.224-42.919-20.704-64.57-2.163-7.229-5.561-11.418-13.009-13.869-16.469-5.416-32.578-11.93-48.811-18.062-2.446-.922-4.946-1.909-7.11-3.337-7.01-4.627-6.941-10.32.223-14.655 2.901-1.755 6.108-3.066 9.29-4.284 79.545-30.467 159.097-60.915 238.687-91.26 3.609-1.376 7.711-2.716 11.373-2.286 2.745.323 5.154 3.52 7.347 5.163zM212.623 324.104c.554.052 1.106.104 1.66.152 1.216-9.342 2.616-18.668 3.586-28.037.676-6.531 3.008-11.669 7.935-16.412 33.899-32.641 67.504-65.584 101.182-98.457.929-.907 1.572-2.106 2.35-3.169-11.352 6.207-21.91 13.09-32.475 19.968-31.721 20.658-63.454 41.297-95.153 61.992-3.162 2.063-7.33 3.504-5.669 8.928 5.611 18.32 11.067 36.687 16.584 55.035z" fill="#FFF"/></svg><view id="cooperation--svg_ability-un" viewBox="38 38 38 38"/><svg width="38" height="38" viewBox="-48 -48 608 608" x="38" y="38" xmlns="http://www.w3.org/2000/svg"><path fill="none" d="M-1-1h202v202H-1z"/><g fill="#cc181e"><path d="M242 1.6c-23.4 5-43.6 25.4-48.5 48.9-9.5 45.4 30.6 85.5 76 76 23.8-5 44-25.2 49-49C328 31.9 287.6-8.2 242 1.6zm28.6 22.5c11.1 4.2 19 11.5 23.9 22.2 13.9 30.3-11.3 64.4-44.2 59.7-18.7-2.6-33.3-17.1-36.4-35.9-2.8-17.6 7.3-36.6 23.6-44.2 11-5.2 22.3-5.8 33.1-1.8zm113.9 113.6c-23.1 40.5-42.1 73.9-42.3 74.4-.2.5 36.6.9 84.6.9h85.1l-42.1-73.8c-23.2-40.5-42.4-74-42.7-74.4-.3-.3-19.5 32.5-42.6 72.9zm66.5 11.8c12.8 22.5 23.5 41.3 23.7 41.7.2.5-21.4.8-48.1.8h-48.5l24.2-42.4c13.3-23.3 24.5-42.1 24.8-41.8.3.4 11.1 19.1 23.9 41.7zM42.2 128.3L0 170.5l42.8 42.8L85.5 256l42.3-42.3C151 190.5 170 171 170 170.5c0-1.3-83.2-84.5-84.5-84.5-.6 0-20 19-43.3 42.3zm70.8 15.2l27.5 27.5-27.5 27.5L85.5 226l-27.7-27.7L30 170.5l27.2-27.2c15-15 27.5-27.3 27.8-27.3.3 0 12.9 12.4 28 27.5zm109 50.1c-23.4 5-43.6 25.4-48.5 48.9-9.5 45.4 30.6 85.5 76 76 23.8-5 44-25.2 49-49 9.5-45.6-30.9-85.7-76.5-75.9z"/><path d="M14 300.6C6.3 303.9 1.6 311.3 1.6 320c.1 4.8 2.9 12.5 22.3 61 13.2 32.9 23.4 56.9 25 58.9 5.4 6.9 16 9.9 23.6 6.7 2.1-.9 20.4-14 40.5-29.1 20.2-15.1 37-27.5 37.3-27.5.4 0 .7 27.4.7 61v61h170v-61c0-33.6.3-61 .7-61 .3 0 17.1 12.4 37.3 27.5 20.1 15.1 38.4 28.2 40.5 29.1 7.9 3.3 18.5.2 23.9-6.9 1.3-1.8 12.4-28.2 24.7-58.7 19.5-48.5 22.2-56.2 22.3-61 0-12.2-8.9-21-21.4-21-6.1 0-11.5 2.5-15.6 7.2-2 2.3-8.2 16.7-19.4 44.6-9 22.6-16.8 41.2-17.2 41.2-.5 0-15.3-10.9-33-24.2-22.3-16.7-33.6-24.5-36.6-25.5-6.6-1.9-175.8-1.9-182.4 0-3 1-14.3 8.8-36.6 25.5-17.7 13.3-32.5 24.2-33 24.2-.4 0-8.3-18.8-17.5-41.8C40 306 39.3 304.6 31.3 300.6c-4-2-12.7-2-17.3 0z"/></g></svg><view id="cooperation--svg_cooperation" viewBox="76 0 38 38"/><svg width="38" height="38" viewBox="-48 -48 608 608" x="76" xmlns="http://www.w3.org/2000/svg"><path fill="none" d="M-1-1h514v514H-1z"/><g fill="#2793e8"><path d="M404.267 315.41c-10.048-20.949-45.995-50.027-80.725-78.123-19.371-15.659-37.675-30.464-49.344-42.133-2.923-2.944-7.296-3.883-11.157-2.496-7.189 2.603-11.627 4.608-15.125 6.165-5.333 2.389-7.125 3.2-14.315 3.925a10.663 10.663 0 0 0-7.808 4.672c-15.083 22.549-30.699 20.629-41.131 17.131-3.328-1.109-3.925-2.539-4.245-3.904-2.24-9.365 9.003-31.168 23.573-45.739 34.667-34.688 52.544-43.371 90.304-26.496 42.837 19.157 85.76 34.155 86.187 34.304a10.654 10.654 0 0 0 13.589-6.571c1.92-5.568-1.003-11.648-6.571-13.589-.427-.149-42.496-14.848-84.48-33.643-48.917-21.867-75.755-7.467-114.091 30.891-14.592 14.592-34.411 44.117-29.291 65.771 2.197 9.216 8.683 16.043 18.325 19.221 24.171 7.979 46.229.341 62.656-21.461 6.784-1.045 10.475-2.581 16.021-5.077a209.95 209.95 0 0 1 7.467-3.2c12.203 11.456 28.672 24.789 46.016 38.805 31.36 25.365 66.923 54.123 74.923 70.763 3.947 8.213-.299 13.568-3.179 16.021-4.224 3.627-10.005 4.779-13.141 2.581-3.456-2.368-7.957-2.517-11.52-.384a10.66 10.66 0 0 0-5.141 10.304c.725 6.784-5.483 10.667-8.171 12.011-6.827 3.456-13.952 2.859-16.619.384-2.987-2.773-7.275-3.584-11.072-2.176-3.797 1.429-6.443 4.928-6.827 8.981-.64 6.997-5.824 13.717-12.587 16.341-3.264 1.237-8 1.984-12.245-1.899a10.791 10.791 0 0 0-9.749-2.475 10.65 10.65 0 0 0-7.488 6.72c-.405 1.067-1.323 3.627-11.307 3.627-7.104 0-19.883-4.8-26.133-8.939-7.488-4.928-54.443-39.957-94.997-73.92-5.696-4.8-15.552-15.083-24.256-24.171-7.723-8.064-14.784-15.381-18.411-18.453-4.544-3.84-11.264-3.264-15.04 1.259-3.797 4.501-3.243 11.243 1.259 15.04 3.307 2.795 9.707 9.557 16.768 16.917 9.515 9.941 19.349 20.224 25.963 25.771 39.723 33.259 87.467 69.163 96.981 75.413 7.851 5.163 24.768 12.416 37.867 12.416 10.517 0 18.603-2.411 24.213-7.125 7.509 2.923 16.043 2.944 24.256-.256 9.707-3.755 17.685-11.328 22.208-20.501 8.405 1.792 18.027.533 26.773-3.861 8.555-4.309 14.741-10.901 17.813-18.603 8.491.448 17.237-2.56 24.469-8.768 12.247-10.474 15.617-26.772 8.535-41.471z"/><path d="M213.333 138.663h-96c-5.888 0-10.667 4.779-10.667 10.667s4.779 10.667 10.667 10.667h96c5.888 0 10.667-4.779 10.667-10.667s-4.779-10.667-10.667-10.667zM435.52 292.711c-3.307-4.885-9.92-6.229-14.805-2.901l-31.189 20.949c-4.885 3.285-6.187 9.92-2.901 14.805a10.717 10.717 0 0 0 8.875 4.715c2.027 0 4.096-.576 5.931-1.813l31.189-20.949c4.884-3.286 6.185-9.92 2.9-14.806zm-66.219 50.902c-7.637-6.016-41.792-40.981-62.912-62.997-4.075-4.267-10.837-4.416-15.083-.32-4.267 4.075-4.395 10.837-.32 15.083 5.483 5.717 53.845 56.128 65.088 65.003a10.623 10.623 0 0 0 6.592 2.283c3.136 0 6.272-1.408 8.405-4.075 3.649-4.609 2.86-11.329-1.77-14.977zm-42.624 21.397c-12.779-10.219-44.885-44.331-52.139-52.224-4.011-4.352-10.731-4.608-15.083-.64-4.331 3.989-4.629 10.752-.64 15.083.384.405 38.699 41.771 54.528 54.443a10.72 10.72 0 0 0 6.656 2.325c3.115 0 6.229-1.387 8.341-3.989 3.671-4.609 2.924-11.329-1.663-14.998zm-42.453 21.483c-15.211-12.821-46.336-45.952-52.416-52.459-4.032-4.309-10.795-4.544-15.083-.512-4.309 4.032-4.523 10.773-.512 15.083 8.747 9.365 38.528 40.939 54.251 54.208a10.638 10.638 0 0 0 6.869 2.517c3.029 0 6.059-1.301 8.171-3.797 3.797-4.523 3.221-11.243-1.28-15.04z"/><path d="M124.672 120.253C106.389 102.93 33.28 97.319 11.307 96.018c-3.029-.149-5.824.853-7.957 2.88A10.662 10.662 0 0 0 0 106.663v192c0 5.888 4.779 10.667 10.667 10.667h64c4.608 0 8.704-2.965 10.133-7.36 1.557-4.779 38.315-117.589 43.157-173.056.278-3.243-.917-6.443-3.285-8.661zM66.88 287.997H21.333V118.098c34.283 2.709 71.275 8.597 84.715 15.125-5.653 46.72-31.232 129.728-39.168 154.774zM501.333 117.33c-83.755 0-130.219 21.44-132.16 22.336-2.773 1.301-4.843 3.712-5.696 6.635s-.427 6.059 1.173 8.661c13.184 21.227 54.464 139.115 62.4 167.872a10.665 10.665 0 0 0 10.283 7.829h64c5.888 0 10.667-4.779 10.667-10.667v-192a10.657 10.657 0 0 0-10.667-10.666zm-10.666 192h-45.355c-10.112-32.939-39.979-118.827-56.64-154.325 16.277-5.525 51.243-15.019 101.995-16.213V309.33z"/></g></svg><view id="cooperation--svg_importance" viewBox="76 38 38 38"/><svg width="38" height="38" viewBox="-48 -48 608 608" x="76" y="38" xmlns="http://www.w3.org/2000/svg"><path fill="none" d="M-1-1h514v514H-1z"/><g stroke="#cc181e"><path d="M21.957 119.479c0-26.506 24.42-47.994 54.542-47.994h366.917c14.465 0 28.338 5.056 38.567 14.057 10.228 9 15.974 21.208 15.974 33.937v191.975c0 26.506-24.419 47.994-54.541 47.994H220.29L64.832 481.485l36.459-122.037H76.499c-30.122 0-54.542-21.488-54.542-47.994V119.48z" stroke-width="21" fill="none"/><path d="M408.867 271.108l-39.892-78.023c-12.028-23.516-31.7-62.013-43.727-85.533L285.36 29.533c-12.04-23.53-31.712-23.53-43.735 0l-39.88 78.019c-12.028 23.52-31.712 62.026-43.735 85.533l-39.884 78.023c-12.027 23.539-2.183 42.778 21.867 42.778h246.982c24.075 0 33.907-19.24 21.892-42.778zm-133.984 12.079h-23.66v-25.654h23.66v25.654zm-1.14-44.557h-21.36l-2.122-109.764h25.416l-1.934 109.764z" stroke-width="1.5" fill="#cc181e"/></g></svg><view id="cooperation--svg_love" viewBox="0 76 38 38"/><svg width="38" height="38" viewBox="-4.69 -4.69 59.38 59.38" y="76" xmlns="http://www.w3.org/2000/svg"><path fill="none" d="M-1-1h582v402H-1z"/><path fill="#cc181e" d="M25.85 10.126c2.018-4.783 6.628-8.125 11.99-8.125 7.223 0 12.425 6.179 13.079 13.543 0 0 .353 1.828-.424 5.119-1.058 4.482-3.545 8.464-6.898 11.503L25.85 48 8.402 32.165c-3.353-3.038-5.84-7.021-6.898-11.503-.777-3.291-.424-5.119-.424-5.119C1.734 8.179 6.936 2 14.159 2c5.363 0 9.673 3.343 11.691 8.126z"/><path fill="#ED7161" d="M6 18.078a1 1 0 0 1-1-1c0-5.514 4.486-10 10-10a1 1 0 1 1 0 2c-4.411 0-8 3.589-8 8a1 1 0 0 1-1 1z"/></svg><view id="cooperation--svg_ready" viewBox="38 76 38 38"/><svg width="38" height="38" viewBox="-18.75 -18.75 237.5 237.5" x="38" y="76" xmlns="http://www.w3.org/2000/svg"><path fill="none" d="M-1-1h202v202H-1z"/><path fill="#cc181e" d="M120 2.5c-5.7 1.8-12.4 7.5-15.1 12.7-1.1 2.2-2.3 6.5-2.6 9.5-.5 4.7 1.1 24 2.3 28.5.4 1.4 0 1.5-3.2.8-6.3-1.4-9.5-.3-25.4 9.4-27.8 16.7-25.8 15.1-38.3 31.9C26.2 110.6 23 115.7 23 118.4c0 3.6 16.5 31.3 40.3 67.8L73 201h55l1.5-3.3C131.3 193.8 182 65 182 64.3c0-.2-1.9-1.3-4.2-2.3-8-3.6-16.7-2-23.4 4.5l-4.1 4-.7-17.9c-.3-9.9-.6-22-.6-26.9v-9l-6.2.6c-3.5.4-7.2.8-8.3.9-1.1.2-2-.3-2.2-1.2-2.6-17-2.3-16-5.1-15.9-1.5 0-4.7.7-7.2 1.4zm6 11.7c2.6 16.8 8.9 85.4 9 99.1 0 1 .5 1.5 1 1.2 1.6-1 1.2-55.8-.5-70.5-2.2-18.8-2.3-18.7 2.5-20.1 2.2-.7 4.3-.9 4.7-.5.4.4.9 23.4 1.1 51.1.4 44.7 1 56 2.6 48.2.3-1.2 1.2-10.4 2-20.5 1.6-18.8 2.6-22.5 7.8-29.2 4.2-5.4 13.7-8.8 17.4-6.2.6.4-7.5 22.2-23 61.8-13.3 33.5-24.7 62.2-25.3 63.7L124 195H76.1l-7.7-11.8c-12.7-19.4-32.4-51.3-36.2-58.4l-3.5-6.7 2.8-4.3C34 110.1 51.1 86.9 53 84.7c.3-.4 3 2.2 5.8 5.8 6.6 8.2 7 12.2 1.8 20.8l-3.5 5.8 4 2.9c8.4 6.1 20.6 6.2 29.2.3 4-2.8 7.7-7.9 7.7-10.8 0-.9-1.6-6.8-3.5-13L91 85.2l-7.6 3.9c-10.1 5.3-13.7 5.2-22.1-.2-3.5-2.3-6.2-4.6-6-5.2.3-.9 28.9-18.8 36.8-23.1 3.9-2 8.9-1.7 12.2.8 1.1.9 4.2 9.4 8.3 22.7 6.3 20.3 7.7 23.9 8.9 22.8.3-.3-1.9-11.1-4.9-24-5.7-24.7-9.1-48.3-8.4-57.4.6-7.5 4.4-12.9 11.1-16 2.8-1.3 5.2-2.3 5.4-2.2.1.2.7 3.3 1.3 6.9zM90 102l2.3 8.1-2.8 2.9c-5.4 5.7-13.8 7.2-21.7 4.1l-2.7-1 2.4-5.3c1.4-2.9 2.5-6.7 2.5-8.4 0-3 .2-3.2 4.8-3.8 2.6-.4 6.3-1.5 8.2-2.6 1.9-1.1 3.8-1.9 4.1-2 .3 0 1.7 3.6 2.9 8z"/></svg><view id="knowledge--svg_PostCSS" viewBox="76 76 38 37.59"/><svg width="38" height="37.59" viewBox="-74.06 -74.06 938.13 928.13" x="76" y="76" xmlns="http://www.w3.org/2000/svg"><path fill="none" d="M-1-1h582v402H-1z"/><g fill="#d93c07"><path d="M370 2c-13.8 2-36 5-46.2 6-37.6 3.8-75.2 13.7-107.2 28-15.7 7.2-22.2 11-44 25.8-27.8 18.7-47.2 35-58.2 48.3-3.2 5-10.5 13-16.2 20-22.6 27-40.4 54-59 92-11.4 23-12 25-18 46C9.2 310 8 319 10 349c.7 10.2 1.6 19 2 19.5.4.5.8 1.7 1 2.5.5 8 4.7 29 5.6 29 .3 0 .3-2 0-4.8-2-14-2-13.2.3-13.2 1 0 2-.6 2-3 0-1.7 1-4 2-5.6 5-5.6 6-9 8-20 1-6 1-13.6 1-17 0-3.2 0-8.7 1-12 2-15.5 16-55 26-77 11-23.8 44-78 57-94.4 19-24.6 57-58 86-76 22-13.7 53-27.3 75-33.6 28-8 24-7 67-11 10-1 18-1.4 18-1.2 0 .5-14 21.5-22 31.3-3 3.3-10 13.2-16 22-6 8.7-14 20-18 25-20 23.7-63 83.5-84 114.5-25 36.4-46 68-50 71.6-1 1.2-3 5-5 8.3-4 7-10 17-11 16s0-2 1-3c2-3 2-6 0-5-1 0-3 3-4 6-2 4-3 5-2 6s1 1 0 1c-1-1-3 1-5 4-4 5-3 7 1 2l3-3c1 0-2 6-5 9-2 1-3 3-3 4s5-1 6-3c0-1 3-5 7-8 11-10 24-25 42-48 9-12 19-24 22-28l6-7v29l-2 32c-1 9-1 19-2 24-1 10 0 61 1 59 1-1 1-12 2-24 0-12 0-22 1-23s0 32-1 40c0 5-1 9-2 10 0 1-1 3-1 5-1 11-1 12 0 13 0 0 1 4 1 8 0 11 2 7 3-8l2-12-1 17c-.6 10-1 20-2 23-1 4-1.7 12-1.8 22 0 21 0 20 1 20 2.7 0 3 3 2.7 25 0 23-2 24-2 2 0-13 0-14-2-14s-2 1-3 18c0 10-1 20-1 22-1 4-1 4-5.7 4l-51 1c-53 0-98 1-107 3-8 1-18 5-19 6s-1 2-1 3c0 2 0 2 3 2 1 0 3 0 2 1 0 0 3 1 6 1s10 1 15 1c11.6 2 22.8 3 44 4 25.6 1 106.7 1 146.5 0l77-2c53-1 94-3 106-4 17-2 68-5 146-7l44-2c6-1 27-2 46-2l35-1-2 2c-2 1-2 3-2 3 0 1 0 2-1 2-2 0-3 2-3 4 0 0 0 1 1 1s1 0-1 2c-1.5 1-3 2-4 2-2 0-3 2-1.7 3 1 1 0 2-1.3 3s-2.5 2-2.5 3c0 0-1 2-3 4-3 3-3 4-2 5s1 1-1 3-3 3-3 4.2c0 1 0 2-1 2s-1 1-.5 2 0 2-1 3c-1 0-3 3-5 6-5 9-10 15-27 30.7-21.5 21-47 40-75 55-8 5-17 10-20 12-2 2-10 6-17 8l-25 10c-17 8-27 10-72 15l-26 4c-9 1.6-30 1.3-39-.4-5-1-12-1-16-2-13 0-41-6-47-9-2-1-5.5-1-8.5-1-3.5 0-8-1-11-2s-6.7-2-8.6-2c-2 0-4-1-5-2s-3-2-3.7-2c-.7 0-4-1-7-3l-13.7-8c-8-4-17-8-19-7-1 1-16-7-24-12.6-3-2-6-3.4-7.5-3.4-4 0-30-17-37-24-2-3-9-7-14-10.8-8.3-5-11-7-12-10 0-2-3-5-7-8l-9-7.3c-1-2-4-4-6-5-4.5-3-9.4-8-22-25-5-7.6-10-13-10-13s0 1.2 1 2.3c1 3 1 4-.6 3l-2-1c0 .6 4 8 9.7 17 12 20 12 19 8 18-2-.4-4-2.4-5-4.3-3-4-5-6-8-6-1.3 0-2-1-3-3-.3-1-1-3-2-3-2 0-2 0 3 8l4 8c0 1 2.7 4 6 8 4 4 7 8 7 8l4 6c5 6 6 7 4 7-1 0-3-2-5-4-6-6-2 0 5 7 10 12 16 17 18 16 1 0 3 1 4 1 1 1 3 2 4 1 1 0 1 0 1 1s0 2 .2 1c.3 0 5 4 11 9 5.3 6 14.3 14 19.3 18 10 8 54 34 69 41 12 6 31 12 50 16.7 8 1.5 16 4 19 5 10 4 38 9 55 9.4 17.2 1 27 1 27.3 1.4h3c2-.6 3 1 1 2.3-3 3 40 2 54-2 4-1 8-1.3 8-1 0 0 2 0 3-1 1-.2 5-1 7-2 10-.2 19-2 20-3 1-.3 1-1-1-1-3 0-3-1 1-2.3 4-1.8 6 0 4 2-1 2-1 2 0 1l13-3c10-3 12-3 12-5s1-3 3-4l3-1-3 .7h-3c1-1 23-11 23.8-10 .6 0 0 0-2 1l-2 1 2.5 1c3 1 4 0 5-3 1-2 2-2.2 4-2.2 4 0 12-3 20-7 3.6-2 7-3 8-3s3-1 4-2 3-1.5 4-1.5 3-1 4-2 2-2 3-2c1 .6 2.8 0 3.8 0 1-.4 1-1-1-1-3-.3-3-1 7-6 5-3 11-6 12-6 2 0 11-5 11-6.4-1-1 0-1 1-2s3-3 6-5c2-2 7-6 11-9 23-18 55-51 70-73 4-7 15-26 33-59 1-3 2-3 13-4 6-1 12-2 13-2 2-2 2-2-4.6-12-3-4-6-9-7-12l-2.3-5 6-17.7c11-30 12-36 16-68 5-42 5.3-51 3-105-2-32-6-61-12-82-4.6-14-15-41-22.5-55-8-18-33-54-49-73l-13-15c-9-11-20-20-52-42-17-11.4-25-16-41-24-11-5-24-11-29-12l-28-9c-25-7-35-9-74-12.4-28.3-3-78-4-89-3zm62 31.5c58.6 4.5 97.3 14.6 150 39 15.4 7.2 43.6 22 47.2 25 3 2.3 30 31.4 37 39.5 40 48 48.4 59.2 54.6 71.7 2.6 5.2 10.2 27.7 15.3 45.3 3 9 6 27.7 6 34.2 0 3 1 7 2 9.2 1 2 1 4.5 1 5.2 0 .8 0 1.4 1 1.4s1 1 1 2.5c0 1.8 1 2.3 2 2 1-.5 2-.3 2 0l1 7c2 8 2 38.4 0 41.5 0 2.4-1 2.3-1-1.2 0-2 0-4-1-4.3 0-.3-1 0-1 .5 0 .7 0 1-1 .6-1-.5-1 0-1 3.2 1 7 2 7.2 4 6.2s4 0 1 2c-2 1.5-2 6.3 0 9.3 2 3 2 10.7 1 10.7s-2-.5-2-1.2c-2-2.2-1 10.5 1 14.5 2 3 2 4.2 1 7.8l-1 6-1 17c-1 16-2 31-3 33-1 3-2 2-2-2 0-2 0-4-1-4-2-1-2 0-1 5 1 7 1 7-1 6-2 0-2 0-2 5 0 3-1 7-2 9s-1 5-1 7c1 4 4 4 4 0 0-1 1-5 2-7 1-5 1-5 1 4 0 12 0 11-2 10-2 0-2 0-1 2 0 2 1 3 1 3-1 1-28-40-40-60-4-5-11-16-16-23s-18-25-28-40-20-29-22-32-9-12-14-21-15-24-23-35l-13-19v-43h-13c-9 0-13 0-15-1-4-2-10-9-24-30-7-9-17-24-24-33-31-42-38-52-57-77-11-16-24-33-29-39s-8-11-8-11l21 2zM403 67c19.6 25 42 56.3 66.2 92.7l30 44.6c7 10.3 12.8 19.2 12.8 19.6h-27.7c-23-1-32 0-51.8 1-29.2 2-57.8 4-78.5 4-8.5 0-19.8 0-25 1-12 1-72 3-78.3 3l-4.7-1 15.5-22c8.5-12 17-23 18.6-25 2-2 5-6 6-9 2-3 3-5 4-5 2 0 16-18 15-20s15-22 16-21c1 0 3-2 5-5 5-6 6-8 2-5-3 2-1-1 5-9 0-1 1 0 2 1s2 1 3-1 1-2 0-2c-2 1-1 0 12-19l12-18c11-17 24-33 26-32 1 0 9 10 18 22zm132.6 190.5c1.2.8 4 4.5 6.2 8.2l4 6.8.7 30 1 42.2c.3 6.8 0 12.3-.3 12.3-.5 0-1.6-2.6-2.5-5.8-3-11.3-8.4-22-18.4-36.7-17.4-26-31-37.2-60.6-50-5.6-2.6-10.6-5-11-5.5-.8-.7 3.6-1 12-1 14.2-.3 61.6-1.5 64.8-1.8 1 0 3 .5 4 1.3zm-195.6 6c0 .2-2.5 1.8-5.6 3.5-10.6 6-24.3 18-41 35.7-9.5 10.3-19.3 22-23 27.5-3.8 5.4-7 9.6-7.2 9.4-.2-.2.2-12.7.8-27.8.7-15 1-31.2 1-36l-.5-8.8 4-.5c8.2-1 71.5-3.8 71.5-3zm95 16.2c3 1 8 3.3 11 4.8 6.3 3.2 40 25.6 44.7 29.8 4.2 3.7 17.4 21.7 20.7 28.2 1.3 2.8 4 11.5 6 19.5l3.4 14.5-2.4 13c-1.3 7-2.3 15.3-2.4 18 0 6.2-2.2 14-6 21.8-3 5.7-3.2 10.4-.3 5.6 1.4-3 1.4-3 .8 0-1 4-8.7 24-12 30-3.4 7-17 26-21 30-5 5-25.5 18-31.6 20-10 3-29 8-41 9-13 1-43-1-52-3-7-2-17-6-29-12-7-4-11-7-18-14-5-5-10-9-10-8 0 0 0 2 2 3 1 2 2 2 0 2-1 0-2-1-3-2l-2-2c-2 1-2 0 0-3 1-2 0-4-5-13-7-12-15-23-16-23s-2-3-3-6c-2-3-3-6-3-6-1 0 0 4 1 7 2 8 2 11 0 7-2-3-3-3-5-1-1 1 0 3 4 14 3 7 7 15 10 18l8 10c5 7 8 10 10 10s3 0 3 1 2 4 4 7c4 5 5 7 0 4-1 0-3-1-3 0-1 0 1 1 4 2 2 2 6 4 9 6 5 4 12 7 14 8 1 0 6 2 10 4l9 4-25 1-43 1h-18l-1-22c0-12-1-29-2-37-1-10-2-27-2-50 0-32 0-41 2-36 1 2 4 2 6-1 1-1 2-5 3-8 0-4 1-7 2-9 1-3 1-3 0-4-2-2-2-5 1-8 1-2 2-4 2-6 0-1 0-3 1-3.6s1-1.4 1-2l1-2c1-.4 2-2.3 2-4 1-3 6-11 7-12s1 2 0 5c-1 2-1 2 1-.3 1-1 2-3 1-5 0-2 0-3 5-8 3-3 6-7.5 8-10 2-2.4 4-5 7-6 5-3 16-13 16-15 0-2.4 3-2.5 3 0 0 2 1 2 5-1s4-5-1-3l-3 1.6 2.3-2c5-4.5 37-19 42-19 2 0 6-1 9-2 9-3 37.4-2 46 1zm154.7 57.8c2 3.3 7.8 11.6 13 18.5 5 7 19.6 28.7 32.5 48.5 26 40 26.6 40.8 49.8 72l24.8 33.5c4.7 6.3 10.5 13.5 13 15.8 2.6 2.8 4.2 5.3 4.2 6.8 0 1.3 0 2.5-.2 2.6l-51.8 1c-28.3.3-59.6 1-69.5 1.6-10 .5-18.4.6-19 .3-1.7-1-5.5 0-5.6 1 0 1-1 0-2-1-1-2-2-23 0-34 0-5 1-7 2-7 1 1 1 0 1 0 0-2 1-4 2-6 0-1 1-1 1 1s0 3 1 1c0-1 0-3-1-5s-1-4-1-5-1-2-1-2-1-1 0-1c0 0 1-4 0-10-1-8-2-12-3-9-1 1-1 1-2 0s-2-3-2-6c0-4 0-5 2-4s2 0 0-3c-1-1-2-5-2-11 0-7 0-8 1-8s1 0-1-2-2-4-2-15v-10c0 2 1 3 1 4 1 1 1-6 0-10-1-2-1-13 0-34v-31l2 3c1 2 4 6 6 9zM545 489.8c.6 8.4 2 22.7 3 31.8 1.2 9 2 16.8 1.7 17-.5.5-70.3 3.3-82.2 3.4h-6l7.7-4.5c4.2-2.4 11-7.2 15-10.5l14.5-11.6c14-10.7 23-23 36-48.4l7.7-15.5.8 11.5 1.8 26.8z"/><path d="M119.5 369.7c-3 3-5.5 6.2-5.5 7 0 .6-1.3 2.2-3 3.4-1.6 2-3.2 3-3.5 4-.3 1 2-1 5-4 3.8-4 5.4-5 5-3-1.2 4-1.8 5-9.8 11s-15.5 15-13.4 16c.7 0 1.6 1 2 2 1.4 3 3.3 2 5-2 1-2 2-3 2.4-3 .5 0 2.3-1 4-3 2.5-2 3-3 2.4-4 0 0 1-2 3-5 2-2 5-4 5-5 1 0 2-2 2-3 1-2 3-3 3-2s-2 5-4 8c-1 2-2 3-1 4s4-2 6-6c6-8 8-13 4-8-2 3-2 3-3 1 0-1 0-2 2-4s3-5 2-5l-6 6zm-89 20.3c-.3.5 0 4.4.4 8.7v8c-1 .5-3-9-3-11.5 0-1.2-1-1-1 .7-1 1-1 3-1 3 0 1 0 1-2 1s-2 0-2 3v3l-2-3c-2-4-2-4-4-1-1 1-1 2 0 3s2 4 2 7 1 10 2 15c1 8 2 9 3 9 2-1 2 1 7 18l1 6-1-7c-1-5 0-6 1-6 3 1 7 1 7 1 0-1 0-2-1-4-1-1-2-2-2-1-1 1-2 1-3 1-2-1-2-1-1-2 2-2 2-4 1-6-1-1-1-2 1-3 2-2 2-1-2-17-1-3-2-11-3-18l-1-12c0-1-2 0-2 1z"/></g></svg><view id="knowledge--svg_bem" viewBox="114 0 38 32.43"/><svg version="1" width="38" height="32.43" viewBox="-62.5 -62.5 625.01 538.01" x="114" xmlns="http://www.w3.org/2000/svg"><path d="M0 17.5V35h117V0H0v17.5zm0 64V99l58.3-.2 58.2-.3.3-17.3.2-17.2H0v17.5zm0 62.9v17.5l113.3.4c82.9.3 115.5.7 121.7 1.7 24.6 3.5 42 10.8 53.2 22.2l6.8 6.9v-9c0-10.1-2-17-7.5-25.6-11.4-17.9-31.7-27.7-62.5-30.5-6.9-.6-54.3-1-118.2-1H0v17.4zm0 64v17.4l126.3.5c85.6.3 129.6.8 136.7 1.6 12.6 1.4 23.6 3.5 28.5 5.5l3.5 1.5v-7.5c0-8.9-1.8-13.2-7.9-18.7-7.8-7-21-12.2-39.1-15.4-8.4-1.4-23.7-1.7-128.7-2L0 190.9v17.5zm289.7 39.8c-15.7 5.9-39.9 6.8-175.4 6.8H0v35h112.3c67.9 0 116.5-.4 123.2-1 31.4-2.9 50.9-11.1 57.6-24.2 1.5-3 1.9-5.5 1.7-11.1l-.3-7.3-4.8 1.8zm-2.2 47.3C274.1 309 255.1 315.6 223 318c-7.8.6-57.5 1-118.2 1H0v35h107.8c64.9 0 111.9-.4 118.4-1 29-2.8 49.4-12.6 60.6-29.3 6.4-9.7 8.4-16.1 8-26.8l-.3-8.4-7 7zm7 53.3c-.3.3-.5 2.4-.5 4.6 0 6.1 3.6 10.8 11.2 14.5 13 6.4 12.4 6.4 108.1 6.8l86.7.4V353h-89c-88.3 0-103.5-.5-112.2-3.4-2-.8-4-1.1-4.3-.8zm-.5 30c0 15.8 13.1 28.6 33.2 32.7 6.6 1.3 19.8 1.5 90.3 1.5H500v-20.9l-85.2-.4c-94.8-.4-92.2-.2-106.5-7.2-3.9-1.9-8.5-5.1-10.2-7-1.7-1.9-3.3-3.5-3.6-3.5-.3 0-.5 2.2-.5 4.8z"/></svg><view id="knowledge--svg_css3" viewBox="114 32.43 38 38"/><svg width="38" height="38" viewBox="-44.13 -44.13 558.96 558.96" x="114" y="32.43" xmlns="http://www.w3.org/2000/svg"><path fill="none" d="M-1-1h582v402H-1z"/><path fill="#2793e8" d="M426.981 0H43.701C34.52 0 27.632 7.769 28.442 16.949L63.45 409.254c.811 9.173 8.745 18.774 17.644 21.253L219.1 468.842c8.887 2.463 23.413 2.479 32.313.032l138.177-38.281c8.901-2.472 16.835-11.986 17.645-21.175l35.023-392.469C443.068 7.769 436.209 0 426.981 0zM360.51 141.611a.134.134 0 0 1-.112.117.134.134 0 0 1-.144-.077L252.13 185.96a3.485 3.485 0 0 0 1.321 6.708h84.103a15.772 15.772 0 0 1 15.682 17.443l-13.141 123.273a15.77 15.77 0 0 1-10.447 13.205l-89.269 31.41a15.761 15.761 0 0 1-10.397.025l-88.852-30.778a15.771 15.771 0 0 1-10.52-13.228l-5.957-55.828a10.388 10.388 0 0 1 10.331-11.492h24.725c5.313 0 9.769 4.007 10.331 9.289l3.655 34.316 61.521 21.385 61.803-21.58 7.559-71.17H129.835a10.39 10.39 0 0 1-10.327-9.25l-3.327-30.164a10.388 10.388 0 0 1 6.366-10.745l111.837-46.109a2.872 2.872 0 0 0-1.093-5.528H115.542a6.926 6.926 0 0 1-6.888-6.201l-3.406-32.421a6.927 6.927 0 0 1 6.887-7.648h246.379a6.928 6.928 0 0 1 6.881 7.707l-4.885 43.032z"/></svg><view id="knowledge--svg_gimp" viewBox="114 70.43 38 38"/><svg width="38" height="38" viewBox="-150 -150 1900 1900" x="114" y="70.43" xmlns="http://www.w3.org/2000/svg"><path fill="none" d="M-1-1h1602v1602H-1z"/><path d="M1279.663 187.732c-10.6 2.2-20.4 9.7-28.8 21.9-10.9 15.9-17.7 29.7-31.4 63.7-3.9 9.6-9.4 22.2-12.3 28-35.6 70.9-103.7 134.4-192.5 179.4-30 15.3-58.8 27.1-90 37-17.2 5.4-43 12.4-54.1 14.6l-5.7 1.1-10.8-5.5c-71.3-36-155.8-28.2-219 20l-7.2 5.4-10.7-1.5c-58.8-8.2-120.3-43.3-179.1-102-31.3-31.3-41.3-44.1-79.7-101.4l-29.7-44.6v308.8l-4.9 7.6c-8.7 13.7-16.9 32-20.6 46.6-1 3.8-1.9 7.1-2 7.3-.1.1-5.1-2.8-11.1-6.6-64.6-41-135.2-45.2-186.8-11.1-4.3 2.8-12.2 9.3-17.5 14.4-37 35.6-52.2 91.1-41.7 152.5 14.5 84.8 75.6 166.8 152.1 204 27.5 13.4 49.9 19.4 80 21.5l10 .7 14.9 11.1c46.9 34.8 104.7 69.6 151.3 91.1 84.5 39 179.5 68.4 261.3 81 40.7 6.2 64.6 8 107 8 45.6 0 73.6-2.5 110.5-9.9 56.5-11.3 109.3-31.6 155.9-59.9l12.8-7.8 20.7 10c51 24.8 119.2 51 173.6 66.5 15.9 4.6 26.6 7.2 57.3 14.2 2.1.5 2.2.9 2.2 12.1 0 36.2 12.4 67.8 35.9 91.1 16.1 16.1 35 28.5 66.6 43.9 31.9 15.6 56.6 24.8 95.3 35.4 11.9 3.3 22.5 6.3 23.5 6.6 1.6.5 1.7-1.4 1.7-30 0-61.6-4.4-121.3-11.6-159.1-8-41.6-14.3-56.3-31.4-73.5-20.4-20.4-45.7-32.1-73.1-33.7-21.8-1.2-45 5.1-60.5 16.7l-5 3.8-10-7.5c-35-26.5-90.6-59.7-146.9-87.8l-25.5-12.7 3.5-4.7c6.5-8.6 24.3-35.5 30-45.6 55.9-97.7 89.5-235.2 102-417 2.6-38.7 3.5-62.9 4.1-112 1.3-101.4-4.1-183.1-16.2-243.9-4.1-20.9-6.3-26.3-14.4-35-7-7.4-13.5-11.2-22.7-13.1-8-1.7-11.9-1.7-19.3-.1zm1.9 115.7c5.3 41.8 8.3 143.3 6.2 209.9-3.2 100.7-11 176.3-26.2 253-15.1 76.3-34.2 136.3-59.9 188.5-15.2 30.9-31.1 56.3-44.8 71.5l-4.7 5.2-23-9.2c-17.8-7.2-48.3-18.5-63.1-23.5-.6-.2-1.4-4-1.8-8.6-1.9-20.7-10.9-37.2-31.3-57-11.2-10.8-23.9-20.6-39.4-30.2-10.7-6.6-22.8-13.1-23.4-12.5-.2.2 1.5 3.2 3.6 6.8 13.7 22.4 22 46.2 22.2 64 .1 6.9-.3 9.3-2 12.5-9.9 18.8-48.2 31.8-116.3 39.5-57.9 6.5-150.7 8.5-237 5-11.8-.5-21.6-.7-21.8-.5-.2.2 10.6 3.9 24 8.3 86.8 28.6 174.6 47.9 240.7 53.1 17.2 1.4 54.9 1.4 68 .1l10-1.1 25.3 16.9c13.9 9.2 30.6 20.1 37.2 24.2l11.8 7.4-9.8 4.9c-97.8 49.1-217.3 58.6-353.4 28.1-79.6-17.9-172.4-52.4-235-87.4-21.4-11.9-72.3-43.7-74.1-46.1-.2-.4 2.3-2.7 5.6-5.2 7.8-5.9 20.6-19.3 27-28.2 7.1-10 15.9-27.8 20-40.6 5.1-15.9 7.6-31.3 8.2-52.2.5-15.2.8-17.7 2.1-17.2.8.3 7.2 1.7 14.1 3.2 11.1 2.4 14.9 2.7 31.6 2.7 11.3 0 22-.5 26.5-1.3 34.4-6 62.7-19 88.2-40.7l8.7-7.3 6.5 7.8c9 10.7 22.5 23.4 35.1 32.9 52.3 39.2 121.4 51.3 184 32.1 89.7-27.6 150.7-112.9 147.2-205.9-1.7-43.7-14.7-80.2-42.5-119-1.3-1.7-1-2 3-3 2.4-.6 14.2-4.4 26.3-8.5 35.4-11.7 61.9-22.9 93-38.9 24.9-12.9 34.9-18.8 58-34.1 59.2-39.4 104.7-84.7 138.4-137.6 9.6-15.2 22.6-40 30.1-57.7 2.9-6.7 5.4-12.1 5.6-11.9.2.2.8 3.7 1.3 7.8zm-853 226.3c6.1 5.5 10.8 10.3 10.4 10.6-.5.4-3.5 1.3-6.8 2-8.2 1.7-22.1 6.4-31.2 10.6-4.2 1.9-7.7 3.4-7.9 3.4-.2 0-.4-14.1-.4-31.2v-31.3l12.4 13c6.8 7.2 17.3 17.5 23.5 22.9zm361.3 42.6c49.5 10.4 89.9 45.7 106.7 93.3 5.7 16.2 7.4 27.1 7.4 46.7 0 9.6-.4 19.5-1 22l-.9 4.5-1.8-5.8c-2.3-8-10.2-23-15.9-30.4-14.2-18.5-36.2-31.8-59.4-35.8-9.9-1.7-22.7-2-21.8-.5.3.5 1.4 1 2.3 1 3.6 0 14.1 6 20 11.5 27.5 25.4 15.3 71.4-21.5 81-30.7 8-61.5-18-59-50 .6-8.3 3.5-16.6 8.3-23.5 1.9-2.7 3.2-5 3-5-.3 0-3.8 2.6-7.8 5.8-15.5 12.4-27.6 30.9-32.9 50.7-3.1 11.5-3.2 35.6-.1 46.6 9 32.8 32.5 57.9 63.7 68l7 2.3-4.5 1c-2.5.5-12.4.9-22 .9-14.3.1-19.4-.3-27.7-2.1-27.6-5.9-50.8-18.1-70.5-37.1-21.8-20.9-35.5-45.6-42-75.4-3.1-14.7-3.1-42.7 0-57.4 13.2-61.2 61.1-105.6 123.2-114.3 10.4-1.4 36.1-.4 47.2 2zm-302.7 30c12.8 1.8 22.9 5 35 11 14.1 6.9 25.5 15.6 34.8 26.5l6.5 7.6-1.9 6.7c-2.8 9.5-5.9 23.7-5.9 26.7 0 1.4-.2 2.5-.5 2.5s-2.6-1.5-5.2-3.4c-6.9-4.9-16.1-9.2-24.5-11.6-8.2-2.4-28.2-3.9-23.8-1.9 1.4.7 4.9 2.3 7.8 3.6 6.7 3.2 14.2 10.6 17.6 17.6 10.9 22.1-.6 48.4-24.2 55.7-15 4.6-30.2.4-41.2-11.6-11.9-12.9-13.4-33.7-3.6-48.3l3.5-5.1-4.2 2.9c-6.1 4.1-16.7 15.7-21 22.8-24.2 39.8-9 91.7 32.8 112.7 3.9 1.9 10 4.3 13.5 5.3l6.5 1.8-4.5.7c-12.6 1.9-32.4-.1-46.3-4.6-9.4-3.1-20.1-8.3-28.3-13.8-6-4-6.3-4.5-12-16.7-9.8-20.9-20.2-37.8-33.6-54.4-3.7-4.5-4.8-24-2.3-39.3 2.7-16.7 7.8-29.9 16.9-43.9 23.2-35.6 66.4-55.4 108.1-49.5zm-279.7 98c53.6 13 105.4 58.4 133.4 116.7 27.5 57.4 26 117.1-3.7 146.9-30.8 31-83.2 28.1-136.2-7.7-15.2-10.3-34-27.8-46.6-43.4-26.2-32.5-43.4-70.7-48.2-107.2-1.9-14.8-1.9-23.4.1-11.7 4.1 24.9 18.7 46.9 37.5 56.9 46.4 24.5 96.3-25 87.8-87.2-4.3-31.3-23.7-56.8-49.4-64.5l-6-1.8 11.5.5c6.3.2 15.2 1.4 19.8 2.5zm1263.4 511.7c8.6 4.1 18.4 13.3 21.5 20.2 9.1 20.4 15.8 60.8 17.9 106.8l.7 15.3-7.9-2.7c-23.1-7.8-54.4-27.9-71.5-46-8.1-8.6-10.2-12.9-12.8-26-4.8-23.3-1-43.7 10.6-57.2 4-4.7 13.1-10.9 18.7-12.7 6.3-2.1 15.4-1.2 22.8 2.3z" fill="#fff"/></svg><view id="knowledge--svg_github" viewBox="0 114 38 38"/><svg width="38" height="38" viewBox="-48 -48 608 608" y="114" xmlns="http://www.w3.org/2000/svg"><path fill="none" d="M-1-1h582v402H-1z"/><path fill="#fff" d="M236 7.1c-15.4 1.1-35.7 4.7-51.6 9.3C94.2 42.3 24.1 118.1 5.4 209.8c-13.6 66.9-.8 135.5 35.4 190.8 25.5 39 58 68.6 96.8 88.6 14.1 7.3 34.1 15.4 40.3 16.4 5.8.9 10.9-1.9 13.3-7.3 1.8-4 1.8-6 1.2-28.6l-.7-24.3-8.6 1.4c-9.7 1.5-25.6.9-38.6-1.3-10.5-1.9-21.1-7.1-27.8-13.9-5.3-5.3-6.7-7.6-13.6-22.9-6.3-13.9-13.5-23.1-23.2-29.7-6.6-4.6-12.1-10.6-11.7-12.8.6-3 4.8-4.3 12.1-3.8 14.1 1 28.8 11.3 39.3 27.4 7.2 11 14.3 17.9 23 22.2 6.2 3.1 7.9 3.5 16.9 3.8 10.3.4 20.7-1.2 29.1-4.4 4.1-1.6 4.3-1.8 5.8-8.5 1.9-8.6 5.6-16.4 10.6-22.8l3.9-4.9-8.2-1.1c-26.4-3.8-45.2-10.2-62.7-21.5-22.9-14.8-36.5-37.9-43.1-73.1-2-10.9-2.3-38.9-.5-49.2 2.9-16.7 9.8-31.9 20-44.5l4.5-5.5-2-6.2c-5.2-16.8-4.2-37.2 2.8-57.4 1.8-5 2.2-5.2 10.3-4.8 11.8.6 37.1 10.8 54.3 21.8l7.1 4.6 5.6-1.1c3-.6 8.7-1.8 12.7-2.7 27.1-5.8 65.5-5.8 92.6 0 4 .9 9.7 2.1 12.7 2.7l5.5 1 9.5-5.8c22.6-13.7 48.4-23 57.5-20.6 2.6.7 3.3 1.7 5.3 7.5 4.3 12.5 5.5 21 5 35.1-.4 9.5-1.1 14.8-2.6 19.5l-2.1 6.4 4.4 5.4c8.9 10.9 15.5 24.4 19.2 38.9 2.2 8.9 2.5 41.7.4 54.4-3.2 19.8-11.4 40.6-21 53.2-16.5 21.7-46.4 36.6-84.3 41.8l-8.7 1.2 3.9 4.9c4.7 6 8.5 13.7 10.6 22.1 1.4 5.2 1.7 13.7 2 50.3.5 49 .5 48.9 7.2 52.1 4.6 2.1 8.3 1.5 22.9-4.2 73.8-28.4 132-93.2 153.3-170.3 14.1-51.3 11.1-110.8-8-160.1-17.2-44-47.5-84.2-84.8-112.2-40.5-30.3-86.5-47.4-136.7-50.7-17.5-1.2-19.2-1.2-37.5 0z"/></svg><view id="knowledge--svg_gulp" viewBox="38 114 38 38"/><svg width="38" height="38" viewBox="-48 -48 608 608" x="38" y="114" xmlns="http://www.w3.org/2000/svg"><path fill="none" d="M-1-1h582v402H-1z"/><path fill="#cf4547" d="M228.5 22.2c-33.8 3.8-72.9 18.2-102 37.6-57 38-93.6 96.1-103.7 164.7-2 13.6-1.7 51.2.5 65.5C33.6 356.5 70.4 414.5 126 451.6c28.7 19.1 62.3 32 96.6 37.1 16.4 2.4 50.4 2.4 66.8 0 41.1-6.1 81.5-23.7 113.6-49.4 45.9-36.8 76.4-89.7 85.7-148.5 2.5-15.9 2.5-53.7 0-69.6-8.3-52.4-32.9-99.5-70.8-135.6-37-35.2-86.1-58.1-136.1-63.5-11.4-1.3-41.9-1.2-53.3.1zM318 83c0 .5.6 1 1.3 1 .7 0 2.5 1.1 4 2.6l2.7 2.5-4.1 4.9c-2.3 2.7-4.4 5-4.8 5.2-.3.2-4.8 5-10 10.8-5.2 5.8-11.4 12.6-13.7 15.3-3.1 3.3-4.8 6.5-5.9 10.5-.9 3.1-2.9 10.1-4.4 15.4-2.8 9.7-2.8 9.8-.7 9.8 4.2 0 26.2 2 33.1 3 9.6 1.4 17.5 4 17.5 5.7 0 5.9-40.1 12.3-77.5 12.3-37.5 0-76.5-6.6-76.5-12.9 0-1.1 8.9-3.7 17-5 11.6-1.9 30.1-3.1 49.7-3.1h19.2l1.6-5.8c1.9-6.8 2.8-10 5.5-21 1.1-4.6 2.6-9 3.3-9.9.6-.9 6.4-7 12.8-13.7 6.4-6.6 15.1-15.8 19.4-20.4 7.2-7.5 10.5-9.8 10.5-7.2zm-125.5 95.6c15.7 4.2 33.1 5.8 63.5 5.8 19.6 0 31.5-.5 41.5-1.7 12.2-1.5 28.4-4.9 33.8-7.2 1.1-.5 1.7-.3 1.7.6 0 1.9-3.5 33.1-7.1 62.5-1.6 13.3-2.9 24.9-2.9 25.8 0 2.9-15.2 16.2-17.1 15-1-.6-.5-1.4 4.3-7.2 1.6-1.8 3.9-5.5 5.3-8.3 2.1-4.1 2.4-5.3 1.4-7.2-.7-1.2-1.7-2.5-2.3-2.9-3-2-10.6 0-13.5 3.6-1.7 2-3.1 2.1-3.1.2 0-.7-.7-2-1.6-2.7-1.4-1.1-1.9-1-3.5 1-1 1.3-2.4 4.1-3.1 6.3-.8 2.6-2.9 5.5-6.2 8.5-5 4.5-10.4 8.3-11.8 8.3-1.4 0-.8-3.8 1.3-8.7 1.1-2.6 3.1-7.5 4.4-10.8 1.2-3.3 4.3-11 6.9-17 4.7-11.2 5.4-15.7 2.5-16.3-2.8-.5-4.4 2.2-10.4 17.5-11 28-12.6 31.8-14.8 33.5-2.2 1.8-6.7 2.5-6.7 1 .1-2.6 2.4-10 4.6-14.7 3-6.6 2.9-9.9-.4-10.3-1.8-.3-2.5.3-3.4 2.8-2.2 6.3-8.1 16.6-11.2 19.2-1.7 1.5-4.2 2.7-5.5 2.8-2.2 0-2.3-.3-1.7-4.1.4-2.3 2-6.8 3.6-10.1 3.8-7.5 3.9-10.8.6-10.8-3 0-4.3 2.1-9 13.7-4.5 11.2-4.7 16.9-.5 19.2 3.3 1.8 8.9.4 13.3-3.4 3.7-3.2 4.4-3.1 4.8.1.5 4.4 3 5.2 8.3 2.6 4.5-2.2 4.5-2.2 6.5-.2 3.1 3.1 9.1 2.1 13.7-2.2 1.3-1.2 2.5-1.9 2.8-1.6.3.2-1.5 4.9-4 10.4-5.2 11.4-5.8 16.4-2.2 16.4 3.1 0 4.9-2.2 7.6-9.5 8.7-23 14.8-33.2 22.2-37.1 5.4-2.7 4.6.8-2 9.6-6.3 8.4-7.3 11.6-4.5 14.4 3.1 3.2 9 1.7 17-4.4 2.9-2.1 5.4-3.7 5.6-3.5.3.4-5.8 55.8-6.8 61.2-1.8 10-21 14.8-58.9 14.8-25.8 0-39.9-1.8-52.2-6.6-7.3-2.9-8.4-5.1-9.9-19.9-.7-6.9-1.7-17.2-2.3-22.9-.6-5.7-1.1-11.8-1.1-13.7 0-3.3.1-3.4 4.3-3.4s8-1.8 14.6-6.8c3.6-2.7 3.9-1.8 1.6 4.8-1.8 5-2 10.6-.4 11.6 2 1.2 4.8-3 7-10.6 1.2-4.1 3.9-12.8 6-19.2 4.3-12.7 4.8-17.5 2.3-18.5-2.8-1-4.8 1.1-6.5 7.1-2 6.7-5.2 11.3-12.3 17.9-8.8 8.2-12.6 7.5-12.6-2.4 0-13.2 12.5-36.4 22.4-41.6 4-2.1 7.2-.9 10.1 3.7 3 4.8 6.1 5.3 7.1 1.3 1.5-5.8-6.1-13.3-13.5-13.3-10.2 0-23.9 13.8-30.4 30.9-2.7 7-3 6-5.1-16.9-.9-10.2-2.6-27.5-3.7-38.6-1-11-1.9-20.4-1.9-20.8 0-.5 1-.5 2.3-.1 1.2.4 6.2 1.8 11.2 3.1zm21.4 172.9c26.3 6.1 60.2 5.8 88.1-.9 3.5-.8 6.5-1.4 6.7-1.2.2.1-1.5 3.2-3.7 6.9l-4 6.6-1 22.8c-1.3 29.5-1.4 30.8-4.8 33.1-11.7 7.9-26.4 11.7-42.2 10.9-12.9-.7-19.8-2.5-31.7-8.2l-9.3-4.4v-4.3c0-2.4-.7-14.2-1.6-26.3l-1.6-22-4.1-7c-2.2-3.9-4.4-7.2-4.9-7.3-1.9-.8-.6-2.4 1.5-1.8 1.2.4 6.9 1.8 12.6 3.1z"/></svg><view id="knowledge--svg_html5" viewBox="76 114 38 38"/><svg width="38" height="38" viewBox="-42.82 -42.82 542.45 542.45" x="76" y="114" xmlns="http://www.w3.org/2000/svg"><path fill="none" d="M-1-1h582v402H-1z"/><path fill="#e44d26" d="M27.405 0l36.542 410.56 163.882 46.244 165.022-46.244L429.398 0H27.405zm322.62 133.904h-192.43l4.283 51.676h183.866l-14.273 155.315-102.499 28.26v.287h-1.143l-103.356-28.547-6.28-79.367h49.965l3.711 39.971 55.959 15.126 56.245-15.126 6.283-65.097H115.625l-13.418-152.46h252.392l-4.574 49.962z"/></svg><view id="knowledge--svg_javascript" viewBox="114 114 38 38"/><svg width="38" height="38" viewBox="-48 -48 608 608" x="114" y="114" xmlns="http://www.w3.org/2000/svg"><path fill="none" d="M-1-1h582v402H-1z"/><path fill="#f0db4f" d="M488.534 4.267C486.4 2.133 484.267 0 480.001 0H32c-2.133 0-6.399 2.133-8.533 4.267-2.134 2.134-2.133 4.267-2.133 8.533l42.667 426.667c0 4.267 4.267 8.533 6.399 8.533l192 64h8.534L441.6 448c4.267-2.133 6.399-4.267 6.399-8.533L490.666 12.8c.002-2.132.002-6.4-2.132-8.533zM256.001 386.134c0 2.133-2.134 6.4-4.267 8.533s-4.393 2.416-6.525 2.416l-2.007-.283-74.667-21.333c-4.267-2.133-6.399-4.267-8.533-8.533L149.335 313.6c-2.133-6.399 2.133-10.667 8.533-12.8 6.399-2.133 10.667 2.133 12.801 8.533l8.533 46.933 55.467 14.934V130.134H117.334c-6.399 0-10.667-4.267-10.667-10.667 0-6.399 4.267-10.667 10.667-10.667h128c6.399 0 10.667 4.267 10.667 10.667v266.667zM405.334 121.6l-10.667 42.667c-2.133 6.399-6.482 9.559-12.8 8.533-6.658-1.08-9.208-6.435-8.533-12.801.804-7.594 6.399-29.866 6.399-29.866h-83.2V236.8H371.2c2.133 0 6.399 2.133 8.533 4.267 2.133 2.133 2.133 6.399 2.133 8.533l-21.333 117.333c0 4.267-4.267 6.399-6.399 8.533l-64 21.333c-2.133 0-9.884 2.95-14.934-6.399-2.133-6.399 2.133-10.667 6.399-12.801l57.6-19.2 17.067-98.134h-72.534c-6.399 0-10.667-4.267-10.667-10.667v-128c0-6.399 4.267-10.667 10.667-10.667h106.667c4.267 0 7.187.912 9.975 2.067 5.915 2.451 4.96 6.469 4.96 8.602z"/></svg><view id="knowledge--svg_jquery" viewBox="152 0 38 36.82"/><svg width="38" height="36.82" viewBox="-93.75 -93.75 1187.5 1150.5" x="152" xmlns="http://www.w3.org/2000/svg"><path fill="none" d="M-1-1h582v402H-1z"/><g fill="#1169ae"><path d="M586 15.7c-18.7 25.8-23.1 32.6-29.6 45.8-27.6 56.2-25.4 121.6 6.2 181.4 27.4 51.9 78.1 97.2 132.9 118.9 31.9 12.7 54.6 16.7 93 16.7 23.4-.1 34.9-1.4 53.5-6 54.6-13.6 95.2-46.8 125.9-103l3.3-6-3.8 4.5c-2 2.5-8 8.8-13.3 14-21.2 21.1-47.9 34.3-80.6 40.1-18.2 3.2-50.3 3.2-71.5 0-45.7-6.9-79.2-19.4-114-42.6-54.6-36.4-94.3-94.3-107.7-157-2.6-12.2-2.8-14.5-2.7-38 0-22.3.2-26.1 2.2-35.5 3-13.6 7.2-26.2 12.8-37.9 2.4-5.2 4.3-9.5 4.2-9.6-.2-.2-5 6.3-10.8 14.2z"/><path d="M362.4 84.7c-14.2 20.2-27.6 39.3-29.7 42.6-20.4 31.8-33.5 67.8-39.8 109.7-3 19.2-3.2 60.4-.6 80.5 7.7 57.7 26.6 106.4 61.4 158.3 16.7 25 22.3 31.8 43 52.8 35.7 36.2 69 61 110 82.1 33.9 17.5 73.2 31.6 97.8 35.2 138.5 20.1 251.9-12.3 328.9-94 28.1-29.8 52.8-68.7 64.5-101.4l2.1-6-2.8 3.5c-14.1 17.8-19.7 24.2-30.8 35-31.6 30.7-66.9 51.9-110.9 66.5-69.3 23.1-148.5 21.7-225.8-3.9-103.8-34.4-192-110.2-240.1-206.2-26.2-52.4-37.9-104.3-36.3-159.8 1.3-44.3 10.9-83 29.6-119.9 3.3-6.4 5.9-11.7 5.7-11.7-.1 0-11.9 16.5-26.2 36.7z"/><path d="M96.4 184.2c-20.4 26-38.1 49.4-42.6 56.6-27.9 44.5-45.3 95.9-52 153.7-2 17.2-1.7 71.5.5 89.5 7.6 61.1 23.8 114.7 51.3 170 28 56 59.1 98.9 105.3 145.1 24.2 24.1 38.8 37 62.4 54.7 54.2 40.8 112.1 70.3 179.7 91.5 18.9 6 30.3 8.3 59 12.1 34.4 4.6 43.6 5.1 87.5 5.1 45.9 0 56.9-.8 91.4-6.6 32.5-5.4 74.5-17.4 102.6-29.4 51.7-21.9 96.2-51.6 136.4-91 34.7-34 61.1-68.8 82.8-109 4.9-9 15.3-30.9 15.3-32.2 0-.3-3 3.2-6.7 7.8-7.8 9.7-19.5 22.1-31.4 33.4-50.5 48.3-121 82.9-197.3 97-36.9 6.8-65.6 9-108.1 8.2-40.6-.7-65.3-3.4-105.7-11.3-51.1-10-114.9-35.4-166.3-66.2-103.5-62-185.2-153.4-230.3-257.7-20-46.1-32.3-92.9-37.8-143-2.1-19.4-2.4-65-.6-83C96.7 232.4 108 191 127 150.4c2.7-5.7 4.7-10.4 4.6-10.4-.2 0-16 19.9-35.2 44.2z"/></g></svg><view id="knowledge--svg_knowledge" viewBox="0 0 38 38"/><svg width="38" height="38" viewBox="-43.56 -43.56 551.71 551.71" xmlns="http://www.w3.org/2000/svg"><path fill="none" d="M-1-1h466.6v466.6H-1z"/><g fill="#2793e8"><path d="M464.585 393.312L377.122 78.297 301.73 99.229l8.329 29.998h-83.857V87.446h-78.243v30.92h-42.373V50.207H0v364.17h324.355V180.715l64.838 233.528 75.392-20.931zM162.959 102.446h48.243v37.147h-48.243v-37.147zm0 99.364h48.243v170.575h-48.243V201.81zm0-15v-8.608h48.243v8.608h-48.243zm0-23.608v-8.609h48.243v8.609h-48.243zM90.586 370.189H15V94.199h75.586v275.99zm0-304.982v13.992H15V65.207h75.586zM15 399.378v-14.189h75.586v14.189H15zm132.959 0h-42.373V133.366h42.373v266.012zm15 0v-11.993h48.243v11.993h-48.243zm146.396 0h-83.153V144.226h83.153v255.152zm90.279-3.6l-52.742-189.961 46.485-12.907 52.742 189.961-46.485 12.907zm-56.755-204.414l-4.133-14.884 46.485-12.907 4.133 14.884-46.485 12.907zm23.802-94.602l14.537 52.358-46.485 12.907-14.537-52.358 46.485-12.907z"/><path d="M243.6 160.5h48.3v15h-48.3zm0 26.3h48.3v15h-48.3zm0 26.4h48.3v15h-48.3zm0 152.6h48.3v15h-48.3zm-124.3-93.5h15v25.3h-15zm0 39.5h15v57.1h-15zm0-121.9h15V258h-15zm0-39.5h15v26.4h-15z"/></g></svg><view id="knowledge--svg_lang" viewBox="152 74.82 38 30"/><svg version="1" width="38" height="30" viewBox="-127.5 -127.5 1275 1020" x="152" y="74.82" xmlns="http://www.w3.org/2000/svg"/><view id="knowledge--svg_language" viewBox="152 104.82 38 38"/><svg width="38" height="38" viewBox="-21.09 -21.09 267.19 267.19" x="152" y="104.82" xmlns="http://www.w3.org/2000/svg"><path fill="none" d="M-1-1h458.8v458.8H-1z"/><g stroke="null" fill="#1169ae" stroke-width=".1"><path d="M132.522 33.4c-13.102 2.8-23.252 8.4-31.28 17.1-23.62 25.6-15.593 64.1 17.163 82.5 9.873 5.6 19.284 8 31.095 8.1l9.688.1 4.982 4.8c8.858 8.6 23.345 14.4 29.434 11.9l2.307-.9-4.613-5.4c-5.167-5.9-7.566-11.1-7.566-16.1 0-2.8.738-3.9 4.52-6.9 34.048-27.1 19.93-80.1-24.82-93.5-9.042-2.8-22.513-3.5-30.91-1.7zM144.24 52c1.384 0 1.569.7 1.015 4.5l-.553 4.5 4.982-.1c2.768 0 8.489-.6 12.826-1.3 4.336-.7 7.935-1.2 8.027-1.1.185.1.554 2.2.83 4.7.554 4.5.554 4.5-2.49 5.2-1.754.4-7.844 1-13.472 1.3-8.673.5-10.427.9-10.427 2.2 0 .9-.276 2.7-.645 3.9-.554 2.4-.462 2.4 4.89 1.6 2.952-.4 5.905-1.3 6.366-2.1.83-1.2 1.754-1.3 4.89-.4 2.123.7 3.876 1.8 3.876 2.5s1.66 2.1 3.598 3.1c4.245 2.1 8.858 6.9 10.15 10.8 2.491 7.2.37 17.3-4.706 22.3-2.399 2.5-8.396 5.8-11.902 6.7-2.03.6-2.584.2-3.876-2.9-1.845-4.2-1.568-5 2.123-5.9 3.506-.8 8.95-6.3 9.688-9.8.369-1.5.369-3.9.092-5.3-.738-3-5.352-8.4-7.197-8.4-.646 0-2.214 2.1-3.506 4.7-1.2 2.5-4.245 7-6.736 9.9-3.783 4.5-4.336 5.6-3.506 7.3 1.569 3 1.292 3.8-2.307 6.2l-3.414 2.2-1.568-2.2c-1.477-2.3-1.569-2.3-5.906-.7-10.98 4-17.807-.5-17.438-11.5.184-8.2 5.628-16.2 14.21-21 3.413-1.9 3.598-2.1 3.598-6.9v-5h-14.763v-9h14.763V50.7l3.506.7c1.845.3 4.152.6 4.982.6z"/><path d="M54.093 67c-21.867 3.4-39.86 16.6-48.533 35.5l-4.06 8.8v11.6c0 9.7.37 12.5 2.122 17.3 3.045 8.1 9.227 16.7 15.87 21.9 5.629 4.4 5.629 4.4 5.075 8.3-.738 5.6-4.798 13.2-9.134 17.2l-3.599 3.3 2.676 1.1c6.09 2.6 19.93-3 29.71-12 5.444-4.9 5.998-5.2 9.412-4.6 5.72 1 20.022-1.2 28.419-4.3 13.194-5 23.62-13.4 30.91-25l3.322-5.5-3.876-2.5c-11.256-7.1-21.406-18.6-26.112-29.6-4.613-10.6-5.997-25.4-3.506-36.6.554-2.6.277-2.8-4.06-3.8-6.828-1.6-18.361-2.1-24.636-1.1zm19.654 52.9c4.705 18.1 8.488 33.4 8.488 34 0 .8-1.937 1.1-6.09.9l-6.181-.3-1.2-4.5c-.646-2.5-1.66-6.4-2.214-8.8l-1.015-4.2H49.11l-1.384 5.2c-.738 2.9-1.753 6.9-2.215 8.8l-.738 3.5-6.182.3c-3.414.2-6.182.1-6.182-.2 0-.5 8.95-35 16.24-62.4l1.384-5.2h15.224l8.489 32.9z"/><path d="M56.4 100.8c0 1.1-1.2 7.3-2.768 13.7-1.476 6.4-2.768 11.8-2.768 12.1 0 .2 2.953.4 6.551.4 6.182 0 6.459-.1 5.905-2.2-.369-1.1-1.845-7.3-3.321-13.6-2.584-11.5-3.599-14.4-3.599-10.4z"/></g></svg><view id="knowledge--svg_react" viewBox="0 152 38 34.65"/><svg width="38" height="34.65" viewBox="-53.72 -53.72 680.44 620.44" y="152" xmlns="http://www.w3.org/2000/svg"><path fill="none" d="M-1-1h302v302H-1z"/><g fill="#63dbf9"><path d="M387 6.5C360.3 11.4 324.7 32 294.7 60l-7.6 7.1-11-9.6c-52-44.9-99.6-61.7-129.5-45.7-6.4 3.4-15 12.1-19.5 19.5-14 23.6-16.5 68.1-6.4 115.2 1.4 6.6 2.6 12.6 2.7 13.3 0 .7-6.2 3.3-15.9 6.6-36.8 12.4-61.2 26.1-80.1 45-10.8 10.8-16.1 18.9-19.6 29.9-2.7 8.5-2.1 22.6 1.5 31.3 8.9 22 33.4 43.7 68.3 60.4 10.4 5 33.5 13.9 41.2 16 2.3.6 4.2 1.6 4.2 2.3 0 .7-1.1 6.4-2.4 12.7C107 428.1 116 479 144 497c8.2 5.3 15.9 7.3 28.5 7.4 30.1.2 65.2-16.9 104.6-51l10.6-9.2 7.7 6.9c61.5 55.3 117.6 69.2 144.6 35.7 13-16.1 19-38.6 19-71.3 0-18.6-1.7-34.8-5.5-53.7-1.4-6.7-2.3-12.3-2.1-12.5.2-.3 5.7-2.2 12.1-4.4 52.4-17.9 88.7-44 100.3-72.3 1.8-4.4 2.6-8.6 3-15.2.9-16.8-5-29.6-20.8-45.4-18.7-18.8-45.8-33.9-82.5-46-7.1-2.3-13.2-4.4-13.3-4.6-.2-.1.8-6.3 2.2-13.6 5.8-29.9 7.3-59.7 4-81.5-4.1-27.9-15.6-47.4-32.9-55.8-10.9-5.4-22.1-6.6-36.5-4zm21 23.6c6.4 1.4 10.5 4.5 15 11.1 12.3 18.4 14.7 58.1 5.9 101.7-1.1 5.8-2.4 11-2.9 11.4-.4.5-7.7-.5-16.1-2.2-16.1-3.1-30-5.3-48-7.4l-10.7-1.2-11.9-16c-6.6-8.8-17.3-22.1-23.7-29.5L304 84.5l7.7-7.4c14.9-14.2 34.4-28.1 50.9-36.4 19.6-9.8 34.1-13.2 45.4-10.6zm-221.5 1.8c21 5.1 48.6 21.5 74.8 44.5l8.7 7.7-8.1 9.2c-9.7 10.9-25.6 30.7-33.9 42.1l-5.9 8.2-11.8 1.3c-16.6 1.8-35.6 4.7-50 7.6-6.7 1.4-12.4 2.5-12.7 2.5-.7 0-4.4-16.4-6-27-3-18.5-3.9-36.4-2.7-49.7 3.9-40.8 17.1-53.7 47.6-46.4zM293.6 109c3.1 3.6 10.2 12.1 15.7 19l10 12.5-16.1.3c-8.8.1-23.5.1-32.7 0l-16.6-.3 9.7-12c12.5-15.5 22.5-26.6 23.5-26.3.4.2 3.3 3.2 6.5 6.8zm43 57.8c4 2.1 29.5 43.7 44.1 71.8l8.5 16.4-8.5 16.2c-10.6 20.4-21.3 39.1-33.2 57.8l-9.2 14.5-7.9.8c-10.5 1-73.4 1.2-85.5.2l-9.6-.7-10-15.7c-11.7-18.2-23.1-37.8-33.6-58l-7.5-14.4 3.2-6.6c9.8-20.4 28.3-52.7 41.8-73.1l6.3-9.5 9.5-.6c16.4-1.1 89.3-.4 91.6.9zm-132.9 3.9c-.2.5-4.5 7.5-9.5 15.8-5 8.2-12.2 20.7-16 27.8l-6.9 12.7-5.5-14.2c-6.2-16-12.2-33.7-11.6-34.3 1.1-1.1 41-8.2 47.6-8.4 1.3-.1 2.1.2 1.9.6zm177.8.8c5.5.8 16.2 2.7 23.8 4.1 11.9 2.3 13.7 2.9 13.7 4.5 0 3.5-16.1 45.9-17.4 45.9-.2 0-2.8-4.4-5.7-9.8-4.5-8.4-21.5-37.4-25.7-44-1.8-2.7-2-2.7 11.3-.7zm-247 25.5c3.9 11.8 15.1 40.5 20.3 51.9l2.9 6.4-3.2 7.1c-5.9 13-13.7 32.9-19.2 48.6-6.3 18.2-4.1 17.3-23.3 10.3-16.5-5.9-36.2-15.5-48-23.4-11.4-7.5-26.4-22.2-30.5-29.9-2.5-4.7-3-6.6-3-13 0-9.8 2.5-14.9 12.2-25.1 9.7-10.2 21.6-18.4 38.8-27 13.9-7 47.4-19.4 48.6-18.1.4.4 2.3 5.9 4.4 12.2zm321.1-8.4c32.5 10.7 57.5 24.5 73.4 40.4 10 10 13.2 15.8 13.8 24.8.4 5.5.1 7.1-2.9 13-6.9 14-27 30.2-53.3 42.7-10.8 5.2-30.2 12.9-40.3 15.9-1.9.6-2.4-.1-4.8-7.6-4.2-12.5-12.5-33.7-19.4-49.1l-6.2-13.8 6.5-15.4c7.8-18 10.5-25 15.7-40.5 2.2-6.3 4.1-12.1 4.4-12.8.6-1.7.9-1.6 13.1 2.4zm-278 106.1c6.3 12 20.1 35.4 24.7 42.2l3 4.4-6.9-.7c-8.1-.9-33.8-5.1-40.6-6.7l-4.7-1.1 4-11.6c4.4-12.7 13.9-37.2 14.4-37.2.2 0 2.9 4.8 6.1 10.7zM403 284.3c0 .2 2.3 5.9 5.1 12.8 2.8 6.8 6.8 17.4 8.9 23.6 3.5 10 3.7 11.3 2.2 11.7-5.8 1.7-49.3 8.8-50 8.2-.1-.2 3.5-6.6 8.2-14.2 4.6-7.6 11.8-20.3 16.1-28.2 4.3-7.8 8.2-14.2 8.6-14.2.5 0 .9.1.9.3zm27.5 84.8c3.8 20 4.8 31.4 4.2 51.8-.4 14.4-1 20.5-2.6 27-3.9 15.3-10.5 26.1-18.4 30.4-3.6 1.8-5.7 2.2-14.2 2.1-8.6 0-11.4-.5-19.5-3.3-16.7-5.7-37.8-18-55.2-32.3-10.8-8.9-19.8-17.1-19.8-18.1 0-.5 2.8-4.1 6.3-8.1 10.4-11.8 21.7-26.2 38.5-49.4 1.6-2.1 3.2-2.5 18.6-4.3 15.8-1.8 38.4-5.4 52.1-8.3 3.3-.7 6.3-1 6.8-.6.4.3 1.8 6.2 3.2 13.1zm-241-5.7c10.5 1.4 22.2 2.8 26.1 3.1l7.1.7 5.8 8.1c8.5 11.7 24.4 31.5 33.6 41.8 4.3 4.8 7.9 9.2 7.9 9.8 0 1.4-20.4 18.7-30.9 26.2-30.9 21.9-61.7 32-78.3 25.6-16.2-6.2-24.9-35.5-22-73.4 1.1-13.7 4.7-36.5 7.2-45.4l1-3.6 11.8 2.3c6.4 1.3 20.3 3.4 30.7 4.8zm129.7 7c-.5.6-3.8 4.9-7.3 9.6-3.5 4.7-10.4 13.2-15.3 18.9l-9 10.4-5.1-5.5c-6-6.4-21-24.4-25.4-30.4l-3.1-4.1h33c24.3 0 32.8.2 32.2 1.1z"/><path d="M274 205.6c-9 2.4-16.1 6.5-23 13.4-19.6 19.6-20 49-1 69.4 9.6 10.2 22 15.6 35.9 15.6 14.2 0 25.8-4.8 35.5-14.6 20-20 19.6-52.1-1-71.4-12.9-12-30.4-16.7-46.4-12.4z"/></g></svg><view id="knowledge--svg_sass" viewBox="38 152 38 30"/><svg width="38" height="30" viewBox="-48 -48 608 480" x="38" y="152" xmlns="http://www.w3.org/2000/svg"><path fill="none" d="M-1-1h458.8v458.8H-1z"/><path d="M440.6 220.6c-17.9.101-33.4 4.4-46.4 10.801-4.8-9.5-9.6-17.801-10.399-24-.9-7.2-2-11.601-.9-20.2C384 178.6 389 166.4 389 165.4c-.101-.9-1.101-5.3-11.4-5.4s-19.2 2-20.2 4.7-3 8.9-4.3 15.3c-1.8 9.4-20.6 42.7-31.3 60.2-3.5-6.8-6.5-12.8-7.101-17.601-.899-7.199-2-11.6-.899-20.199 1.1-8.601 6.1-20.8 6.1-21.8-.1-.9-1.1-5.3-11.399-5.4-10.301-.1-19.2 2-20.2 4.7s-2.1 9.1-4.3 15.3C281.9 201.4 256.9 257 250.4 271.5c-3.3 7.4-6.199 13.3-8.3 17.3-2.1 4-.1.3-.3.7-1.8 3.4-2.8 5.3-2.8 5.3v.101c-1.4 2.5-2.9 4.899-3.601 4.899-.5 0-1.5-6.7.2-15.899 3.7-19.301 12.7-49.4 12.601-50.5 0-.5 1.699-5.801-5.801-8.5-7.3-2.7-9.899 1.8-10.5 1.8-.6 0-1.1 1.6-1.1 1.6s8.1-33.899-15.5-33.899c-14.8 0-35.2 16.1-45.3 30.8-6.4 3.5-20 10.899-34.4 18.8-5.5 3-11.2 6.2-16.6 9.1L117.9 251.9c-28.6-30.5-81.5-52.1-79.3-93.1.8-14.9 6-54.2 101.601-101.8 78.3-39 141-28.3 151.899-4.5 15.5 34-33.5 97.2-114.899 106.3-31 3.5-47.301-8.5-51.4-13-4.3-4.7-4.9-4.9-6.5-4-2.6 1.4-1 5.6 0 8.1 2.4 6.3 12.4 17.5 29.4 23.1 14.899 4.9 51.3 7.6 95.3-9.4 49.3-19.1 87.8-72.1 76.5-116.4-11.5-45.1-86.3-59.9-157-34.8C121.4 27.4 75.8 50.8 43 81.5 4 117.9-2.2 149.7.4 162.9c9.101 47.1 74 77.8 100 100.5-1.3.699-2.5 1.399-3.6 2-13 6.399-62.5 32.3-74.9 59.699-14 31 2.2 53.301 13 56.301 33.4 9.3 67.6-7.4 86.1-34.9 18.399-27.5 16.2-63.2 7.7-79.5l-.301-.6 10.2-6c6.601-3.9 13.101-7.5 18.8-10.601-3.199 8.7-5.5 19-6.699 34-1.4 17.601 5.8 40.4 15.3 49.4 4.2 3.899 9.2 4 12.3 4 11 0 16-9.101 21.5-20 6.8-13.3 12.8-28.7 12.8-28.7s-7.5 41.7 13 41.7c7.5 0 15-9.7 18.4-14.7v.1s.2-.3.6-1a36.13 36.13 0 0 0 1.2-1.899v-.2c3-5.2 9.7-17.1 19.7-36.8 12.899-25.4 25.3-57.2 25.3-57.2s1.2 7.8 4.9 20.6c2.199 7.601 6.999 15.9 10.699 24-3 4.2-4.8 6.601-4.8 6.601l.1.1c-2.399 3.2-5.1 6.601-7.899 10-10.2 12.2-22.4 26.101-24 30.101-1.9 4.699-1.5 8.199 2.2 11 2.7 2 7.5 2.399 12.6 2 9.2-.601 15.6-2.9 18.8-4.301 5-1.8 10.7-4.5 16.2-8.5 10-7.399 16.1-17.899 15.5-31.899-.3-7.7-2.8-15.3-5.9-22.5.9-1.3 1.801-2.601 2.7-4 15.8-23.101 28-48.5 28-48.5s1.2 7.8 4.9 20.6c1.899 6.5 5.7 13.601 9.1 20.601-14.8 12.1-24.1 26.1-27.3 35.3-5.9 17-1.3 24.7 7.4 26.5 3.899.8 9.5-1 13.699-2.8 5.2-1.7 11.5-4.601 17.301-8.9 10-7.4 19.6-17.7 19.1-31.6-.3-6.4-2-12.7-4.3-18.7 12.6-5.2 28.899-8.2 49.6-5.7 44.5 5.2 53.3 33 51.601 44.6-1.7 11.601-11 18-14.101 20-3.1 1.9-4.1 2.601-3.8 4 .4 2.101 1.8 2 4.5 1.601 3.7-.601 23.4-9.5 24.2-30.899 1.2-27.504-24.9-57.504-71.2-57.205zM97.4 336.3c-14.7 16.1-35.4 22.2-44.2 17-9.5-5.5-5.801-29.2 12.3-46.3 11-10.4 25.3-20 34.7-25.9 2.1-1.3 5.3-3.199 9.1-5.5.6-.399 1-.6 1-.6.7-.4 1.5-.9 2.3-1.4 6.7 24.4.3 45.8-15.2 62.7zm107.5-73.1c-5.1 12.5-15.9 44.6-22.4 42.8-5.601-1.5-9-25.8-1.101-49.8 4-12.101 12.5-26.5 17.5-32.101 8.101-9 16.9-12 19.101-8.3 2.6 4.801-9.9 39.601-13.1 47.401zm88.7 42.4c-2.2 1.101-4.2 1.9-5.1 1.301-.7-.4.899-1.9.899-1.9s11.1-11.9 15.5-17.4c2.5-3.199 5.5-6.899 8.7-11.1v1.2C313.6 292.1 299.8 301.7 293.6 305.6zm68.399-15.6c-1.6-1.2-1.399-4.9 4-16.5 2.101-4.6 6.9-12.3 15.2-19.6 1 3 1.601 5.899 1.5 8.6-.099 18-12.899 24.7-20.7 27.5z" fill="#CF649A"/></svg><view id="knowledge--svg_source-tree" viewBox="190 0 38 38"/><svg width="38" height="38" viewBox="-28.12 -28.12 356.25 356.25" x="190" xmlns="http://www.w3.org/2000/svg"><path fill="none" d="M-1-1h302v302H-1z"/><path d="M137.4 24.5c-16.6 2.1-32.8 6.8-44.8 12.8-35.9 18.1-60.9 50.5-69.4 89.9-3 14.4-3 37 0 51.4 11 51.1 49.4 89.5 100.5 100.5 14.4 3 37 3 51.4 0 51.1-11 89.5-49.4 100.5-100.5 3-14.4 3-37 0-51.4-11-51.2-49.9-90-100.5-100.4-9.8-2-30.2-3.2-37.7-2.3zm32.1 13.9c47.7 8.3 86.1 46.7 94.4 94.4 1.9 10.7 1.9 29.5 0 40.2-8.3 47.7-46.7 86.1-94.4 94.4-14.2 2.5-13.1 3.3-13.1-9.8v-11.3l28.3-14.4c15.5-7.9 28.5-14.8 28.9-15.4.4-.6.8-4.1.8-7.8 0-6.1.2-6.9 2.6-8.4 7.9-5.2 6.6-17.3-2.3-21.1-7.1-2.9-15 1.8-16 9.4-.6 4.7 1.5 9.5 5.2 11.9 2.1 1.4 2.5 2.4 2.5 6.8v5.1l-24.5 12.3c-13.5 6.7-24.7 12.2-25 12.2-.3 0-.5-4.6-.5-10.3v-10.2l9.8-4.4c15.9-7.2 14.2-4.2 14.2-25.5v-18.4l21.3-11.9 21.2-11.8.3-5.9c.3-5.3.7-6.1 4.3-9.5 3.5-3.4 3.9-4.3 3.9-8.5 0-4.1-.5-5.3-3.4-8.2-2.8-2.8-4.2-3.4-7.5-3.4-5.7 0-9.5 2.2-11.6 6.6-2.3 5-1.3 9.9 3.1 14 2.6 2.5 3.4 4.1 3.4 6.7v3.5l-20.9 11.7c-14.8 8.3-21.1 12.4-21.5 13.9-.3 1.1-.6 9.6-.6 18.7v16.6l-2.7 1.3c-1.6.7-5.2 2.3-8 3.6l-5.3 2.4v-75l18-9 18-9v-7c0-7 .1-7.1 4-10.9 3.6-3.4 4-4.3 4-8.5 0-8.9-6.9-14.2-15.1-11.7-9.2 2.8-11.2 14.6-3.4 20.8 3.1 2.5 3.5 3.3 3.5 7.6v4.8l-14.2 7-14.3 6.9-.3-21.7c-.2-16.3.1-21.9 1-22.2 2.3-.8 5.8-5.4 6.4-8.7.9-4.8-2.1-10.4-6.9-12.8-3.3-1.6-4.5-1.7-7.7-.7-2.1.6-5.1 2.6-6.5 4.3-2.4 2.8-2.7 3.9-2.2 8.2.4 4.3 1 5.5 4.1 8.2l3.6 3.1v34.7c0 19-.3 34.6-.6 34.6s-5-2.3-10.5-5.1l-9.9-5.1v-34.3l-7.4-5.7c-7.2-5.6-7.4-5.8-7-9.5 1-7.5-6.6-14.3-14.2-12.8-4.6.8-9.4 6.5-9.4 11.1 0 8 5.8 13.1 13.9 12.1 4.3-.5 5-.3 10.9 4.4l6.2 4.9v34.7l14 7.4 14 7.3v12.8c0 7-.3 12.8-.7 12.8-.5 0-10.2-4.4-21.8-9.8l-21-9.8v-8.4c0-4.7-.4-9.1-.8-9.8-.5-.7-5.3-3.5-10.8-6.2-8.7-4.4-9.9-5.3-9.9-7.6 0-4-3-9.3-6.1-10.9-11.9-6.2-23.6 7.9-14.8 17.9 3.7 4.2 8.1 5.4 13 3.3 3.3-1.3 3.7-1.2 12.8 3.2l9.3 4.6-.5 8.5c-.4 4.7-.3 9 .1 9.6.4.7 12 6.4 25.7 12.8l25 11.5.3 37.1.2 37.1-6.2-.3-6.3-.3-.5-24.8-.5-24.9-16-7.3c-14.3-6.6-16.1-7.7-16.6-10.2-.8-4-2.6-6.9-5.1-8.7-2.9-2.1-10.7-2-13.6 0-2.9 2-5.2 6.5-5.2 10.1 0 3.5 3.1 8.8 6.1 10.4 3.2 1.7 9.4 1.5 12.4-.5 2.4-1.6 2.9-1.5 17 5l14.5 6.7v21.3c0 25.1 1.5 23.3-14.7 17.9-35.8-12-63-38.9-74.7-74-5.6-16.6-7.2-39.1-4.1-56.6 8.3-47.4 46.5-85.8 93.8-94.4 9.9-1.8 30.7-1.8 40.8 0z" fill="#2793e8"/></svg><view id="knowledge--svg_sublime-text" viewBox="190 38 38 38"/><svg width="38" height="38" viewBox="-48 -48 608 608" x="190" y="38" xmlns="http://www.w3.org/2000/svg"><path fill="none" d="M-1-1h582v402H-1z"/><path fill="#ff8100" d="M238 11.6c-25.3 2.9-38.7 5.6-58 12-15.7 5.2-39.4 16.6-53 25.4-36 23.5-65.4 56.5-84.1 94.5-11.2 22.8-18.6 46.2-22.5 71.5-2.5 16.1-2.5 51.9 0 68 10.7 68.9 49 128.5 106.6 166 11.8 7.6 34.3 18.8 47.5 23.6 13.2 4.7 33.2 9.8 47.5 12 16.1 2.5 51.9 2.5 68 0 58.5-9.1 110.5-38 147.7-82.1 23.1-27.4 39.8-59.9 48.8-95 5.6-21.7 6.9-33.2 6.9-58.5 0-25.3-1.3-36.8-6.9-58.5-4.5-17.7-9.2-30.4-17.4-47-34.3-69.6-100.5-117.8-178.6-130-9.5-1.5-45-2.8-52.5-1.9zm59 97.9c12 2.6 27.7 8.2 37.1 13.2 8.3 4.4 24.1 15.3 24.7 17.1.1.5-9 10.7-20.4 22.6l-20.6 21.7-6.2-5.8c-17.8-16.7-45.3-22-65.3-12.6-12.3 5.7-17.9 20.3-12.2 32 4.1 8.6 11.1 12.3 42.2 22.9 35.5 12 50.9 20.3 63.9 34.3 7.5 8.1 12 16.6 15 28.3 1.8 7.1 2 10.2 1.5 21.8-.4 9.2-1.2 16-2.7 21.5-8 29.5-32 51.5-65.6 60.1-44.4 11.2-99.2-1.3-130.9-29.9l-5-4.6 21.4-21.5 21.5-21.5 6.1 5.7c15.7 14.7 33.6 22.2 53.1 22.2 22.9 0 36.4-10.5 36.4-28.4 0-17.2-8.7-23.8-49.5-37.4-29.7-9.9-40.3-15.1-53.5-26.3-6.1-5.3-14-16.6-17-24.6-5.5-14.5-6.3-35.7-2-51.3 9-31.9 37.3-53.6 79-60.5 11.1-1.9 38.6-1.3 49 1z"/></svg><view id="knowledge--svg_webstorm" viewBox="190 76 38 33.36"/><svg width="38" height="33.36" viewBox="-18.75 -18.75 237.5 208.5" x="190" y="76" xmlns="http://www.w3.org/2000/svg"><path fill="none" d="M-1-1h582v402H-1z"/><g stroke="null" fill="#2788b5" stroke-width=".1"><path d="M.4 2.5C1.4 6.6 35 169.3 35 170.2c0 .4 7.4.8 16.4.8 14.8 0 16.5-.2 17-1.8.3-.9 4-17 8.1-35.7 4.2-18.7 7.8-34.1 8-34.3.6-.6 1.2 2.3 8.1 37.5l6.6 34.3h15.4l12-13.7c20.5-23.6 22.4-26.7 22.4-36.3 0-3.4-.5-7.1-1.1-8.3-.7-1.2-6-7.2-11.9-13.3-9.3-9.5-11.4-12.3-15.3-20.5-4.3-8.8-5-11.4-11.2-43.4-3.6-18.7-6.9-34.3-7.4-34.8-.4-.4-7.9-.6-16.7-.5L69.5.5 63.4 29c-9.6 44.8-9.6 44.8-10.5 42.5-.4-1.1-3.3-15.5-6.4-32C43.4 23 40.4 7.4 39.8 4.7l-1-4.7h-39l.6 2.5z"/><path d="M139.1 6.7C127.7 21.8 122 36.8 122 51.5c.1 9.3 1.3 14.4 6.1 24.3 3.3 6.9 5.9 10.3 14.8 19.5 6 6.2 11.6 12.6 12.5 14.4 1.1 2.2 1.6 5.7 1.6 11 0 12.2-4.3 19.5-24.2 41.6-3.8 4.1-6.8 7.7-6.8 8.1 0 .3 12.1.6 26.9.6h26.8l2.8-4.2c6.4-9.7 14.6-26.8 16-33.5 2.2-10.4 1.9-19.9-1-29-3.3-10.6-6.9-15.9-19.2-28.5-5.7-5.9-11-12.3-11.8-14.2-.9-2.1-1.5-6.7-1.5-11.3 0-12 3.9-18.7 22.4-39.3 4.7-5.2 8.6-9.8 8.6-10.3 0-.4-11.7-.7-25.9-.7h-25.9l-5.1 6.7z"/></g></svg><view id="knowledge--svg_wordpress" viewBox="190 109.36 38 38"/><svg width="38" height="38" viewBox="-28.12 -28.12 356.25 356.25" x="190" y="109.36" xmlns="http://www.w3.org/2000/svg"><path fill="none" d="M-1-1h582v402H-1z"/><path fill="#00a7da" d="M.005 149.995c0 59.367 34.502 110.683 84.543 134.992L12.994 88.953A149.46 149.46 0 0 0 .005 149.995zm251.254-7.566c0-18.544-6.661-31.377-12.367-41.366-7.602-12.362-14.729-22.817-14.729-35.18 0-13.788 10.449-26.621 25.184-26.621.668 0 1.301.081 1.943.122C224.608 14.932 189.049 0 150 0 97.597 0 51.497 26.89 24.674 67.603c3.525.116 6.843.188 9.655.188 15.685 0 39.98-1.907 39.98-1.907 8.083-.476 9.033 11.406.956 12.362 0 0-8.129.951-17.163 1.422l54.619 162.478 32.827-98.447-23.368-64.032c-8.083-.471-15.73-1.422-15.73-1.422-8.083-.48-7.138-12.838.95-12.362 0 0 24.766 1.907 39.505 1.907 15.686 0 39.98-1.907 39.98-1.907 8.083-.476 9.039 11.406.956 12.362 0 0-8.138.951-17.162 1.422l54.203 161.238 14.962-49.984c7.606-19.494 11.415-35.655 11.415-48.492zm-98.623 20.687L107.628 293.89A149.988 149.988 0 0 0 150 300c17.471 0 34.224-3.015 49.813-8.503a14.133 14.133 0 0 1-1.072-2.068l-46.105-126.313zm128.988-85.078c.647 4.774 1.012 9.898 1.012 15.422 0 15.215-2.854 32.326-11.412 53.723l-45.812 132.459c44.598-26 74.583-74.311 74.583-129.646 0-26.081-6.667-50.598-18.371-71.958z"/></svg><view id="profile--svg_about" viewBox="190 147.36 38 38"/><svg width="38" height="38" viewBox="-48 -48 608 608" x="190" y="147.36" xmlns="http://www.w3.org/2000/svg"><path fill="none" d="M-1-1h514v514H-1z"/><g fill="#cc181e"><path d="M349.867 392.533A8.536 8.536 0 0 0 358.4 384v-8.533h8.533c4.71 0 8.533-3.823 8.533-8.533s-3.823-8.533-8.533-8.533H358.4v-8.533c0-4.71-3.823-8.533-8.533-8.533s-8.533 3.823-8.533 8.533v8.533H332.8c-4.71 0-8.533 3.823-8.533 8.533s3.823 8.533 8.533 8.533h8.533V384c0 4.71 3.823 8.533 8.534 8.533zm119.466-332.8c0 4.71 3.823 8.533 8.533 8.533s8.533-3.823 8.533-8.533c4.71 0 8.533-3.823 8.533-8.533s-3.823-8.533-8.533-8.533c0-4.71-3.823-8.533-8.533-8.533s-8.533 3.823-8.533 8.533c-4.71 0-8.533 3.823-8.533 8.533s3.823 8.533 8.533 8.533zM256 102.4c-65.877 0-119.467 53.589-119.467 119.467a8.536 8.536 0 0 0 8.533 8.533 8.536 8.536 0 0 0 8.533-8.533c0-56.465 45.935-102.4 102.4-102.4s102.4 45.935 102.4 102.4c0 4.71 3.823 8.533 8.533 8.533s8.533-3.823 8.533-8.533C375.467 155.989 321.877 102.4 256 102.4zm76.8-76.8c0 4.71 3.823 8.533 8.533 8.533s8.533-3.823 8.533-8.533c4.71 0 8.533-3.823 8.533-8.533s-3.823-8.533-8.533-8.533c0-4.71-3.823-8.533-8.533-8.533S332.8 3.823 332.8 8.533c-4.71 0-8.533 3.823-8.533 8.533S328.09 25.6 332.8 25.6z"/><path d="M76.8 230.4a8.536 8.536 0 0 0 8.533-8.533C85.333 127.761 161.894 51.2 256 51.2s170.667 76.561 170.667 170.667c0 4.71 3.823 8.533 8.533 8.533s8.533-3.823 8.533-8.533c0-103.518-84.215-187.733-187.733-187.733S68.267 118.349 68.267 221.867A8.536 8.536 0 0 0 76.8 230.4zm101.12 69.547l-7.424-37.086a8.518 8.518 0 0 0-8.363-6.861 8.52 8.52 0 0 0-8.363 6.861l-7.424 37.086-37.086 7.424a8.518 8.518 0 0 0-6.861 8.363 8.52 8.52 0 0 0 6.861 8.363l37.086 7.424 7.424 37.086a8.518 8.518 0 0 0 8.363 6.861 8.52 8.52 0 0 0 8.363-6.861l7.424-37.086 37.086-7.424a8.518 8.518 0 0 0 6.861-8.363 8.52 8.52 0 0 0-6.861-8.363l-37.086-7.424zm-8.926 15.957a8.517 8.517 0 0 0-6.69 6.69l-.171.828-.171-.828a8.517 8.517 0 0 0-6.69-6.69l-.828-.171.828-.171a8.517 8.517 0 0 0 6.69-6.69l.171-.828.171.828a8.517 8.517 0 0 0 6.69 6.69l.828.171-.828.171z"/><path d="M503.467 128a8.536 8.536 0 0 0-8.533 8.533v332.8c0 14.114-11.486 25.6-25.6 25.6h-204.8v-19.635c12.442-4.352 44.843-14.498 76.8-14.498 74.325 0 124.8 16.461 125.312 16.631a8.567 8.567 0 0 0 7.68-1.178 8.549 8.549 0 0 0 3.541-6.921V93.867a8.522 8.522 0 0 0-5.171-7.842c-.759-.324-18.91-7.962-54.349-10.914-4.753-.435-8.815 3.098-9.207 7.791a8.532 8.532 0 0 0 7.791 9.216c21.982 1.826 36.668 5.572 43.87 7.808v358.067c-19.337-5.069-62.276-14.259-119.467-14.259-37.18 0-73.702 12.211-85.001 16.35-10.044-4.437-40.405-16.35-77.133-16.35-58.778 0-107.204 9.694-128 14.618V100.463c7.987-1.971 23.287-5.436 43.409-8.533 4.659-.717 7.859-5.069 7.142-9.728-.725-4.659-5.12-7.876-9.728-7.134-31.274 4.804-50.884 10.359-51.703 10.598a8.528 8.528 0 0 0-6.187 8.201v375.467a8.527 8.527 0 0 0 8.534 8.534c.785 0 1.57-.111 2.338-.333.589-.162 59.597-16.734 134.195-16.734 31.198 0 57.856 9.711 68.267 14.071v20.062h-204.8c-14.114 0-25.6-11.486-25.6-25.6v-332.8c0-4.71-3.823-8.533-8.533-8.533S0 131.823 0 136.533v332.8C0 492.86 19.14 512 42.667 512h426.667C492.86 512 512 492.86 512 469.333v-332.8a8.536 8.536 0 0 0-8.533-8.533zM76.8 34.133h8.533v8.533a8.536 8.536 0 0 0 8.533 8.533 8.536 8.536 0 0 0 8.533-8.533v-8.533h8.533a8.536 8.536 0 0 0 8.533-8.533 8.536 8.536 0 0 0-8.533-8.533H102.4V8.533A8.536 8.536 0 0 0 93.867 0a8.536 8.536 0 0 0-8.533 8.533v8.533H76.8a8.536 8.536 0 0 0-8.533 8.533c0 4.711 3.823 8.534 8.533 8.534z"/><path d="M247.467 145.067V435.2c0 4.71 3.823 8.533 8.533 8.533s8.533-3.823 8.533-8.533V145.067c0-4.71-3.823-8.533-8.533-8.533s-8.533 3.822-8.533 8.533z"/><path d="M401.067 230.4a8.536 8.536 0 0 0 8.533-8.533c0-84.693-68.907-153.6-153.6-153.6s-153.6 68.907-153.6 153.6c0 4.71 3.823 8.533 8.533 8.533s8.533-3.823 8.533-8.533c0-75.281 61.252-136.533 136.533-136.533s136.533 61.252 136.533 136.533a8.538 8.538 0 0 0 8.535 8.533z"/></g></svg><view id="profile--svg_education" viewBox="0 186.65 38 38"/><svg width="38" height="38" viewBox="-44.93 -44.93 569.17 569.17" y="186.65" xmlns="http://www.w3.org/2000/svg"><path fill="none" d="M-1-1h582v402H-1z"/><path fill="#cc181e" d="M479.264 194.077l-237.589-67.274-2.043-.579L0 194.077l88.354 34.071v32.653c-7.648 3.007-13.084 10.447-13.084 19.149s5.436 16.142 13.084 19.149v53.942h15v-53.942c7.648-3.007 13.084-10.447 13.084-19.149s-5.436-16.142-13.084-19.149v-26.869l18.142 6.996v56.496l2.764 2.251c34.124 27.794 74.113 41.69 114.102 41.69 39.989 0 79.979-13.896 114.103-41.69l2.764-2.251v-55.516l124.035-47.831zm-383.41 91.457c-3.079 0-5.584-2.505-5.584-5.584s2.505-5.584 5.584-5.584 5.584 2.505 5.584 5.584-2.505 5.584-5.584 5.584zm143.778-143.721l192.282 54.445-192.282 74.15-114.067-43.988 115.584-23.905-3.037-14.689L99.711 216.45 47.35 196.258l192.282-54.445zm100.595 148.438c-61.351 48.03-142.379 48.032-203.731 0v-43.539l103.137 39.772 100.595-38.792v42.559h-.001z"/></svg><view id="profile--svg_experience" viewBox="38 186.65 38 38"/><svg width="38" height="38" viewBox="-89.06 -89.06 1128.13 1128.13" x="38" y="186.65" xmlns="http://www.w3.org/2000/svg"><path fill="none" d="M-1-1h582v402H-1z"/><path d="M949.869 741.307l-.217-6.221c-.075-2.082-.152-4.17-.229-6.268l-.06-1.57-.03-.787-.008-.197-.02-1.76-.006-.082-.025-.326-.201-2.607-.813-10.467-.207-2.645-.312-3.43-.646-6.836-.669-6.799-.343-3.381-.414-3.119c-1.139-8.242-2.156-16.342-3.608-24.129-.686-3.896-1.319-7.727-2.031-11.461l-2.277-10.914c-1.402-7.098-3.163-13.727-4.647-19.855l-1.115-4.492-1.185-4.264c-.782-2.766-1.523-5.391-2.221-7.855-.71-2.461-1.336-4.771-1.99-6.889l-1.851-5.803-2.079-6.455a4.926 4.926 0 0 0-6.043-3.223l-160.613 45.771a4.924 4.924 0 0 0-3.498 5.637l.595 3.201.759 3.994c.261 1.457.466 3.053.729 4.74l.821 5.383c.141.947.308 1.912.439 2.91l.35 3.07c.447 4.184 1.115 8.67 1.413 13.48l.609 7.361c.156 2.518.234 5.098.368 7.709.348 5.213.282 10.641.382 16.115l.023 2.039-.072 1.805-.124 3.617-.098 3.619-.038 1.807-.11 2.602c-.148 3.502-.299 7.002-.448 10.49l-.111 2.613-.015.326-.003.08c.002.393-.03-3.111-.02-1.598l-.013.129-.048.516-.095 1.031-.371 4.102-.355 4.062c-.16 1.342-.319 2.678-.479 4.004-.341 2.65-.551 5.275-.973 7.832l-1.09 7.535-1.246 7.166c-.366 2.33-.856 4.574-1.292 6.746-.456 2.168-.819 4.273-1.292 6.271a10470.159 10470.159 0 0 1-1.93 8.355l-.588 2.125-.327 1.221H944.3c2.633 0 4.826-2.066 4.926-4.697l.002-.047.503-11.254.224-11.742c.112-3.982-.009-8.029-.02-12.121-.023-2.045-.044-4.102-.066-6.17zm-51.078-206.178a4.927 4.927 0 0 0 2.622-6.68l-1.886-3.984a3091.82 3091.82 0 0 1-2.231-4.697l-3.396-6.916c-1.222-2.459-2.521-5.076-3.893-7.834-.695-1.434-1.378-2.617-2.093-3.963l-2.186-4.037c-1.497-2.744-3.028-5.613-4.671-8.551a30131.59 30131.59 0 0 1-5.254-9.002l-2.749-4.684-2.947-4.723-6.112-9.706c-4.377-6.45-8.734-13.196-13.597-19.761-1.194-1.653-2.395-3.312-3.598-4.976l-1.81-2.494-1.884-2.453-7.58-9.812c-2.575-3.237-5.239-6.406-7.85-9.587-1.32-1.58-2.599-3.183-3.946-4.727l-4.04-4.603c-1.343-1.523-2.68-3.043-4.011-4.554a134.141 134.141 0 0 0-4.033-4.45l-8.06-8.585c-2.65-2.81-5.394-5.451-8.005-8.091-2.63-2.626-5.186-5.205-7.796-7.6l-7.521-7.04c-2.418-2.279-4.887-4.349-7.187-6.399l-6.656-5.819-6.157-5.073-5.416-4.442c-1.676-1.367-3.279-2.552-4.692-3.657a32101.34 32101.34 0 0 1-5.177-3.973 4.925 4.925 0 0 0-6.798.776l-86.204 104.346a4.925 4.925 0 0 0 .327 6.64c.721.712 1.553 1.536 2.489 2.463.897.901 1.925 1.855 2.979 2.969l3.409 3.604 3.88 4.078 4.147 4.67c1.427 1.642 2.987 3.272 4.471 5.09l4.636 5.573c1.621 1.878 3.168 3.917 4.77 5.977 1.585 2.074 3.279 4.119 4.871 6.312l4.851 6.658a71.25 71.25 0 0 1 2.41 3.434l2.381 3.506c.798 1.168 1.601 2.342 2.404 3.52.802 1.178 1.537 2.41 2.312 3.615 1.522 2.432 3.1 4.828 4.596 7.277l4.369 7.41 1.09 1.838 1.021 1.877 2.038 3.727c2.795 4.889 5.154 9.93 7.623 14.666l3.329 7.152 1.614 3.453 1.459 3.43c.965 2.246 1.903 4.434 2.812 6.547l2.427 6.199 1.142 2.912c.352.926.788 1.928 1.022 2.699l1.574 4.6 1.413 4.016 1.574 4.697 1.395 4.184a4.927 4.927 0 0 0 6.515 3.008l149.464-60.05zM459.808 348.748l4.324.59 5.063.882 5.747.987c1.758.292 3.579.716 5.472 1.112l54.404-111.282-7.993-1.248c-1.796-.267-3.564-.574-5.325-.794l-5.218-.632-9.989-1.187-9.358-.802c-3-.23-5.861-.533-8.6-.663l-7.765-.382-6.818-.322-5.792-.093-6.222-.075a4.925 4.925 0 0 0-4.979 4.695l-4.961 103.577a4.926 4.926 0 0 0 4.25 5.121l3.76.516zm146.219 57.033c1.462 1.063 2.848 2.071 4.15 3.02l3.654 2.617c.489.336 1.296.948 1.955 1.438l1.939 1.448 3.533 2.636a4.925 4.925 0 0 0 7.065-1.25l71.03-108.196a4.923 4.923 0 0 0-1.661-6.98l-3.823-2.193-2.101-1.205-2.511-1.421-6.542-3.604c-2.336-1.273-4.823-2.627-7.443-4.056a39845.12 39845.12 0 0 1-7.86-3.939c-2.75-1.342-5.556-2.835-8.565-4.19l-9.273-4.25c-3.161-1.492-6.497-2.847-9.883-4.269-3.4-1.392-6.821-2.914-10.394-4.257l-2.736-1.036-30.642 132.998c1.694 1.064 3.29 2.192 4.862 3.21l5.246 3.479zm-241.593-57.575c1.372-.181 2.719-.405 4.064-.547l3.984-.405 7.619-.791 7.142-.479 3.353-.229c1.09-.073 2.182-.166 3.118-.167l5.479-.143 4.8-.152 5.025-.033 4.408-.024a4.925 4.925 0 0 0 4.886-5.254l-6.394-97.57a4.925 4.925 0 0 0-5.53-4.571l-4.373.552-5.089.648-7.083 1.05-8.034 1.224c-1.448.204-2.781.475-4.18.739l-4.279.817-9.076 1.754-9.642 2.196-5.019 1.154c-1.692.396-3.389.88-5.11 1.325l-10.51 2.8-10.757 3.243c-1.812.561-3.643 1.09-5.463 1.689l-5.467 1.865-5.5 1.885c-1.84.626-3.683 1.255-5.501 1.972l-10.963 4.185c-3.643 1.426-7.226 3.006-10.817 4.501-1.79.763-3.585 1.499-5.354 2.282l-5.253 2.425-5.201 2.409c-1.725.798-3.443 1.584-5.113 2.451l-9.919 5.008c-3.257 1.633-6.361 3.435-9.444 5.094-3.069 1.69-6.087 3.302-8.934 5.039l-8.342 4.949c-2.702 1.576-5.208 3.278-7.664 4.816l-6.999 4.487-6.178 4.24-5.418 3.731c-1.672 1.153-3.151 2.296-4.514 3.284l-4.7 3.47a4.923 4.923 0 0 0-1.141 6.735l40.515 59.566a4.922 4.922 0 0 0 6.494 1.524l3.632-2.049c1.209-.669 2.517-1.459 3.994-2.228 1.476-.77 3.072-1.6 4.777-2.488l5.417-2.832 6.107-2.928c2.138-.996 4.307-2.137 6.646-3.132l7.189-3.155c2.443-1.125 5.031-2.108 7.649-3.158 2.632-1.02 5.268-2.174 8.029-3.149l8.374-3.018c1.403-.533 2.847-.984 4.294-1.446l4.353-1.401 4.378-1.416c1.472-.447 2.965-.847 4.448-1.275 2.979-.824 5.938-1.738 8.938-2.504l8.994-2.225c1.484-.395 2.99-.704 4.489-1.013l4.475-.942 4.429-.94c1.473-.294 2.954-.521 4.415-.784l8.648-1.501 8.399-1.16zM88.175 425.22l-3.199 4.526-3.216 4.559c-1.071 1.527-2.073 3.111-3.115 4.669-2.054 3.137-4.156 6.25-6.168 9.422l-5.887 9.585-1.46 2.386-1.386 2.425-2.754 4.822c-3.74 6.353-6.989 12.847-10.291 19.015l-4.529 9.266-2.178 4.488-1.999 4.441-3.817 8.504-3.329 8.045c-1.046 2.586-2.103 5.033-3.004 7.408l-2.527 6.752-2.212 5.93-1.734 5.084-1.741 5.168a4.924 4.924 0 0 0 2.91 6.172l37.71 14.457c2.4.92 5.103-.154 6.212-2.473l1.962-4.102 2.073-4.311 2.596-5.004c.924-1.781 1.906-3.68 2.942-5.68 1.044-1.994 2.246-4.039 3.439-6.199l3.77-6.705 4.252-7.043 2.21-3.668c.785-1.215 1.58-2.443 2.383-3.688l4.916-7.59c3.546-5.02 7.014-10.307 10.933-15.406l2.882-3.879 1.445-1.947 1.514-1.904 6.064-7.633c2.061-2.516 4.2-4.967 6.279-7.439 1.054-1.227 2.066-2.479 3.145-3.672l3.228-3.562 3.195-3.531a87.627 87.627 0 0 1 3.211-3.444l6.411-6.64c2.101-2.177 4.294-4.197 6.364-6.239 2.086-2.027 4.104-4.027 6.182-5.86l5.956-5.42c1.908-1.761 3.874-3.333 5.69-4.911l5.246-4.468c1.636-1.295 3.188-2.523 4.646-3.679a8833.53 8833.53 0 0 0 4.062-3.235c.576-.476 1.356-1.046 2.015-1.547l1.933-1.458 3.518-2.655a4.925 4.925 0 0 0 .774-7.133l-42.935-50.299a4.925 4.925 0 0 0-7.166-.355l-3.174 3.058-1.744 1.679c-.621.603-1.212 1.152-1.982 1.939l-4.764 4.808-5.392 5.47-5.557 6.019c-1.912 2.113-3.974 4.242-5.969 6.576l-6.202 7.19c-2.155 2.438-4.24 5.057-6.385 7.714-2.129 2.671-4.373 5.336-6.514 8.16-2.135 2.824-4.305 5.695-6.501 8.603a110.88 110.88 0 0 0-3.237 4.439zm-78.02 176.352l-.878 4.32a37820.5 37820.5 0 0 1-1.011 4.977c-.361 1.852-.714 4.039-1.108 6.271l-1.234 7.18c-.21 1.26-.45 2.562-.649 3.875l-.542 4c-.704 5.453-1.631 11.32-2.165 17.588l-.953 9.609c-.268 3.283-.447 6.645-.678 10.053-.54 6.811-.639 13.875-.864 21.021L0 693.152l.013 2.697a220415.294 220415.294 0 0 1 .062 10.842l.017 2.717.104 2.719.441 10.84.111 2.695.034.873.048.65.096 1.299.382 5.18.379 5.139.516 5.309.516 5.24.258 2.588.32 2.529 1.255 9.871 1.449 9.412c.44 3.057 1.007 6.014 1.528 8.873l.128.682a4.927 4.927 0 0 0 4.846 4.031h13.291a4.931 4.931 0 0 0 4.923-5.221c-.045-.756-.091-1.52-.142-2.291-.166-2.756-.366-5.598-.43-8.531l-.295-9.01a40192.024 40192.024 0 0 1-.072-11.804l.053-2.385.106-4.812.107-4.865.24-5.146.241-5.188.061-1.303.03-.652.004-.082c0-.207.004.191.006.123l.012-.158.025-.314.202-2.523.807-10.117.206-2.527.291-2.521.58-5.027.575-5.002.285-2.488.369-2.471c1.012-6.57 1.872-13.033 3.132-19.221.591-3.1 1.12-6.15 1.727-9.119l1.936-8.666c1.164-5.641 2.673-10.885 3.901-15.746l.924-3.562c.318-1.143.661-2.225.977-3.297l1.81-6.059c.581-1.918 1.058-3.633 1.614-5.354l1.601-4.82 1.389-4.186a4.925 4.925 0 0 0-3.412-6.311l-33.319-8.885a4.925 4.925 0 0 0-6.103 3.775zM387.317 774.27c10.84 5.299 22.323 7.811 33.628 7.811 28.378 0 55.65-15.811 68.953-43.023 2.562-5.238 4.545-11.021 5.835-16.467l77.577-336.717 29.544-128.233 18.303-79.437c2.13-9.245-5.224-15.543-12.602-15.543-4.319 0-8.647 2.159-11.087 7.148l-37.245 76.183-54.944 112.386-153.175 313.311c-18.603 38.051-2.837 83.979 35.213 102.581zm36.472-108.434c20.759 0 37.588 16.828 37.588 37.588 0 20.758-16.829 37.588-37.588 37.588s-37.588-16.83-37.588-37.588c0-20.762 16.829-37.588 37.588-37.588z" fill="#cc181e"/></svg><view id="profile--svg_hobbies" viewBox="76 186.65 38 38"/><svg width="38" height="38" viewBox="-48 -48 608 608" x="76" y="186.65" xmlns="http://www.w3.org/2000/svg"><path fill="none" d="M-1-1h582v402H-1z"/><path fill="#cc181e" d="M403.344 378.656c2.422 0 4.812.422 7.094 1.219l14.219 5.031V288H222v-75.578l-14.219 5.023a21.212 21.212 0 0 1-7.117 1.219c-11.758 0-21.328-9.57-21.328-21.328 0-11.766 9.57-21.336 21.328-21.336 2.438 0 4.828.406 7.117 1.219L222 182.25V85.336H119.75l5.031 14.219a21.2 21.2 0 0 1 1.219 7.109C126 118.43 116.43 128 104.664 128c-11.758 0-21.328-9.57-21.328-21.336 0-2.43.406-4.82 1.219-7.109l5.023-14.219H-2v299.57l14.219-5.031a21.593 21.593 0 0 1 7.117-1.219c11.758 0 21.328 9.578 21.328 21.344s-9.57 21.344-21.328 21.344c-2.438 0-4.828-.422-7.117-1.219L-2 415.094V512h426.656v-96.906l-14.219 5.031a21.49 21.49 0 0 1-7.094 1.219C391.562 421.344 382 411.766 382 400s9.562-21.344 21.344-21.344zM19.336 106.664H62c0 23.531 19.141 42.672 42.664 42.672 23.531 0 42.672-19.141 42.672-42.672h53.328v48c-23.523 0-42.664 19.141-42.664 42.672C158 220.859 177.141 240 200.664 240v48h-75.578l5.031 14.219a21.4 21.4 0 0 1 1.219 7.125c0 11.75-9.57 21.312-21.336 21.312s-21.336-9.562-21.336-21.312c0-2.438.414-4.844 1.219-7.125L94.914 288H19.336V106.664zm195.555 313.461l-14.227-5.031v75.562H19.336v-48C42.859 442.656 62 423.531 62 400s-19.141-42.656-42.664-42.656v-48h48C67.336 332.859 86.477 352 110 352s42.664-19.141 42.664-42.656h48v75.562l14.227-5.031a21.546 21.546 0 0 1 7.109-1.219c11.766 0 21.336 9.578 21.336 21.344s-9.57 21.344-21.336 21.344c-2.43 0-4.828-.422-7.109-1.219zm188.453 22.531v48H222v-48c23.523 0 42.664-19.125 42.664-42.656S245.523 357.344 222 357.344v-48h181.344v48c-23.531 0-42.688 19.125-42.688 42.656s19.156 42.656 42.688 42.656z"/><path fill="#606060" d="M490.656 90.664c2.438 0 4.844.414 7.125 1.219L512 96.914V0H288v69.336c-23.523 0-42.664 19.141-42.664 42.664s19.141 42.664 42.664 42.664V224h69.344c0 23.523 19.125 42.664 42.656 42.664s42.656-19.141 42.656-42.664H512v-96.914l-14.219 5.031a21.4 21.4 0 0 1-7.125 1.219c-11.75 0-21.312-9.57-21.312-21.336s9.562-21.336 21.312-21.336zm0 64v48h-75.562l5.031 14.227a21.546 21.546 0 0 1 1.219 7.109c0 11.766-9.578 21.336-21.344 21.336s-21.344-9.57-21.344-21.336c0-2.43.422-4.828 1.219-7.109l5.031-14.227h-75.562v-75.578l-14.234 5.031a21.307 21.307 0 0 1-7.109 1.219c-11.766 0-21.336-9.57-21.336-21.336s9.57-21.336 21.336-21.336c2.438 0 4.828.414 7.109 1.219l14.234 5.031V21.336h181.312v48C467.141 69.336 448 88.477 448 112s19.141 42.664 42.656 42.664z"/></svg><view id="profile--svg_profile" viewBox="114 186.65 38 38"/><svg width="38" height="38" viewBox="-48 -48 608 608" x="114" y="186.65" xmlns="http://www.w3.org/2000/svg"><path fill="none" d="M-1-1h514v514H-1z"/><path d="M205.264 210.602c-28.366-28.367-87.715-22.944-111.917-19.295-7.623 1.149-13.155 7.6-13.155 15.339v17.279a7.5 7.5 0 0 0 15 0v-17.28c0-.255.168-.473.392-.507 9.666-1.457 28.851-3.705 48.725-2.38 23.388 1.557 40.327 7.428 50.349 17.45a7.5 7.5 0 0 0 10.606 0 7.5 7.5 0 0 0 0-10.606z" fill="#2793e8"/><path d="M262.601 393.638l-46.145-16.78a7.491 7.491 0 0 0-2.044-5.742l-13.971-14.678v-24.64a90.427 90.427 0 0 0 4.344-3.789c17.625-16.521 27.733-39.844 27.733-63.991V244.34c5.322-11.581 8.019-23.837 8.019-36.457v-80.192a7.5 7.5 0 0 0-7.5-7.5H120.769c-39.51 0-71.653 32.144-71.653 71.654v16.038c0 12.62 2.697 24.876 8.019 36.457v16.931c0 28.036 12.466 53.294 32.077 69.946v25.219l-13.972 14.68a7.491 7.491 0 0 0-2.044 5.742l-46.145 16.78C11.469 399.303 1 414.25 1 430.831v57.725a7.5 7.5 0 0 0 15 0v-57.725c0-10.296 6.501-19.579 16.178-23.097l48.652-17.692 20.254 30.382a15.461 15.461 0 0 0 11.384 6.834 15.458 15.458 0 0 0 12.503-4.469l12.357-12.357v78.124a7.5 7.5 0 0 0 15 0v-78.124l12.357 12.357a15.45 15.45 0 0 0 12.503 4.469 15.461 15.461 0 0 0 11.384-6.835l20.254-30.381 48.652 17.692c9.676 3.519 16.178 12.801 16.178 23.097v57.725a7.5 7.5 0 0 0 15 0v-57.725c-.004-16.581-10.473-31.528-26.055-37.193zM72.134 261.271v-18.608a7.501 7.501 0 0 0-.746-3.261c-4.826-9.994-7.273-20.599-7.273-31.518v-16.038c0-31.239 25.415-56.654 56.653-56.654h104.769v72.692c0 10.919-2.447 21.524-7.273 31.518a7.501 7.501 0 0 0-.746 3.261v21.355c0 20.311-8.165 39.15-22.991 53.047-14.814 13.885-34.185 20.806-54.555 19.488-38.04-2.462-67.838-35.53-67.838-75.282zm42.229 150.911a.484.484 0 0 1-.418.149.475.475 0 0 1-.381-.229l-23.325-34.988 7.506-7.887 35.385 24.187-18.767 18.768zm30.463-28.942l-40.615-27.762v-14c10.51 5.681 22.277 9.234 34.792 10.044 1.976.128 3.941.191 5.899.191 14.341 0 28.143-3.428 40.539-9.935v13.7l-40.615 27.762zm31.263 28.864a.475.475 0 0 1-.381.229c-.245.021-.366-.098-.418-.149l-18.767-18.767 35.385-24.187 7.506 7.887-23.325 34.987z" fill="#2793e8"/><path d="M53.615 448.979a7.5 7.5 0 0 0-7.5 7.5v32.077a7.5 7.5 0 0 0 15 0v-32.077a7.5 7.5 0 0 0-7.5-7.5zm178.422 0a7.5 7.5 0 0 0-7.5 7.5v32.077a7.5 7.5 0 0 0 15 0v-32.077a7.5 7.5 0 0 0-7.5-7.5zm248.405-384.92h-40.095a7.5 7.5 0 0 0 0 15h40.095c9.13 0 16.558 7.428 16.558 16.558v128.307c0 9.13-7.428 16.558-16.558 16.558H400.25a7.495 7.495 0 0 0-4.411 1.435l-71.518 52.012 11.032-44.128a7.5 7.5 0 0 0-7.276-9.319h-24.058c-9.13 0-16.558-7.428-16.558-16.558V95.615c0-9.13 7.428-16.558 16.558-16.558h40.096a7.5 7.5 0 0 0 0-15h-40.096c-17.401 0-31.558 14.157-31.558 31.558v128.307c0 17.401 14.157 31.558 31.558 31.558h14.452l-11.033 44.129c-1.188 4.752.669 9.593 4.73 12.333a11.493 11.493 0 0 0 6.441 1.993c2.366 0 4.728-.744 6.765-2.226l77.314-56.228h77.753c17.401 0 31.558-14.157 31.558-31.558V95.615c.001-17.401-14.156-31.556-31.557-31.556z" fill="#2793e8"/><path d="M413.735 18.307a7.5 7.5 0 0 0-5.466-2.365h-32.077a7.5 7.5 0 0 0-7.485 7.968l8.02 128.307a7.5 7.5 0 0 0 7.485 7.032h16.038a7.5 7.5 0 0 0 7.485-7.032l8.019-128.307a7.504 7.504 0 0 0-2.019-5.603zM393.204 144.25h-1.946l-7.082-113.307h16.11l-7.082 113.307zm-.973 24.057c-12.979 0-23.539 10.56-23.539 23.539s10.56 23.538 23.539 23.538 23.538-10.559 23.538-23.538-10.559-23.539-23.538-23.539zm0 32.078c-4.708 0-8.539-3.83-8.539-8.538s3.831-8.539 8.539-8.539 8.538 3.831 8.538 8.539-3.83 8.538-8.538 8.538z" fill="#cc181e"/></svg><view id="services--svg_marker" viewBox="152 186.65 38 38"/><svg width="38" height="38" viewBox="-41.11 -41.11 520.72 520.72" x="152" y="186.65" xmlns="http://www.w3.org/2000/svg"><path fill="none" d="M-1-1h582v402H-1z"/><path fill="#cc181e" d="M349.459 52.534c-10.663-10.657-23.605-15.987-38.834-15.987-15.222 0-28.165 5.327-38.825 15.987-10.656 10.657-15.984 23.598-15.984 38.828 0 9.897 2.467 19.081 7.416 27.55 4.948 8.47 11.604 15.086 19.985 19.842 0 9.897-.805 18.608-2.42 26.125-1.622 7.517-4.284 14.128-7.994 19.842-3.72 5.711-7.566 10.561-11.566 14.56-4.001 3.999-9.616 7.755-16.848 11.278-7.231 3.521-13.945 6.468-20.129 8.851-6.184 2.375-14.514 5.182-24.982 8.419-19.036 5.903-33.689 11.323-43.968 16.275V102.206c8.375-4.755 15.037-11.37 19.985-19.84 4.947-8.47 7.421-17.655 7.421-27.552 0-15.225-5.327-28.169-15.987-38.826C156.073 5.332 143.132 0 127.903 0c-15.23 0-28.171 5.328-38.831 15.988-10.656 10.657-15.987 23.601-15.987 38.826 0 9.897 2.474 19.082 7.421 27.552 4.948 8.47 11.609 15.085 19.985 19.84v234.117c-8.376 4.753-15.037 11.375-19.985 19.842-4.947 8.473-7.421 17.658-7.421 27.552 0 15.225 5.327 28.168 15.987 38.824s23.604 15.988 38.831 15.988c15.226 0 28.17-5.332 38.826-15.988 10.657-10.656 15.987-23.6 15.987-38.824 0-9.894-2.474-19.079-7.421-27.552-4.949-8.467-11.61-15.089-19.985-19.842V328.9c0-13.131 3.949-22.645 11.847-28.544 7.898-5.907 24.029-12.662 48.395-20.273 25.699-8.186 45.021-15.899 57.963-23.134 42.633-24.167 64.142-63.568 64.521-118.196 8.381-4.755 15.037-11.372 19.985-19.842 4.945-8.47 7.423-17.653 7.423-27.55.003-15.226-5.328-28.167-15.985-38.827zM147.321 403.138c-5.332 5.331-11.803 7.994-19.414 7.994-7.616 0-14.087-2.663-19.417-7.994-5.327-5.325-7.994-11.8-7.994-19.411 0-7.617 2.664-14.085 7.994-19.417 5.33-5.328 11.801-7.994 19.417-7.994 7.611 0 14.083 2.669 19.414 7.994 5.33 5.332 7.993 11.8 7.993 19.417-.001 7.611-2.663 14.085-7.993 19.411zm0-328.906c-5.332 5.33-11.803 7.994-19.414 7.994-7.616 0-14.087-2.664-19.417-7.994-5.327-5.33-7.994-11.798-7.994-19.414 0-7.614 2.664-14.087 7.994-19.412 5.33-5.329 11.801-7.994 19.417-7.994 7.611 0 14.083 2.666 19.414 7.994 5.33 5.325 7.993 11.798 7.993 19.412-.001 7.616-2.663 14.087-7.993 19.414zm182.721 36.547c-5.328 5.327-11.796 7.993-19.41 7.993-7.618 0-14.09-2.666-19.414-7.993-5.328-5.327-7.994-11.799-7.994-19.414 0-7.614 2.666-14.083 7.994-19.414s11.796-7.993 19.414-7.993c7.614 0 14.082 2.663 19.41 7.993 5.328 5.326 7.994 11.799 7.994 19.414 0 7.614-2.662 14.087-7.994 19.414z"/></svg><view id="services--svg_service" viewBox="190 186.65 38 38"/><svg width="38" height="38" viewBox="-21.67 -21.67 274.55 274.55" x="190" y="186.65" xmlns="http://www.w3.org/2000/svg"><path fill="none" d="M-1-1h582v402H-1z"/><path fill="#2793e8" d="M231.505 102.78c-.365-3.25-4.156-5.695-7.434-5.695-10.594 0-19.996-6.218-23.939-15.842-4.025-9.855-1.428-21.346 6.465-28.587a6.425 6.425 0 0 0 .705-8.721 114.457 114.457 0 0 0-18.316-18.498c-2.633-2.112-6.502-1.818-8.787.711-6.891 7.632-19.27 10.468-28.836 6.477-9.951-4.187-16.232-14.274-15.615-25.101a6.416 6.416 0 0 0-5.676-6.755c-8.637-1-17.35-1.029-26.012-.068a6.437 6.437 0 0 0-5.723 6.617c.375 10.721-5.977 20.63-15.832 24.667-9.451 3.861-21.744 1.046-28.621-6.519a6.444 6.444 0 0 0-8.725-.731 114.933 114.933 0 0 0-18.703 18.492 6.432 6.432 0 0 0 .689 8.784C35.194 59.3 37.789 70.89 33.61 80.86c-3.99 9.505-13.859 15.628-25.156 15.628-3.666-.118-6.275 2.345-6.68 5.679a115.898 115.898 0 0 0-.049 26.289c.365 3.264 4.268 5.688 7.582 5.688 10.07-.256 19.732 5.974 23.791 15.841 4.039 9.855 1.439 21.341-6.467 28.592-2.473 2.273-2.789 6.07-.701 8.709a114.863 114.863 0 0 0 18.287 18.505 6.43 6.43 0 0 0 8.801-.697c6.918-7.65 19.295-10.481 28.822-6.482 9.98 4.176 16.258 14.262 15.645 25.092a6.417 6.417 0 0 0 5.672 6.755c4.42.517 8.863.773 13.32.773 4.23 0 8.461-.231 12.692-.702a6.434 6.434 0 0 0 5.721-6.621c-.387-10.716 5.979-20.626 15.822-24.655 9.514-3.886 21.752-1.042 28.633 6.512a6.457 6.457 0 0 0 8.725.73 115.085 115.085 0 0 0 18.703-18.493 6.422 6.422 0 0 0-.689-8.788c-8.047-7.284-10.656-18.879-6.477-28.839 3.928-9.377 13.43-15.673 23.65-15.673l1.43.038c3.318.269 6.367-2.286 6.768-5.671a115.39 115.39 0 0 0 .05-26.29zm-114.889 79.49c-36.813 0-66.654-29.841-66.654-66.653s29.842-66.653 66.654-66.653 66.654 29.841 66.654 66.653c0 12.495-3.445 24.182-9.428 34.176l-29.186-29.187a40.761 40.761 0 0 0 3.228-15.957c0-10.915-4.251-21.176-11.97-28.893-7.717-7.717-17.978-11.967-28.891-11.967-3.642 0-7.267.484-10.774 1.439a4.628 4.628 0 0 0-3.201 3.224c-.418 1.574.053 3.187 1.283 4.418 0 0 14.409 14.52 19.23 19.34.505.505.504 1.71.433 2.144l-.045.317c-.486 5.3-1.423 11.662-2.196 14.107-.104.103-.202.19-.308.296-.111.111-.213.218-.32.328-2.477.795-8.937 1.743-14.321 2.225l.001-.029-.242.061a2.095 2.095 0 0 1-.229.011c-.582 0-1.438-.163-2.216-.94-5.018-5.018-18.862-18.763-18.862-18.763-1.242-1.238-2.516-1.498-3.365-1.498-1.979 0-3.751 1.43-4.309 3.481-3.811 14.103.229 29.273 10.546 39.591 7.719 7.718 17.981 11.968 28.896 11.968a40.77 40.77 0 0 0 15.956-3.228l29.503 29.503a66.317 66.317 0 0 1-35.867 10.486z"/></svg><view id="works--svg_works" viewBox="228 0 38 38"/><svg width="38" height="38" viewBox="-5.34 -5.34 67.69 67.69" x="228" xmlns="http://www.w3.org/2000/svg"><path fill="none" d="M-1-1h59v59H-1z"/><path d="M22.66 0H3.34A3.343 3.343 0 0 0 0 3.34v19.32A3.343 3.343 0 0 0 3.34 26h19.32A3.343 3.343 0 0 0 26 22.66V3.34A3.343 3.343 0 0 0 22.66 0zm10.68 26h19.32A3.343 3.343 0 0 0 56 22.66V3.34A3.343 3.343 0 0 0 52.66 0H33.34A3.343 3.343 0 0 0 30 3.34v19.32A3.343 3.343 0 0 0 33.34 26zm-10.68 4H3.34A3.343 3.343 0 0 0 0 33.34v19.32A3.343 3.343 0 0 0 3.34 56h19.32A3.343 3.343 0 0 0 26 52.66V33.34A3.343 3.343 0 0 0 22.66 30zM55 41H45V31a2 2 0 0 0-4 0v10H31a2 2 0 0 0 0 4h10v10a2 2 0 0 0 4 0V45h10a2 2 0 0 0 0-4z" fill="#2793e8"/></svg></svg>