<svg width="512" height="512" xmlns="http://www.w3.org/2000/svg"><path fill="none" d="M-1-1h202v202H-1z"/><g><g fill="#cc181e"><path d="M242 1.6c-23.4 5-43.6 25.4-48.5 48.9-9.5 45.4 30.6 85.5 76 76 23.8-5 44-25.2 49-49C328 31.9 287.6-8.2 242 1.6zm28.6 22.5c11.1 4.2 19 11.5 23.9 22.2 13.9 30.3-11.3 64.4-44.2 59.7-18.7-2.6-33.3-17.1-36.4-35.9-2.8-17.6 7.3-36.6 23.6-44.2 11-5.2 22.3-5.8 33.1-1.8zM384.5 137.7c-23.1 40.5-42.1 73.9-42.3 74.4-.2.5 36.6.9 84.6.9h85.1l-42.1-73.8c-23.2-40.5-42.4-74-42.7-74.4-.3-.3-19.5 32.5-42.6 72.9zm66.5 11.8c12.8 22.5 23.5 41.3 23.7 41.7.2.5-21.4.8-48.1.8h-48.5l24.2-42.4c13.3-23.3 24.5-42.1 24.8-41.8.3.4 11.1 19.1 23.9 41.7zM42.2 128.3L0 170.5l42.8 42.8L85.5 256l42.3-42.3C151 190.5 170 171 170 170.5c0-1.3-83.2-84.5-84.5-84.5-.6 0-20 19-43.3 42.3zm70.8 15.2l27.5 27.5-27.5 27.5L85.5 226l-27.7-27.7L30 170.5l27.2-27.2c15-15 27.5-27.3 27.8-27.3.3 0 12.9 12.4 28 27.5zM222 193.6c-23.4 5-43.6 25.4-48.5 48.9-9.5 45.4 30.6 85.5 76 76 23.8-5 44-25.2 49-49 9.5-45.6-30.9-85.7-76.5-75.9z"/><path d="M14 300.6C6.3 303.9 1.6 311.3 1.6 320c.1 4.8 2.9 12.5 22.3 61 13.2 32.9 23.4 56.9 25 58.9 5.4 6.9 16 9.9 23.6 6.7 2.1-.9 20.4-14 40.5-29.1 20.2-15.1 37-27.5 37.3-27.5.4 0 .7 27.4.7 61v61h170v-61c0-33.6.3-61 .7-61 .3 0 17.1 12.4 37.3 27.5 20.1 15.1 38.4 28.2 40.5 29.1 7.9 3.3 18.5.2 23.9-6.9 1.3-1.8 12.4-28.2 24.7-58.7 19.5-48.5 22.2-56.2 22.3-61 0-12.2-8.9-21-21.4-21-6.1 0-11.5 2.5-15.6 7.2-2 2.3-8.2 16.7-19.4 44.6-9 22.6-16.8 41.2-17.2 41.2-.5 0-15.3-10.9-33-24.2-22.3-16.7-33.6-24.5-36.6-25.5-6.6-1.9-175.8-1.9-182.4 0-3 1-14.3 8.8-36.6 25.5-17.7 13.3-32.5 24.2-33 24.2-.4 0-8.3-18.8-17.5-41.8C40 306 39.3 304.6 31.3 300.6c-4-2-12.7-2-17.3 0z"/></g></g></svg>