<svg width="479.3" height="479.3" xmlns="http://www.w3.org/2000/svg"><path fill="none" d="M-1-1h582v402H-1z"/><g><path fill="#cc181e" d="M479.264 194.077l-237.589-67.274-2.043-.579L0 194.077l88.354 34.071v32.653c-7.648 3.007-13.084 10.447-13.084 19.149s5.436 16.142 13.084 19.149v53.942h15v-53.942c7.648-3.007 13.084-10.447 13.084-19.149s-5.436-16.142-13.084-19.149v-26.869l18.142 6.996v56.496l2.764 2.251c34.124 27.794 74.113 41.69 114.102 41.69 39.989 0 79.979-13.896 114.103-41.69l2.764-2.251v-55.516l124.035-47.831zm-383.41 91.457c-3.079 0-5.584-2.505-5.584-5.584s2.505-5.584 5.584-5.584 5.584 2.505 5.584 5.584-2.505 5.584-5.584 5.584zm143.778-143.721l192.282 54.445-192.282 74.15-114.067-43.988 115.584-23.905-3.037-14.689L99.711 216.45 47.35 196.258l192.282-54.445zm100.595 148.438c-61.351 48.03-142.379 48.032-203.731 0v-43.539l103.137 39.772 100.595-38.792v42.559h-.001z"/></g></svg>