<svg width="512" height="512" xmlns="http://www.w3.org/2000/svg"><path fill="none" d="M-1-1h582v402H-1z"/><g><path fill="#ff8100" d="M238 11.6c-25.3 2.9-38.7 5.6-58 12-15.7 5.2-39.4 16.6-53 25.4-36 23.5-65.4 56.5-84.1 94.5-11.2 22.8-18.6 46.2-22.5 71.5-2.5 16.1-2.5 51.9 0 68 10.7 68.9 49 128.5 106.6 166 11.8 7.6 34.3 18.8 47.5 23.6 13.2 4.7 33.2 9.8 47.5 12 16.1 2.5 51.9 2.5 68 0 58.5-9.1 110.5-38 147.7-82.1 23.1-27.4 39.8-59.9 48.8-95 5.6-21.7 6.9-33.2 6.9-58.5 0-25.3-1.3-36.8-6.9-58.5-4.5-17.7-9.2-30.4-17.4-47-34.3-69.6-100.5-117.8-178.6-130-9.5-1.5-45-2.8-52.5-1.9zm59 97.9c12 2.6 27.7 8.2 37.1 13.2 8.3 4.4 24.1 15.3 24.7 17.1.1.5-9 10.7-20.4 22.6l-20.6 21.7-6.2-5.8c-17.8-16.7-45.3-22-65.3-12.6-12.3 5.7-17.9 20.3-12.2 32 4.1 8.6 11.1 12.3 42.2 22.9 35.5 12 50.9 20.3 63.9 34.3 7.5 8.1 12 16.6 15 28.3 1.8 7.1 2 10.2 1.5 21.8-.4 9.2-1.2 16-2.7 21.5-8 29.5-32 51.5-65.6 60.1-44.4 11.2-99.2-1.3-130.9-29.9l-5-4.6 21.4-21.5 21.5-21.5 6.1 5.7c15.7 14.7 33.6 22.2 53.1 22.2 22.9 0 36.4-10.5 36.4-28.4 0-17.2-8.7-23.8-49.5-37.4-29.7-9.9-40.3-15.1-53.5-26.3-6.1-5.3-14-16.6-17-24.6-5.5-14.5-6.3-35.7-2-51.3 9-31.9 37.3-53.6 79-60.5 11.1-1.9 38.6-1.3 49 1z"/></g></svg>