<svg width="1600" height="1600" xmlns="http://www.w3.org/2000/svg"><path fill="none" d="M-1-1h1602v1602H-1z"/><g><path d="M1279.663 187.732c-10.6 2.2-20.4 9.7-28.8 21.9-10.9 15.9-17.7 29.7-31.4 63.7-3.9 9.6-9.4 22.2-12.3 28-35.6 70.9-103.7 134.4-192.5 179.4-30 15.3-58.8 27.1-90 37-17.2 5.4-43 12.4-54.1 14.6l-5.7 1.1-10.8-5.5c-71.3-36-155.8-28.2-219 20l-7.2 5.4-10.7-1.5c-58.8-8.2-120.3-43.3-179.1-102-31.3-31.3-41.3-44.1-79.7-101.4l-29.7-44.6v308.8l-4.9 7.6c-8.7 13.7-16.9 32-20.6 46.6-1 3.8-1.9 7.1-2 7.3-.1.1-5.1-2.8-11.1-6.6-64.6-41-135.2-45.2-186.8-11.1-4.3 2.8-12.2 9.3-17.5 14.4-37 35.6-52.2 91.1-41.7 152.5 14.5 84.8 75.6 166.8 152.1 204 27.5 13.4 49.9 19.4 80 21.5l10 .7 14.9 11.1c46.9 34.8 104.7 69.6 151.3 91.1 84.5 39 179.5 68.4 261.3 81 40.7 6.2 64.6 8 107 8 45.6 0 73.6-2.5 110.5-9.9 56.5-11.3 109.3-31.6 155.9-59.9l12.8-7.8 20.7 10c51 24.8 119.2 51 173.6 66.5 15.9 4.6 26.6 7.2 57.3 14.2 2.1.5 2.2.9 2.2 12.1 0 36.2 12.4 67.8 35.9 91.1 16.1 16.1 35 28.5 66.6 43.9 31.9 15.6 56.6 24.8 95.3 35.4 11.9 3.3 22.5 6.3 23.5 6.6 1.6.5 1.7-1.4 1.7-30 0-61.6-4.4-121.3-11.6-159.1-8-41.6-14.3-56.3-31.4-73.5-20.4-20.4-45.7-32.1-73.1-33.7-21.8-1.2-45 5.1-60.5 16.7l-5 3.8-10-7.5c-35-26.5-90.6-59.7-146.9-87.8l-25.5-12.7 3.5-4.7c6.5-8.6 24.3-35.5 30-45.6 55.9-97.7 89.5-235.2 102-417 2.6-38.7 3.5-62.9 4.1-112 1.3-101.4-4.1-183.1-16.2-243.9-4.1-20.9-6.3-26.3-14.4-35-7-7.4-13.5-11.2-22.7-13.1-8-1.7-11.9-1.7-19.3-.1zm1.9 115.7c5.3 41.8 8.3 143.3 6.2 209.9-3.2 100.7-11 176.3-26.2 253-15.1 76.3-34.2 136.3-59.9 188.5-15.2 30.9-31.1 56.3-44.8 71.5l-4.7 5.2-23-9.2c-17.8-7.2-48.3-18.5-63.1-23.5-.6-.2-1.4-4-1.8-8.6-1.9-20.7-10.9-37.2-31.3-57-11.2-10.8-23.9-20.6-39.4-30.2-10.7-6.6-22.8-13.1-23.4-12.5-.2.2 1.5 3.2 3.6 6.8 13.7 22.4 22 46.2 22.2 64 .1 6.9-.3 9.3-2 12.5-9.9 18.8-48.2 31.8-116.3 39.5-57.9 6.5-150.7 8.5-237 5-11.8-.5-21.6-.7-21.8-.5-.2.2 10.6 3.9 24 8.3 86.8 28.6 174.6 47.9 240.7 53.1 17.2 1.4 54.9 1.4 68 .1l10-1.1 25.3 16.9c13.9 9.2 30.6 20.1 37.2 24.2l11.8 7.4-9.8 4.9c-97.8 49.1-217.3 58.6-353.4 28.1-79.6-17.9-172.4-52.4-235-87.4-21.4-11.9-72.3-43.7-74.1-46.1-.2-.4 2.3-2.7 5.6-5.2 7.8-5.9 20.6-19.3 27-28.2 7.1-10 15.9-27.8 20-40.6 5.1-15.9 7.6-31.3 8.2-52.2.5-15.2.8-17.7 2.1-17.2.8.3 7.2 1.7 14.1 3.2 11.1 2.4 14.9 2.7 31.6 2.7 11.3 0 22-.5 26.5-1.3 34.4-6 62.7-19 88.2-40.7l8.7-7.3 6.5 7.8c9 10.7 22.5 23.4 35.1 32.9 52.3 39.2 121.4 51.3 184 32.1 89.7-27.6 150.7-112.9 147.2-205.9-1.7-43.7-14.7-80.2-42.5-119-1.3-1.7-1-2 3-3 2.4-.6 14.2-4.4 26.3-8.5 35.4-11.7 61.9-22.9 93-38.9 24.9-12.9 34.9-18.8 58-34.1 59.2-39.4 104.7-84.7 138.4-137.6 9.6-15.2 22.6-40 30.1-57.7 2.9-6.7 5.4-12.1 5.6-11.9.2.2.8 3.7 1.3 7.8zm-853 226.3c6.1 5.5 10.8 10.3 10.4 10.6-.5.4-3.5 1.3-6.8 2-8.2 1.7-22.1 6.4-31.2 10.6-4.2 1.9-7.7 3.4-7.9 3.4-.2 0-.4-14.1-.4-31.2v-31.3l12.4 13c6.8 7.2 17.3 17.5 23.5 22.9zm361.3 42.6c49.5 10.4 89.9 45.7 106.7 93.3 5.7 16.2 7.4 27.1 7.4 46.7 0 9.6-.4 19.5-1 22l-.9 4.5-1.8-5.8c-2.3-8-10.2-23-15.9-30.4-14.2-18.5-36.2-31.8-59.4-35.8-9.9-1.7-22.7-2-21.8-.5.3.5 1.4 1 2.3 1 3.6 0 14.1 6 20 11.5 27.5 25.4 15.3 71.4-21.5 81-30.7 8-61.5-18-59-50 .6-8.3 3.5-16.6 8.3-23.5 1.9-2.7 3.2-5 3-5-.3 0-3.8 2.6-7.8 5.8-15.5 12.4-27.6 30.9-32.9 50.7-3.1 11.5-3.2 35.6-.1 46.6 9 32.8 32.5 57.9 63.7 68l7 2.3-4.5 1c-2.5.5-12.4.9-22 .9-14.3.1-19.4-.3-27.7-2.1-27.6-5.9-50.8-18.1-70.5-37.1-21.8-20.9-35.5-45.6-42-75.4-3.1-14.7-3.1-42.7 0-57.4 13.2-61.2 61.1-105.6 123.2-114.3 10.4-1.4 36.1-.4 47.2 2zm-302.7 30c12.8 1.8 22.9 5 35 11 14.1 6.9 25.5 15.6 34.8 26.5l6.5 7.6-1.9 6.7c-2.8 9.5-5.9 23.7-5.9 26.7 0 1.4-.2 2.5-.5 2.5s-2.6-1.5-5.2-3.4c-6.9-4.9-16.1-9.2-24.5-11.6-8.2-2.4-28.2-3.9-23.8-1.9 1.4.7 4.9 2.3 7.8 3.6 6.7 3.2 14.2 10.6 17.6 17.6 10.9 22.1-.6 48.4-24.2 55.7-15 4.6-30.2.4-41.2-11.6-11.9-12.9-13.4-33.7-3.6-48.3l3.5-5.1-4.2 2.9c-6.1 4.1-16.7 15.7-21 22.8-24.2 39.8-9 91.7 32.8 112.7 3.9 1.9 10 4.3 13.5 5.3l6.5 1.8-4.5.7c-12.6 1.9-32.4-.1-46.3-4.6-9.4-3.1-20.1-8.3-28.3-13.8-6-4-6.3-4.5-12-16.7-9.8-20.9-20.2-37.8-33.6-54.4-3.7-4.5-4.8-24-2.3-39.3 2.7-16.7 7.8-29.9 16.9-43.9 23.2-35.6 66.4-55.4 108.1-49.5zm-279.7 98c53.6 13 105.4 58.4 133.4 116.7 27.5 57.4 26 117.1-3.7 146.9-30.8 31-83.2 28.1-136.2-7.7-15.2-10.3-34-27.8-46.6-43.4-26.2-32.5-43.4-70.7-48.2-107.2-1.9-14.8-1.9-23.4.1-11.7 4.1 24.9 18.7 46.9 37.5 56.9 46.4 24.5 96.3-25 87.8-87.2-4.3-31.3-23.7-56.8-49.4-64.5l-6-1.8 11.5.5c6.3.2 15.2 1.4 19.8 2.5zm1263.4 511.7c8.6 4.1 18.4 13.3 21.5 20.2 9.1 20.4 15.8 60.8 17.9 106.8l.7 15.3-7.9-2.7c-23.1-7.8-54.4-27.9-71.5-46-8.1-8.6-10.2-12.9-12.8-26-4.8-23.3-1-43.7 10.6-57.2 4-4.7 13.1-10.9 18.7-12.7 6.3-2.1 15.4-1.2 22.8 2.3z" fill="#fff"/></g></svg>