<svg width="200" height="171" xmlns="http://www.w3.org/2000/svg"><path fill="none" d="M-1-1h582v402H-1z"/><g><g stroke="null" fill="#2788b5"><path d="M.4 2.5C1.4 6.6 35 169.3 35 170.2c0 .4 7.4.8 16.4.8 14.8 0 16.5-.2 17-1.8.3-.9 4-17 8.1-35.7 4.2-18.7 7.8-34.1 8-34.3.6-.6 1.2 2.3 8.1 37.5l6.6 34.3h15.4l12-13.7c20.5-23.6 22.4-26.7 22.4-36.3 0-3.4-.5-7.1-1.1-8.3-.7-1.2-6-7.2-11.9-13.3-9.3-9.5-11.4-12.3-15.3-20.5-4.3-8.8-5-11.4-11.2-43.4-3.6-18.7-6.9-34.3-7.4-34.8-.4-.4-7.9-.6-16.7-.5L69.5.5 63.4 29c-9.6 44.8-9.6 44.8-10.5 42.5-.4-1.1-3.3-15.5-6.4-32C43.4 23 40.4 7.4 39.8 4.7l-1-4.7h-39l.6 2.5z" stroke-width=".1"/><path d="M139.1 6.7C127.7 21.8 122 36.8 122 51.5c.1 9.3 1.3 14.4 6.1 24.3 3.3 6.9 5.9 10.3 14.8 19.5 6 6.2 11.6 12.6 12.5 14.4 1.1 2.2 1.6 5.7 1.6 11 0 12.2-4.3 19.5-24.2 41.6-3.8 4.1-6.8 7.7-6.8 8.1 0 .3 12.1.6 26.9.6h26.8l2.8-4.2c6.4-9.7 14.6-26.8 16-33.5 2.2-10.4 1.9-19.9-1-29-3.3-10.6-6.9-15.9-19.2-28.5-5.7-5.9-11-12.3-11.8-14.2-.9-2.1-1.5-6.7-1.5-11.3 0-12 3.9-18.7 22.4-39.3 4.7-5.2 8.6-9.8 8.6-10.3 0-.4-11.7-.7-25.9-.7h-25.9l-5.1 6.7z" stroke-width=".1"/></g></g></svg>