<svg width="464.6" height="464.6" xmlns="http://www.w3.org/2000/svg"><path fill="none" d="M-1-1h466.6v466.6H-1z"/><g><g fill="#2793e8"><path d="M464.585 393.312L377.122 78.297 301.73 99.229l8.329 29.998h-83.857V87.446h-78.243v30.92h-42.373V50.207H0v364.17h324.355V180.715l64.838 233.528 75.392-20.931zM162.959 102.446h48.243v37.147h-48.243v-37.147zm0 99.364h48.243v170.575h-48.243V201.81zm0-15v-8.608h48.243v8.608h-48.243zm0-23.608v-8.609h48.243v8.609h-48.243zM90.586 370.189H15V94.199h75.586v275.99zm0-304.982v13.992H15V65.207h75.586zM15 399.378v-14.189h75.586v14.189H15zm132.959 0h-42.373V133.366h42.373v266.012zm15 0v-11.993h48.243v11.993h-48.243zm146.396 0h-83.153V144.226h83.153v255.152zm90.279-3.6l-52.742-189.961 46.485-12.907 52.742 189.961-46.485 12.907zm-56.755-204.414l-4.133-14.884 46.485-12.907 4.133 14.884-46.485 12.907zm23.802-94.602l14.537 52.358-46.485 12.907-14.537-52.358 46.485-12.907z"/><path d="M243.6 160.5h48.3v15h-48.3zM243.6 186.8h48.3v15h-48.3zM243.6 213.2h48.3v15h-48.3zM243.6 365.8h48.3v15h-48.3zM119.3 272.3h15v25.3h-15zM119.3 311.8h15v57.1h-15zM119.3 189.9h15V258h-15zM119.3 150.4h15v26.4h-15z"/></g></g></svg>