<svg width="1000" height="963" xmlns="http://www.w3.org/2000/svg"><path fill="none" d="M-1-1h582v402H-1z"/><g><g fill="#1169ae"><path d="M586 15.7c-18.7 25.8-23.1 32.6-29.6 45.8-27.6 56.2-25.4 121.6 6.2 181.4 27.4 51.9 78.1 97.2 132.9 118.9 31.9 12.7 54.6 16.7 93 16.7 23.4-.1 34.9-1.4 53.5-6 54.6-13.6 95.2-46.8 125.9-103l3.3-6-3.8 4.5c-2 2.5-8 8.8-13.3 14-21.2 21.1-47.9 34.3-80.6 40.1-18.2 3.2-50.3 3.2-71.5 0-45.7-6.9-79.2-19.4-114-42.6-54.6-36.4-94.3-94.3-107.7-157-2.6-12.2-2.8-14.5-2.7-38 0-22.3.2-26.1 2.2-35.5 3-13.6 7.2-26.2 12.8-37.9 2.4-5.2 4.3-9.5 4.2-9.6-.2-.2-5 6.3-10.8 14.2z"/><path d="M362.4 84.7c-14.2 20.2-27.6 39.3-29.7 42.6-20.4 31.8-33.5 67.8-39.8 109.7-3 19.2-3.2 60.4-.6 80.5 7.7 57.7 26.6 106.4 61.4 158.3 16.7 25 22.3 31.8 43 52.8 35.7 36.2 69 61 110 82.1 33.9 17.5 73.2 31.6 97.8 35.2 138.5 20.1 251.9-12.3 328.9-94 28.1-29.8 52.8-68.7 64.5-101.4l2.1-6-2.8 3.5c-14.1 17.8-19.7 24.2-30.8 35-31.6 30.7-66.9 51.9-110.9 66.5-69.3 23.1-148.5 21.7-225.8-3.9-103.8-34.4-192-110.2-240.1-206.2-26.2-52.4-37.9-104.3-36.3-159.8 1.3-44.3 10.9-83 29.6-119.9 3.3-6.4 5.9-11.7 5.7-11.7-.1 0-11.9 16.5-26.2 36.7z"/><path d="M96.4 184.2c-20.4 26-38.1 49.4-42.6 56.6-27.9 44.5-45.3 95.9-52 153.7-2 17.2-1.7 71.5.5 89.5 7.6 61.1 23.8 114.7 51.3 170 28 56 59.1 98.9 105.3 145.1 24.2 24.1 38.8 37 62.4 54.7 54.2 40.8 112.1 70.3 179.7 91.5 18.9 6 30.3 8.3 59 12.1 34.4 4.6 43.6 5.1 87.5 5.1 45.9 0 56.9-.8 91.4-6.6 32.5-5.4 74.5-17.4 102.6-29.4 51.7-21.9 96.2-51.6 136.4-91 34.7-34 61.1-68.8 82.8-109 4.9-9 15.3-30.9 15.3-32.2 0-.3-3 3.2-6.7 7.8-7.8 9.7-19.5 22.1-31.4 33.4-50.5 48.3-121 82.9-197.3 97-36.9 6.8-65.6 9-108.1 8.2-40.6-.7-65.3-3.4-105.7-11.3-51.1-10-114.9-35.4-166.3-66.2-103.5-62-185.2-153.4-230.3-257.7-20-46.1-32.3-92.9-37.8-143-2.1-19.4-2.4-65-.6-83C96.7 232.4 108 191 127 150.4c2.7-5.7 4.7-10.4 4.6-10.4-.2 0-16 19.9-35.2 44.2z"/></g></g></svg>