<svg width="200" height="200" xmlns="http://www.w3.org/2000/svg"><path fill="none" d="M-1-1h202v202H-1z"/><g><path d="M180.726 95.09c-7.906-1.459-16.134-2.42-22.815-2.68l-1.179-.043c.27-.65.474-1.09.54-1.156.145-.13.263-.679.277-1.214 0-.296.118-1.257.302-2.528 1.81.072 4.213.13 6.833.151 10.118.087 20.703.983 27.964 2.392 4.324.838 5.753.809 2.56-.044-3.232-.86-12.816-2.124-20.452-2.673-5.128-.383-12.481-.527-16.812-.448.125-.823.27-1.74.42-2.68.613-3.634.817-7.29.83-14.566.013-11.285-.54-14.392-3.89-21.855-1.363-3.049-2.903-5.635-4.766-7.976 1.626-5.267 1.586-13.424-.099-20.577-1.389-5.866-1.876-6.242-6.72-5.115-4.108.96-7.4 2.269-11.62 4.602-1.994 1.106-4.745 2.825-6.74 4.176-5.2-2.008-10.578-3.338-16.318-4.053-5.82-.722-20.084-.318-25.146.708-4.95 1.004-9.407 2.233-13.442 3.692-2.015-1.365-4.937-3.208-7.024-4.364-4.24-2.34-7.53-3.641-11.652-4.602-4.831-1.134-5.332-.751-6.714 5.115-1.711 7.247-1.725 15.541-.033 20.793.198.6.316 1.026.362 1.359-6.859 9.479-9.097 20.085-7.61 34.889.389 3.858.988 7.398 1.824 10.642-4.377-.029-10.605.145-15.1.463-7.65.556-17.234 1.806-20.466 2.666-3.186.852-1.771.881 2.56.05 7.261-1.402 17.853-2.312 27.964-2.391a211.92 211.92 0 0 0 5.226-.094c.461 1.712.988 3.345 1.587 4.898l-.046.007c-6.682.253-14.904 1.214-22.81 2.674-5.93 1.09-14.685 3.273-15.706 3.901-1.073.658-.197.513 4.397-.766 8.38-2.326 19.275-4.11 32.77-5.353l1.507-.145c2.896 7.384 7.36 13.02 13.665 17.412 3.858 2.695 10.039 5.462 13.153 5.896.855.115 3.344.679 5.53 1.242 2.191.564 6.477 1.41 9.518 1.893h.072c-.06.044-.112.073-.164.116-3.687 2.102-6.083 5.375-7.696 10.527-.724.238-1.626.563-2.6.932-3.482 1.3-4.838 1.567-8.366 1.596-3.66.03-4.53-.144-6.715-1.271-3.18-1.626-6.141-4.617-8.116-8.186-3.298-5.968-8.999-10.187-13.752-10.187-4.061 0-4.831 1.806-1.895 4.443 4.423 3.967 7.728 8.012 9.084 11.105.763 1.734 1.935 4.414 2.613 5.953.718 1.64 2.251 3.865 3.713 5.404 3.436 3.598 6.754 5.318 11.704 6.127 3.318.535 4.134.535 8.05-.014 1.89-.253 3.483-.55 4.911-.918v6.177c0 12.76-.138 16.863-.599 18.063-.869 2.283-2.817 4.63-4.713 5.686-1.89 1.054-2.475 2.218-1.679 3.287.441.578 1.29.679 4.14.477 5.412-.369 9.236-2.565 11.185-6.438.625-1.242.77-3.742.968-16.747.21-14.11.302-15.469 1.138-17.484.507-1.2 1.238-2.5 1.646-2.854.685-.621.73.607.73 17.484-.006 18.626-.177 20.873-1.875 24.456-.382.817-1.106 1.879-1.613 2.385-.889.888-1.264 3.164-.645 3.85 1.02 1.113 6.135-.635 8.926-3.048 4.753-4.133 5.319-7.55 5.358-32.23l.02-14.48 1.442.152 1.441.145.237 18.936c.27 21.321.31 21.632 3.614 25.75 1.876 2.326 3.765 3.612 6.84 4.617 4.114 1.358 5.351-.737 2.587-4.371-3.009-3.952-3.154-5.462-2.989-28.857.112-14.999.112-14.999.994-14.124 1.856 1.85 2.212 4.884 2.212 18.95 0 17.47.454 19.132 6.076 22.181 2.626 1.409 3.363 1.582 6.727 1.597 3.581.014 3.798-.044 3.93-1.07.112-.83-.329-1.394-2.001-2.514-2.192-1.481-3.713-3.374-4.667-5.758-.362-.918-.606-6.929-.77-19.305-.237-17.29-.29-18.077-1.27-20.786-1.324-3.641-3.345-6.517-5.906-8.424-.664-.477-1.33-.875-2.192-1.17a62.552 62.552 0 0 0 3.081-.398c10.348-1.51 15.818-2.767 20.21-4.631 9.287-3.923 15.567-10.44 18.97-19.681.303-.824.606-1.604.863-2.232l2.62.238c13.5 1.25 24.395 3.034 32.775 5.368 4.595 1.279 5.47 1.43 4.397.759-1-.614-9.755-2.79-15.68-3.88zm-39.588-.223c-1.534 3.7-5.813 8.453-9.269 10.317-3.41 1.85-8.755 3.259-14.81 3.93-4.141.463-27.233.6-31.045.188-12.619-1.358-19.689-4.024-24.902-9.363-4.937-5.072-7.241-11.957-6.84-20.432.257-5.303 1.422-8.634 4.47-12.68 2.771-3.685 5.687-5.96 9.124-7.116 2.876-.969 11.704-1.055 23.572-.217 5.247.368 9.585.368 14.825 0 12.415-.86 20.702-.766 23.763.274 4.812 1.633 9.196 6.026 11.83 11.878 1.184 2.615 1.415 3.728 1.586 7.767.237 5.563-.639 11.473-2.304 15.454zM78.536 70.98c-7.063-1.358-11.098 11.914-5.68 18.691 2.573 3.215 4.857 3.743 7.714 1.792 2.647-1.813 4.082-5.202 4.082-9.595 0-5.86-2.43-10.165-6.116-10.888zm42.873.795c-7.063-1.358-11.105 11.9-5.687 18.684 2.58 3.215 4.858 3.75 7.721 1.784 2.64-1.806 4.082-5.202 4.082-9.594 0-5.838-2.43-10.159-6.116-10.874zm-18.997 26.096c-.152.535-.889 1.33-1.633 1.756-1.882 1.062-3.238.694-5.226-1.293-1.231-1.221-1.791-1.864-2.166-.585-.35 1.185 1.843 3.562 3.535 4.291 1.553.68 2.666.701 4.35-.072 1.673-.766 3.134-2.825 3.134-4.162 0-1.242-1.626-1.184-1.994.065zm-2.087-4.154c1.073-1.04 1.317-3.179.29-4.313s-3.114-.961-3.93.31c-.948 1.489-.441 2.623.237 3.83 1.053.896 2.468 1.076 3.403.173z"/></g></svg>