<svg width="511.999" height="511.999" xmlns="http://www.w3.org/2000/svg">
 <g>
  <title>background</title>
  <rect x="-1" y="-1" width="513.999" height="513.999" id="canvas_background" fill="none"/>
 </g>

 <g>
  <title>Layer 1</title>
  <g id="svg_1">
   <g id="svg_2">
    <path d="m205.264,210.602c-28.366,-28.367 -87.715,-22.944 -111.917,-19.295c-7.623,1.149 -13.155,7.6 -13.155,15.339l0,17.279c0,4.142 3.358,7.5 7.5,7.5c4.142,0 7.5,-3.358 7.5,-7.5l0,-17.28c0,-0.255 0.168,-0.473 0.392,-0.507c9.666,-1.457 28.851,-3.705 48.725,-2.38c23.388,1.557 40.327,7.428 50.349,17.45c2.929,2.929 7.678,2.929 10.606,0c2.929,-2.929 2.929,-7.679 0,-10.606z" id="svg_3" fill="#2793e8"/>
   </g>
  </g>
  <g id="svg_4">
   <g id="svg_5">
    <path d="m262.601,393.638l-46.145,-16.78c0.157,-2.063 -0.539,-4.161 -2.044,-5.742l-13.971,-14.678l0,-24.64c1.477,-1.217 2.933,-2.467 4.344,-3.789c17.625,-16.521 27.733,-39.844 27.733,-63.991l0,-19.678c5.322,-11.581 8.019,-23.837 8.019,-36.457l0,-80.192c0,-4.142 -3.358,-7.5 -7.5,-7.5l-112.268,0c-39.51,0 -71.653,32.144 -71.653,71.654l0,16.038c0,12.62 2.697,24.876 8.019,36.457l0,16.931c0,28.036 12.466,53.294 32.077,69.946l0,25.219l-13.972,14.68c-1.505,1.581 -2.201,3.679 -2.044,5.742l-46.145,16.78c-15.582,5.665 -26.051,20.612 -26.051,37.193l0,57.725c0,4.142 3.358,7.5 7.5,7.5s7.5,-3.358 7.5,-7.5l0,-57.725c0,-10.296 6.501,-19.579 16.178,-23.097l48.652,-17.692l20.254,30.382c2.589,3.883 6.738,6.375 11.384,6.834c0.517,0.051 1.033,0.077 1.546,0.077c4.098,0 8.023,-1.613 10.957,-4.546l12.357,-12.357l0,78.124c0,4.142 3.358,7.5 7.5,7.5c4.142,0 7.5,-3.358 7.5,-7.5l0,-78.124l12.357,12.357c2.933,2.934 6.858,4.546 10.957,4.546c0.513,0 1.029,-0.025 1.546,-0.077c4.646,-0.459 8.794,-2.951 11.384,-6.835l20.254,-30.381l48.652,17.692c9.676,3.519 16.178,12.801 16.178,23.097l0,57.725c0,4.142 3.358,7.5 7.5,7.5c4.142,0 7.5,-3.358 7.5,-7.5l0,-57.725c-0.004,-16.581 -10.473,-31.528 -26.055,-37.193zm-190.467,-132.367l0,-18.608c0,-1.129 -0.255,-2.244 -0.746,-3.261c-4.826,-9.994 -7.273,-20.599 -7.273,-31.518l0,-16.038c0,-31.239 25.415,-56.654 56.653,-56.654l104.769,0l0,72.692c0,10.919 -2.447,21.524 -7.273,31.518c-0.491,1.017 -0.746,2.132 -0.746,3.261l0,21.355c0,20.311 -8.165,39.15 -22.991,53.047c-14.814,13.885 -34.185,20.806 -54.555,19.488c-38.04,-2.462 -67.838,-35.53 -67.838,-75.282zm42.229,150.911c-0.052,0.052 -0.172,0.17 -0.418,0.149c-0.245,-0.024 -0.34,-0.167 -0.381,-0.229l-23.325,-34.988l7.506,-7.887l35.385,24.187l-18.767,18.768zm30.463,-28.942l-40.615,-27.762l0,-14c10.51,5.681 22.277,9.234 34.792,10.044c1.976,0.128 3.941,0.191 5.899,0.191c14.341,0 28.143,-3.428 40.539,-9.935l0,13.7l-40.615,27.762zm31.263,28.864c-0.041,0.062 -0.136,0.205 -0.381,0.229c-0.245,0.021 -0.366,-0.098 -0.418,-0.149l-18.767,-18.767l35.385,-24.187l7.506,7.887l-23.325,34.987z" id="svg_6" fill="#2793e8"/>
   </g>
  </g>
  <g id="svg_7">
   <g id="svg_8">
    <path d="m53.615,448.979c-4.142,0 -7.5,3.358 -7.5,7.5l0,32.077c0,4.142 3.358,7.5 7.5,7.5c4.142,0 7.5,-3.358 7.5,-7.5l0,-32.077c0,-4.143 -3.358,-7.5 -7.5,-7.5z" id="svg_9" fill="#2793e8"/>
   </g>
  </g>
  <g id="svg_10">
   <g id="svg_11">
    <path d="m232.037,448.979c-4.142,0 -7.5,3.358 -7.5,7.5l0,32.077c0,4.142 3.358,7.5 7.5,7.5c4.142,0 7.5,-3.358 7.5,-7.5l0,-32.077c0,-4.143 -3.358,-7.5 -7.5,-7.5z" id="svg_12" fill="#2793e8"/>
   </g>
  </g>
  <g id="svg_13">
   <g id="svg_14">
    <path d="m480.442,64.059l-40.095,0c-4.142,0 -7.5,3.358 -7.5,7.5c0,4.142 3.358,7.5 7.5,7.5l40.095,0c9.13,0 16.558,7.428 16.558,16.558l0,128.307c0,9.13 -7.428,16.558 -16.558,16.558l-80.192,0c-1.585,0 -3.129,0.502 -4.411,1.435l-71.518,52.012l11.032,-44.128c0.561,-2.24 0.057,-4.614 -1.364,-6.435s-3.602,-2.884 -5.912,-2.884l-24.058,0c-9.13,0 -16.558,-7.428 -16.558,-16.558l0,-128.309c0,-9.13 7.428,-16.558 16.558,-16.558l40.096,0c4.142,0 7.5,-3.358 7.5,-7.5c0,-4.142 -3.358,-7.5 -7.5,-7.5l-40.096,0c-17.401,0 -31.558,14.157 -31.558,31.558l0,128.307c0,17.401 14.157,31.558 31.558,31.558l14.452,0l-11.033,44.129c-1.188,4.752 0.669,9.593 4.73,12.333c1.972,1.33 4.208,1.993 6.441,1.993c2.366,0 4.728,-0.744 6.765,-2.226l77.314,-56.228l77.753,0c17.401,0 31.558,-14.157 31.558,-31.558l0,-128.308c0.001,-17.401 -14.156,-31.556 -31.557,-31.556z" id="svg_15" fill="#2793e8"/>
   </g>
  </g>
  <g id="svg_16">
   <g id="svg_17">
    <path d="m413.735,18.307c-1.417,-1.509 -3.396,-2.365 -5.466,-2.365l-32.077,0c-2.07,0 -4.049,0.856 -5.466,2.365c-1.417,1.509 -2.148,3.537 -2.019,5.603l8.02,128.307c0.247,3.953 3.525,7.032 7.485,7.032l16.038,0c3.96,0 7.238,-3.08 7.485,-7.032l8.019,-128.307c0.129,-2.066 -0.602,-4.093 -2.019,-5.603zm-20.531,125.943l-1.946,0l-7.082,-113.307l16.11,0l-7.082,113.307z" id="svg_18" fill="#cc181e"/>
   </g>
  </g>
  <g id="svg_19">
   <g id="svg_20">
    <path d="m392.231,168.307c-12.979,0 -23.539,10.56 -23.539,23.539s10.56,23.538 23.539,23.538s23.538,-10.559 23.538,-23.538s-10.559,-23.539 -23.538,-23.539zm0,32.078c-4.708,0 -8.539,-3.83 -8.539,-8.538s3.831,-8.539 8.539,-8.539s8.538,3.831 8.538,8.539s-3.83,8.538 -8.538,8.538z" id="svg_21" fill="#cc181e"/>
   </g>
  </g>
  <g id="svg_22"/>
  <g id="svg_23"/>
  <g id="svg_24"/>
  <g id="svg_25"/>
  <g id="svg_26"/>
  <g id="svg_27"/>
  <g id="svg_28"/>
  <g id="svg_29"/>
  <g id="svg_30"/>
  <g id="svg_31"/>
  <g id="svg_32"/>
  <g id="svg_33"/>
  <g id="svg_34"/>
  <g id="svg_35"/>
  <g id="svg_36"/>
 </g>
</svg>