<svg width="512" height="512" xmlns="http://www.w3.org/2000/svg">

 <g>
  <title>background</title>
  <rect fill="none" id="canvas_background" height="402" width="582" y="-1" x="-1"/>
 </g>
 <g>
  <title>Layer 1</title>
  <g id="svg_1">
   <g id="svg_2">
    <path fill="#cc181e" id="svg_3" d="m403.344,378.656c2.422,0 4.812,0.422 7.094,1.219l14.219,5.031l0,-96.906l-202.657,0l0,-75.578l-14.219,5.023c-2.289,0.812 -4.68,1.219 -7.117,1.219c-11.758,0 -21.328,-9.57 -21.328,-21.328c0,-11.766 9.57,-21.336 21.328,-21.336c2.438,0 4.828,0.406 7.117,1.219l14.219,5.031l0,-96.914l-102.25,0l5.031,14.219c0.812,2.289 1.219,4.68 1.219,7.109c0,11.766 -9.57,21.336 -21.336,21.336c-11.758,0 -21.328,-9.57 -21.328,-21.336c0,-2.43 0.406,-4.82 1.219,-7.109l5.023,-14.219l-91.578,0l0,202.664l0,21.344l0,75.562l14.219,-5.031c2.289,-0.797 4.68,-1.219 7.117,-1.219c11.758,0 21.328,9.578 21.328,21.344s-9.57,21.344 -21.328,21.344c-2.438,0 -4.828,-0.422 -7.117,-1.219l-14.219,-5.031l0,96.906l202.664,0l21.336,0l202.656,0l0,-96.906l-14.219,5.031c-2.281,0.797 -4.672,1.219 -7.094,1.219c-11.781,0 -21.343,-9.578 -21.343,-21.344s9.562,-21.344 21.344,-21.344zm-384.008,-271.992l42.664,0c0,23.531 19.141,42.672 42.664,42.672c23.531,0 42.672,-19.141 42.672,-42.672l53.328,0l0,48c-23.523,0 -42.664,19.141 -42.664,42.672c0,23.523 19.141,42.664 42.664,42.664l0,48l-75.578,0l5.031,14.219c0.805,2.281 1.219,4.688 1.219,7.125c0,11.75 -9.57,21.312 -21.336,21.312s-21.336,-9.562 -21.336,-21.312c0,-2.438 0.414,-4.844 1.219,-7.125l5.031,-14.219l-75.578,0l0,-181.336zm195.555,313.461l-14.227,-5.031l0,75.562l-181.328,0l0,-48c23.523,0 42.664,-19.125 42.664,-42.656s-19.141,-42.656 -42.664,-42.656l0,-48l24.883,0l23.117,0c0,23.515 19.141,42.656 42.664,42.656s42.664,-19.141 42.664,-42.656l48,0l0,75.562l14.227,-5.031c2.281,-0.797 4.68,-1.219 7.109,-1.219c11.766,0 21.336,9.578 21.336,21.344s-9.57,21.344 -21.336,21.344c-2.43,0 -4.828,-0.422 -7.109,-1.219zm188.453,22.531l0,48l-181.344,0l0,-48c23.523,0 42.664,-19.125 42.664,-42.656s-19.141,-42.656 -42.664,-42.656l0,-48l181.344,0l0,48c-23.531,0 -42.688,19.125 -42.688,42.656s19.156,42.656 42.688,42.656z"/>
   </g>
  </g>
  <g id="svg_4">
   <g id="svg_5">
    <path fill="#606060" id="svg_6" d="m490.656,90.664c2.438,0 4.844,0.414 7.125,1.219l14.219,5.031l0,-96.914l-224,0l0,69.336c-23.523,0 -42.664,19.141 -42.664,42.664s19.141,42.664 42.664,42.664l0,69.336l69.344,0c0,23.523 19.125,42.664 42.656,42.664s42.656,-19.141 42.656,-42.664l69.344,0l0,-96.914l-14.219,5.031c-2.281,0.805 -4.688,1.219 -7.125,1.219c-11.75,0 -21.312,-9.57 -21.312,-21.336s9.562,-21.336 21.312,-21.336zm0,64l0,48l-75.562,0l5.031,14.227c0.797,2.281 1.219,4.68 1.219,7.109c0,11.766 -9.578,21.336 -21.344,21.336s-21.344,-9.57 -21.344,-21.336c0,-2.43 0.422,-4.828 1.219,-7.109l5.031,-14.227l-75.562,0l0,-75.578l-14.234,5.031c-2.281,0.805 -4.672,1.219 -7.109,1.219c-11.766,0 -21.336,-9.57 -21.336,-21.336s9.57,-21.336 21.336,-21.336c2.438,0 4.828,0.414 7.109,1.219l14.234,5.031l0,-75.578l181.312,0l0,48c-23.515,0 -42.656,19.141 -42.656,42.664s19.141,42.664 42.656,42.664z"/>
   </g>
  </g>
  <g id="svg_7"/>
  <g id="svg_8"/>
  <g id="svg_9"/>
  <g id="svg_10"/>
  <g id="svg_11"/>
  <g id="svg_12"/>
  <g id="svg_13"/>
  <g id="svg_14"/>
  <g id="svg_15"/>
  <g id="svg_16"/>
  <g id="svg_17"/>
  <g id="svg_18"/>
  <g id="svg_19"/>
  <g id="svg_20"/>
  <g id="svg_21"/>
 </g>
</svg>