<svg width="512" height="512" xmlns="http://www.w3.org/2000/svg">
 <g>
  <title>background</title>
  <rect x="-1" y="-1" width="514" height="514" id="canvas_background" fill="none"/>
 </g>

 <g>
  <title>Layer 1</title>
  <g id="svg_1">
   <g id="svg_2">
    <g id="svg_3">
     <path d="m349.867,392.533c4.71,0 8.533,-3.823 8.533,-8.533l0,-8.533l8.533,0c4.71,0 8.533,-3.823 8.533,-8.533s-3.823,-8.533 -8.533,-8.533l-8.533,0l0,-8.533c0,-4.71 -3.823,-8.533 -8.533,-8.533s-8.533,3.823 -8.533,8.533l0,8.533l-8.534,0c-4.71,0 -8.533,3.823 -8.533,8.533s3.823,8.533 8.533,8.533l8.533,0l0,8.533c0,4.71 3.823,8.533 8.534,8.533z" id="svg_4" fill="#cc181e"/>
     <path d="m469.333,59.733c0,4.71 3.823,8.533 8.533,8.533s8.533,-3.823 8.533,-8.533c4.71,0 8.533,-3.823 8.533,-8.533s-3.823,-8.533 -8.533,-8.533c0,-4.71 -3.823,-8.533 -8.533,-8.533s-8.533,3.823 -8.533,8.533c-4.71,0 -8.533,3.823 -8.533,8.533s3.823,8.533 8.533,8.533z" id="svg_5" fill="#cc181e"/>
     <path d="m256,102.4c-65.877,0 -119.467,53.589 -119.467,119.467c0,4.71 3.823,8.533 8.533,8.533c4.71,0 8.533,-3.823 8.533,-8.533c0,-56.465 45.935,-102.4 102.4,-102.4s102.4,45.935 102.4,102.4c0,4.71 3.823,8.533 8.533,8.533s8.533,-3.823 8.533,-8.533c0.002,-65.878 -53.588,-119.467 -119.465,-119.467z" id="svg_6" fill="#cc181e"/>
     <path d="m332.8,25.6c0,4.71 3.823,8.533 8.533,8.533s8.533,-3.823 8.533,-8.533c4.71,0 8.533,-3.823 8.533,-8.533s-3.823,-8.533 -8.533,-8.533c0,-4.71 -3.823,-8.533 -8.533,-8.533s-8.533,3.822 -8.533,8.532c-4.71,0 -8.533,3.823 -8.533,8.533s3.823,8.534 8.533,8.534z" id="svg_7" fill="#cc181e"/>
     <path d="m76.8,230.4c4.71,0 8.533,-3.823 8.533,-8.533c0,-94.106 76.561,-170.667 170.667,-170.667s170.667,76.561 170.667,170.667c0,4.71 3.823,8.533 8.533,8.533s8.533,-3.823 8.533,-8.533c0,-103.518 -84.215,-187.733 -187.733,-187.733s-187.733,84.215 -187.733,187.733c0,4.71 3.823,8.533 8.533,8.533z" id="svg_8" fill="#cc181e"/>
     <path d="m177.92,299.947l-7.424,-37.086c-0.794,-3.994 -4.292,-6.861 -8.363,-6.861c-4.07,0 -7.569,2.867 -8.363,6.861l-7.424,37.086l-37.086,7.424c-3.994,0.794 -6.861,4.292 -6.861,8.363c0,4.07 2.867,7.569 6.861,8.363l37.086,7.424l7.424,37.086c0.794,3.994 4.292,6.861 8.363,6.861c4.07,0 7.569,-2.867 8.363,-6.861l7.424,-37.086l37.086,-7.424c3.994,-0.794 6.861,-4.292 6.861,-8.363c0,-4.07 -2.867,-7.569 -6.861,-8.363l-37.086,-7.424zm-8.926,15.957c-3.379,0.674 -6.016,3.311 -6.69,6.69l-0.171,0.828l-0.171,-0.828c-0.674,-3.379 -3.311,-6.016 -6.69,-6.69l-0.828,-0.171l0.828,-0.171c3.379,-0.674 6.016,-3.311 6.69,-6.69l0.171,-0.828l0.171,0.828c0.674,3.379 3.311,6.016 6.69,6.69l0.828,0.171l-0.828,0.171z" id="svg_9" fill="#cc181e"/>
     <path d="m503.467,128c-4.71,0 -8.533,3.823 -8.533,8.533l0,332.8c0,14.114 -11.486,25.6 -25.6,25.6l-204.8,0l0,-19.635c12.442,-4.352 44.843,-14.498 76.8,-14.498c74.325,0 124.8,16.461 125.312,16.631c2.586,0.862 5.453,0.418 7.68,-1.178c2.219,-1.604 3.541,-4.181 3.541,-6.921l0,-375.465c0,-3.413 -2.031,-6.502 -5.171,-7.842c-0.759,-0.324 -18.91,-7.962 -54.349,-10.914c-4.753,-0.435 -8.815,3.098 -9.207,7.791c-0.393,4.702 3.098,8.823 7.791,9.216c21.982,1.826 36.668,5.572 43.87,7.808l0,358.067c-19.337,-5.069 -62.276,-14.259 -119.467,-14.259c-37.18,0 -73.702,12.211 -85.001,16.35c-10.044,-4.437 -40.405,-16.35 -77.133,-16.35c-58.778,0 -107.204,9.694 -128,14.618l0,-357.889c7.987,-1.971 23.287,-5.436 43.409,-8.533c4.659,-0.717 7.859,-5.069 7.142,-9.728c-0.725,-4.659 -5.12,-7.876 -9.728,-7.134c-31.274,4.804 -50.884,10.359 -51.703,10.598c-3.661,1.041 -6.187,4.395 -6.187,8.201l0,375.467c0,2.671 1.254,5.197 3.388,6.81c1.502,1.135 3.311,1.724 5.146,1.724c0.785,0 1.57,-0.111 2.338,-0.333c0.589,-0.162 59.597,-16.734 134.195,-16.734c31.198,0 57.856,9.711 68.267,14.071l0,20.062l-204.8,0c-14.114,0 -25.6,-11.486 -25.6,-25.6l0,-332.8c0,-4.71 -3.823,-8.533 -8.533,-8.533s-8.534,3.822 -8.534,8.532l0,332.8c0,23.527 19.14,42.667 42.667,42.667l426.667,0c23.526,0 42.666,-19.14 42.666,-42.667l0,-332.8c0,-4.71 -3.823,-8.533 -8.533,-8.533z" id="svg_10" fill="#cc181e"/>
     <path d="m76.8,34.133l8.533,0l0,8.533c0,4.71 3.823,8.533 8.533,8.533c4.71,0 8.533,-3.823 8.533,-8.533l0,-8.533l8.533,0c4.71,0 8.533,-3.823 8.533,-8.533c0,-4.71 -3.823,-8.533 -8.533,-8.533l-8.532,0l0,-8.534c0,-4.71 -3.823,-8.533 -8.533,-8.533c-4.71,0 -8.533,3.823 -8.533,8.533l0,8.533l-8.534,0c-4.71,0 -8.533,3.823 -8.533,8.533c0,4.711 3.823,8.534 8.533,8.534z" id="svg_11" fill="#cc181e"/>
     <path d="m247.467,145.067l0,290.133c0,4.71 3.823,8.533 8.533,8.533s8.533,-3.823 8.533,-8.533l0,-290.133c0,-4.71 -3.823,-8.533 -8.533,-8.533s-8.533,3.822 -8.533,8.533z" id="svg_12" fill="#cc181e"/>
     <path d="m401.067,230.4c4.71,0 8.533,-3.823 8.533,-8.533c0,-84.693 -68.907,-153.6 -153.6,-153.6s-153.6,68.907 -153.6,153.6c0,4.71 3.823,8.533 8.533,8.533s8.533,-3.823 8.533,-8.533c0,-75.281 61.252,-136.533 136.533,-136.533s136.533,61.252 136.533,136.533c0.001,4.71 3.824,8.533 8.535,8.533z" id="svg_13" fill="#cc181e"/>
    </g>
   </g>
  </g>
  <g id="svg_14"/>
  <g id="svg_15"/>
  <g id="svg_16"/>
  <g id="svg_17"/>
  <g id="svg_18"/>
  <g id="svg_19"/>
  <g id="svg_20"/>
  <g id="svg_21"/>
  <g id="svg_22"/>
  <g id="svg_23"/>
  <g id="svg_24"/>
  <g id="svg_25"/>
  <g id="svg_26"/>
  <g id="svg_27"/>
  <g id="svg_28"/>
 </g>
</svg>