<svg width="479.264" height="479.264" xmlns="http://www.w3.org/2000/svg">

 <g>
  <title>background</title>
  <rect fill="none" id="canvas_background" height="402" width="582" y="-1" x="-1"/>
 </g>
 <g>
  <title>Layer 1</title>
  <path fill="#cc181e" id="svg_1" d="m479.264,194.077l-237.589,-67.274l-2.043,-0.579l-239.632,67.853l88.354,34.071l0,32.653c-7.648,3.007 -13.084,10.447 -13.084,19.149s5.436,16.142 13.084,19.149l0,53.942l15,0l0,-53.942c7.648,-3.007 13.084,-10.447 13.084,-19.149s-5.436,-16.142 -13.084,-19.149l0,-26.869l18.142,6.996l0,56.496l2.764,2.251c34.124,27.794 74.113,41.69 114.102,41.69c39.989,0 79.979,-13.896 114.103,-41.69l2.764,-2.251l0,-55.516l124.035,-47.831zm-383.41,91.457c-3.079,0 -5.584,-2.505 -5.584,-5.584s2.505,-5.584 5.584,-5.584s5.584,2.505 5.584,5.584s-2.505,5.584 -5.584,5.584zm143.778,-143.721l192.282,54.445l-192.282,74.15l-114.067,-43.988l115.584,-23.905l-3.037,-14.689l-138.401,28.624l-52.361,-20.192l192.282,-54.445zm100.595,148.438c-61.351,48.03 -142.379,48.032 -203.731,0l0,-43.539l103.137,39.772l100.595,-38.792l0,42.559l-0.001,0z"/>
  <g id="svg_2"/>
  <g id="svg_3"/>
  <g id="svg_4"/>
  <g id="svg_5"/>
  <g id="svg_6"/>
  <g id="svg_7"/>
  <g id="svg_8"/>
  <g id="svg_9"/>
  <g id="svg_10"/>
  <g id="svg_11"/>
  <g id="svg_12"/>
  <g id="svg_13"/>
  <g id="svg_14"/>
  <g id="svg_15"/>
  <g id="svg_16"/>
 </g>
</svg>