<svg width="512" height="512" xmlns="http://www.w3.org/2000/svg"><path fill="none" d="M-1-1h514v514H-1z"/><g><g stroke="#cc181e"><path d="M21.957 119.479c0-26.506 24.42-47.994 54.542-47.994H443.416c14.465 0 28.338 5.056 38.567 14.057 10.228 9 15.974 21.208 15.974 33.937v191.975c0 26.506-24.419 47.994-54.541 47.994H220.29L64.832 481.485l36.459-122.037H76.499c-30.122 0-54.542-21.488-54.542-47.994V119.48z" stroke-width="21" fill="none"/><path d="M408.867 271.108l-39.892-78.023c-12.028-23.516-31.7-62.013-43.727-85.533L285.36 29.533c-12.04-23.53-31.712-23.53-43.735 0l-39.88 78.019c-12.028 23.52-31.712 62.026-43.735 85.533l-39.884 78.023c-12.027 23.539-2.183 42.778 21.867 42.778h246.982c24.075 0 33.907-19.24 21.892-42.778zm-133.984 12.079h-23.66v-25.654h23.66v25.654zm-1.14-44.557h-21.36l-2.122-109.764h25.416l-1.934 109.764z" stroke-width="1.5" fill="#cc181e"/></g></g></svg>