<svg width="57" height="57" xmlns="http://www.w3.org/2000/svg"><path fill="none" d="M-1-1h59v59H-1z"/><g><g fill="#2793e8"><path d="M22.66 0H3.34A3.343 3.343 0 0 0 0 3.34v19.32A3.343 3.343 0 0 0 3.34 26h19.32A3.343 3.343 0 0 0 26 22.66V3.34A3.343 3.343 0 0 0 22.66 0zM33.34 26h19.32A3.343 3.343 0 0 0 56 22.66V3.34A3.343 3.343 0 0 0 52.66 0H33.34A3.343 3.343 0 0 0 30 3.34v19.32A3.343 3.343 0 0 0 33.34 26zM22.66 30H3.34A3.343 3.343 0 0 0 0 33.34v19.32A3.343 3.343 0 0 0 3.34 56h19.32A3.343 3.343 0 0 0 26 52.66V33.34A3.343 3.343 0 0 0 22.66 30zM55 41H45V31a2 2 0 0 0-4 0v10H31a2 2 0 0 0 0 4h10v10a2 2 0 0 0 4 0V45h10a2 2 0 0 0 0-4z"/></g></g></svg>