<svg width="573" height="513" xmlns="http://www.w3.org/2000/svg"><path fill="none" d="M-1-1h302v302H-1z"/><g><g fill="#63dbf9"><path d="M387 6.5C360.3 11.4 324.7 32 294.7 60l-7.6 7.1-11-9.6c-52-44.9-99.6-61.7-129.5-45.7-6.4 3.4-15 12.1-19.5 19.5-14 23.6-16.5 68.1-6.4 115.2 1.4 6.6 2.6 12.6 2.7 13.3 0 .7-6.2 3.3-15.9 6.6-36.8 12.4-61.2 26.1-80.1 45-10.8 10.8-16.1 18.9-19.6 29.9-2.7 8.5-2.1 22.6 1.5 31.3 8.9 22 33.4 43.7 68.3 60.4 10.4 5 33.5 13.9 41.2 16 2.3.6 4.2 1.6 4.2 2.3 0 .7-1.1 6.4-2.4 12.7C107 428.1 116 479 144 497c8.2 5.3 15.9 7.3 28.5 7.4 30.1.2 65.2-16.9 104.6-51l10.6-9.2 7.7 6.9c61.5 55.3 117.6 69.2 144.6 35.7 13-16.1 19-38.6 19-71.3 0-18.6-1.7-34.8-5.5-53.7-1.4-6.7-2.3-12.3-2.1-12.5.2-.3 5.7-2.2 12.1-4.4 52.4-17.9 88.7-44 100.3-72.3 1.8-4.4 2.6-8.6 3-15.2.9-16.8-5-29.6-20.8-45.4-18.7-18.8-45.8-33.9-82.5-46-7.1-2.3-13.2-4.4-13.3-4.6-.2-.1.8-6.3 2.2-13.6 5.8-29.9 7.3-59.7 4-81.5-4.1-27.9-15.6-47.4-32.9-55.8-10.9-5.4-22.1-6.6-36.5-4zm21 23.6c6.4 1.4 10.5 4.5 15 11.1 12.3 18.4 14.7 58.1 5.9 101.7-1.1 5.8-2.4 11-2.9 11.4-.4.5-7.7-.5-16.1-2.2-16.1-3.1-30-5.3-48-7.4l-10.7-1.2-11.9-16c-6.6-8.8-17.3-22.1-23.7-29.5L304 84.5l7.7-7.4c14.9-14.2 34.4-28.1 50.9-36.4 19.6-9.8 34.1-13.2 45.4-10.6zm-221.5 1.8c21 5.1 48.6 21.5 74.8 44.5l8.7 7.7-8.1 9.2c-9.7 10.9-25.6 30.7-33.9 42.1l-5.9 8.2-11.8 1.3c-16.6 1.8-35.6 4.7-50 7.6-6.7 1.4-12.4 2.5-12.7 2.5-.7 0-4.4-16.4-6-27-3-18.5-3.9-36.4-2.7-49.7 3.9-40.8 17.1-53.7 47.6-46.4zM293.6 109c3.1 3.6 10.2 12.1 15.7 19l10 12.5-16.1.3c-8.8.1-23.5.1-32.7 0l-16.6-.3 9.7-12c12.5-15.5 22.5-26.6 23.5-26.3.4.2 3.3 3.2 6.5 6.8zm43 57.8c4 2.1 29.5 43.7 44.1 71.8l8.5 16.4-8.5 16.2c-10.6 20.4-21.3 39.1-33.2 57.8l-9.2 14.5-7.9.8c-10.5 1-73.4 1.2-85.5.2l-9.6-.7-10-15.7c-11.7-18.2-23.1-37.8-33.6-58l-7.5-14.4 3.2-6.6c9.8-20.4 28.3-52.7 41.8-73.1l6.3-9.5 9.5-.6c16.4-1.1 89.3-.4 91.6.9zm-132.9 3.9c-.2.5-4.5 7.5-9.5 15.8-5 8.2-12.2 20.7-16 27.8l-6.9 12.7-5.5-14.2c-6.2-16-12.2-33.7-11.6-34.3 1.1-1.1 41-8.2 47.6-8.4 1.3-.1 2.1.2 1.9.6zm177.8.8c5.5.8 16.2 2.7 23.8 4.1 11.9 2.3 13.7 2.9 13.7 4.5 0 3.5-16.1 45.9-17.4 45.9-.2 0-2.8-4.4-5.7-9.8-4.5-8.4-21.5-37.4-25.7-44-1.8-2.7-2-2.7 11.3-.7zm-247 25.5c3.9 11.8 15.1 40.5 20.3 51.9l2.9 6.4-3.2 7.1c-5.9 13-13.7 32.9-19.2 48.6-6.3 18.2-4.1 17.3-23.3 10.3-16.5-5.9-36.2-15.5-48-23.4-11.4-7.5-26.4-22.2-30.5-29.9-2.5-4.7-3-6.6-3-13 0-9.8 2.5-14.9 12.2-25.1 9.7-10.2 21.6-18.4 38.8-27 13.9-7 47.4-19.4 48.6-18.1.4.4 2.3 5.9 4.4 12.2zm321.1-8.4c32.5 10.7 57.5 24.5 73.4 40.4 10 10 13.2 15.8 13.8 24.8.4 5.5.1 7.1-2.9 13-6.9 14-27 30.2-53.3 42.7-10.8 5.2-30.2 12.9-40.3 15.9-1.9.6-2.4-.1-4.8-7.6-4.2-12.5-12.5-33.7-19.4-49.1l-6.2-13.8 6.5-15.4c7.8-18 10.5-25 15.7-40.5 2.2-6.3 4.1-12.1 4.4-12.8.6-1.7.9-1.6 13.1 2.4zm-278 106.1c6.3 12 20.1 35.4 24.7 42.2l3 4.4-6.9-.7c-8.1-.9-33.8-5.1-40.6-6.7l-4.7-1.1 4-11.6c4.4-12.7 13.9-37.2 14.4-37.2.2 0 2.9 4.8 6.1 10.7zM403 284.3c0 .2 2.3 5.9 5.1 12.8 2.8 6.8 6.8 17.4 8.9 23.6 3.5 10 3.7 11.3 2.2 11.7-5.8 1.7-49.3 8.8-50 8.2-.1-.2 3.5-6.6 8.2-14.2 4.6-7.6 11.8-20.3 16.1-28.2 4.3-7.8 8.2-14.2 8.6-14.2.5 0 .9.1.9.3zm27.5 84.8c3.8 20 4.8 31.4 4.2 51.8-.4 14.4-1 20.5-2.6 27-3.9 15.3-10.5 26.1-18.4 30.4-3.6 1.8-5.7 2.2-14.2 2.1-8.6 0-11.4-.5-19.5-3.3-16.7-5.7-37.8-18-55.2-32.3-10.8-8.9-19.8-17.1-19.8-18.1 0-.5 2.8-4.1 6.3-8.1 10.4-11.8 21.7-26.2 38.5-49.4 1.6-2.1 3.2-2.5 18.6-4.3 15.8-1.8 38.4-5.4 52.1-8.3 3.3-.7 6.3-1 6.8-.6.4.3 1.8 6.2 3.2 13.1zm-241-5.7c10.5 1.4 22.2 2.8 26.1 3.1l7.1.7 5.8 8.1c8.5 11.7 24.4 31.5 33.6 41.8 4.3 4.8 7.9 9.2 7.9 9.8 0 1.4-20.4 18.7-30.9 26.2-30.9 21.9-61.7 32-78.3 25.6-16.2-6.2-24.9-35.5-22-73.4 1.1-13.7 4.7-36.5 7.2-45.4l1-3.6 11.8 2.3c6.4 1.3 20.3 3.4 30.7 4.8zm129.7 7c-.5.6-3.8 4.9-7.3 9.6-3.5 4.7-10.4 13.2-15.3 18.9l-9 10.4-5.1-5.5c-6-6.4-21-24.4-25.4-30.4l-3.1-4.1h33c24.3 0 32.8.2 32.2 1.1z"/><path d="M274 205.6c-9 2.4-16.1 6.5-23 13.4-19.6 19.6-20 49-1 69.4 9.6 10.2 22 15.6 35.9 15.6 14.2 0 25.8-4.8 35.5-14.6 20-20 19.6-52.1-1-71.4-12.9-12-30.4-16.7-46.4-12.4z"/></g></g></svg>