<svg width="512" height="512" xmlns="http://www.w3.org/2000/svg"><path fill="none" d="M-1-1h582v402H-1z"/><g><path fill="#cf4547" d="M228.5 22.2c-33.8 3.8-72.9 18.2-102 37.6-57 38-93.6 96.1-103.7 164.7-2 13.6-1.7 51.2.5 65.5C33.6 356.5 70.4 414.5 126 451.6c28.7 19.1 62.3 32 96.6 37.1 16.4 2.4 50.4 2.4 66.8 0 41.1-6.1 81.5-23.7 113.6-49.4 45.9-36.8 76.4-89.7 85.7-148.5 2.5-15.9 2.5-53.7 0-69.6-8.3-52.4-32.9-99.5-70.8-135.6-37-35.2-86.1-58.1-136.1-63.5-11.4-1.3-41.9-1.2-53.3.1zM318 83c0 .5.6 1 1.3 1 .7 0 2.5 1.1 4 2.6l2.7 2.5-4.1 4.9c-2.3 2.7-4.4 5-4.8 5.2-.3.2-4.8 5-10 10.8-5.2 5.8-11.4 12.6-13.7 15.3-3.1 3.3-4.8 6.5-5.9 10.5-.9 3.1-2.9 10.1-4.4 15.4-2.8 9.7-2.8 9.8-.7 9.8 4.2 0 26.2 2 33.1 3 9.6 1.4 17.5 4 17.5 5.7 0 5.9-40.1 12.3-77.5 12.3-37.5 0-76.5-6.6-76.5-12.9 0-1.1 8.9-3.7 17-5 11.6-1.9 30.1-3.1 49.7-3.1h19.2l1.6-5.8c1.9-6.8 2.8-10 5.5-21 1.1-4.6 2.6-9 3.3-9.9.6-.9 6.4-7 12.8-13.7 6.4-6.6 15.1-15.8 19.4-20.4 7.2-7.5 10.5-9.8 10.5-7.2zm-125.5 95.6c15.7 4.2 33.1 5.8 63.5 5.8 19.6 0 31.5-.5 41.5-1.7 12.2-1.5 28.4-4.9 33.8-7.2 1.1-.5 1.7-.3 1.7.6 0 1.9-3.5 33.1-7.1 62.5-1.6 13.3-2.9 24.9-2.9 25.8 0 2.9-15.2 16.2-17.1 15-1-.6-.5-1.4 4.3-7.2 1.6-1.8 3.9-5.5 5.3-8.3 2.1-4.1 2.4-5.3 1.4-7.2-.7-1.2-1.7-2.5-2.3-2.9-3-2-10.6 0-13.5 3.6-1.7 2-3.1 2.1-3.1.2 0-.7-.7-2-1.6-2.7-1.4-1.1-1.9-1-3.5 1-1 1.3-2.4 4.1-3.1 6.3-.8 2.6-2.9 5.5-6.2 8.5-5 4.5-10.4 8.3-11.8 8.3-1.4 0-.8-3.8 1.3-8.7 1.1-2.6 3.1-7.5 4.4-10.8 1.2-3.3 4.3-11 6.9-17 4.7-11.2 5.4-15.7 2.5-16.3-2.8-.5-4.4 2.2-10.4 17.5-11 28-12.6 31.8-14.8 33.5-2.2 1.8-6.7 2.5-6.7 1 .1-2.6 2.4-10 4.6-14.7 3-6.6 2.9-9.9-.4-10.3-1.8-.3-2.5.3-3.4 2.8-2.2 6.3-8.1 16.6-11.2 19.2-1.7 1.5-4.2 2.7-5.5 2.8-2.2 0-2.3-.3-1.7-4.1.4-2.3 2-6.8 3.6-10.1 3.8-7.5 3.9-10.8.6-10.8-3 0-4.3 2.1-9 13.7-4.5 11.2-4.7 16.9-.5 19.2 3.3 1.8 8.9.4 13.3-3.4 3.7-3.2 4.4-3.1 4.8.1.5 4.4 3 5.2 8.3 2.6 4.5-2.2 4.5-2.2 6.5-.2 3.1 3.1 9.1 2.1 13.7-2.2 1.3-1.2 2.5-1.9 2.8-1.6.3.2-1.5 4.9-4 10.4-5.2 11.4-5.8 16.4-2.2 16.4 3.1 0 4.9-2.2 7.6-9.5 8.7-23 14.8-33.2 22.2-37.1 5.4-2.7 4.6.8-2 9.6-6.3 8.4-7.3 11.6-4.5 14.4 3.1 3.2 9 1.7 17-4.4 2.9-2.1 5.4-3.7 5.6-3.5.3.4-5.8 55.8-6.8 61.2-1.8 10-21 14.8-58.9 14.8-25.8 0-39.9-1.8-52.2-6.6-7.3-2.9-8.4-5.1-9.9-19.9-.7-6.9-1.7-17.2-2.3-22.9-.6-5.7-1.1-11.8-1.1-13.7 0-3.3.1-3.4 4.3-3.4s8-1.8 14.6-6.8c3.6-2.7 3.9-1.8 1.6 4.8-1.8 5-2 10.6-.4 11.6 2 1.2 4.8-3 7-10.6 1.2-4.1 3.9-12.8 6-19.2 4.3-12.7 4.8-17.5 2.3-18.5-2.8-1-4.8 1.1-6.5 7.1-2 6.7-5.2 11.3-12.3 17.9-8.8 8.2-12.6 7.5-12.6-2.4 0-13.2 12.5-36.4 22.4-41.6 4-2.1 7.2-.9 10.1 3.7 3 4.8 6.1 5.3 7.1 1.3 1.5-5.8-6.1-13.3-13.5-13.3-10.2 0-23.9 13.8-30.4 30.9-2.7 7-3 6-5.1-16.9-.9-10.2-2.6-27.5-3.7-38.6-1-11-1.9-20.4-1.9-20.8 0-.5 1-.5 2.3-.1 1.2.4 6.2 1.8 11.2 3.1zm21.4 172.9c26.3 6.1 60.2 5.8 88.1-.9 3.5-.8 6.5-1.4 6.7-1.2.2.1-1.5 3.2-3.7 6.9l-4 6.6-1 22.8c-1.3 29.5-1.4 30.8-4.8 33.1-11.7 7.9-26.4 11.7-42.2 10.9-12.9-.7-19.8-2.5-31.7-8.2l-9.3-4.4v-4.3c0-2.4-.7-14.2-1.6-26.3l-1.6-22-4.1-7c-2.2-3.9-4.4-7.2-4.9-7.3-1.9-.8-.6-2.4 1.5-1.8 1.2.4 6.9 1.8 12.6 3.1z"/></g></svg>