<!DOCTYPE svg PUBLIC "-//W3C//DTD SVG 20010904//EN"
 "http://www.w3.org/TR/2001/REC-SVG-20010904/DTD/svg10.dtd"><svg version="1" xmlns="http://www.w3.org/2000/svg" width="666.7" height="550.7" viewBox="0 0 500.000000 413.000000"><path d="M0 17.5V35h117V0H0v17.5zM0 81.5V99l58.3-.2 58.2-.3.3-17.3.2-17.2H0v17.5zM0 144.4v17.5l113.3.4c82.9.3 115.5.7 121.7 1.7 24.6 3.5 42 10.8 53.2 22.2l6.8 6.9v-9c0-10.1-2-17-7.5-25.6-11.4-17.9-31.7-27.7-62.5-30.5-6.9-.6-54.3-1-118.2-1H0v17.4zM0 208.4v17.4l126.3.5c85.6.3 129.6.8 136.7 1.6 12.6 1.4 23.6 3.5 28.5 5.5l3.5 1.5v-7.5c0-8.9-1.8-13.2-7.9-18.7-7.8-7-21-12.2-39.1-15.4-8.4-1.4-23.7-1.7-128.7-2L0 190.9v17.5zM289.7 248.2c-15.7 5.9-39.9 6.8-175.4 6.8H0v35h112.3c67.9 0 116.5-.4 123.2-1 31.4-2.9 50.9-11.1 57.6-24.2 1.5-3 1.9-5.5 1.7-11.1l-.3-7.3-4.8 1.8zM287.5 295.5C274.1 309 255.1 315.6 223 318c-7.8.6-57.5 1-118.2 1H0v35h107.8c64.9 0 111.9-.4 118.4-1 29-2.8 49.4-12.6 60.6-29.3 6.4-9.7 8.4-16.1 8-26.8l-.3-8.4-7 7zM294.5 348.8c-.3.3-.5 2.4-.5 4.6 0 6.1 3.6 10.8 11.2 14.5 13 6.4 12.4 6.4 108.1 6.8l86.7.4V353h-89c-88.3 0-103.5-.5-112.2-3.4-2-.8-4-1.1-4.3-.8zM294 378.8c0 15.8 13.1 28.6 33.2 32.7 6.6 1.3 19.8 1.5 90.3 1.5H500v-20.9l-85.2-.4c-94.8-.4-92.2-.2-106.5-7.2-3.9-1.9-8.5-5.1-10.2-7-1.7-1.9-3.3-3.5-3.6-3.5-.3 0-.5 2.2-.5 4.8z"/></svg>