<!DOCTYPE svg  PUBLIC '-//W3C//DTD SVG 1.1//EN'  'http://www.w3.org/Graphics/SVG/1.1/DTD/svg11.dtd'><svg height="500" viewBox="0 0 500 500" width="500" xmlns="http://www.w3.org/2000/svg"><path d="M412.226 87.133L88.29 412.367c41.458 40.974 98.435 66.279 161.33 66.279 126.765 0 229.526-102.765 229.526-229.527 0-63.224-25.566-120.475-66.92-161.986z" fill="#639AE3"/><path d="M249.619 19.592c-126.765 0-229.527 102.762-229.527 229.527 0 63.87 26.096 121.639 68.197 163.248L412.226 87.133c-41.561-41.719-99.067-67.541-162.607-67.541z" fill="#4E7AC1"/><circle cx="249.1" cy="248.6" fill="none" r="243.4" stroke="#639AE3" stroke-miterlimit="10" stroke-width="5"/><path d="M384 139.055c-4.041 20.417-7.518 39.018-11.423 57.528-10.962 51.951-22.077 103.868-33.185 155.788-3.004 14.044-8.102 16.007-20.086 7.892-19.162-12.976-38.447-25.777-57.357-39.105-5.195-3.661-8.256-3.136-12.587 1.16-9.328 9.25-19.265 17.887-28.902 26.826-6.885 6.387-10.748 5.919-13.746-2.929-7.256-21.404-14.224-42.919-20.704-64.57-2.163-7.229-5.561-11.418-13.009-13.869-16.469-5.416-32.578-11.93-48.811-18.062-2.446-.922-4.946-1.909-7.11-3.337-7.01-4.627-6.941-10.32.223-14.655 2.901-1.755 6.108-3.066 9.29-4.284 79.545-30.467 159.097-60.915 238.687-91.26 3.609-1.376 7.711-2.716 11.373-2.286 2.745.323 5.154 3.52 7.347 5.163zM212.623 324.104c.554.052 1.106.104 1.66.152 1.216-9.342 2.616-18.668 3.586-28.037.676-6.531 3.008-11.669 7.935-16.412 33.899-32.641 67.504-65.584 101.182-98.457.929-.907 1.572-2.106 2.35-3.169-11.352 6.207-21.91 13.09-32.475 19.968-31.721 20.658-63.454 41.297-95.153 61.992-3.162 2.063-7.33 3.504-5.669 8.928 5.611 18.32 11.067 36.687 16.584 55.035z" fill="#FFF"/></svg>