<svg width="57" height="57" xmlns="http://www.w3.org/2000/svg">
 <g>
  <title>background</title>
  <rect x="-1" y="-1" width="59" height="59" id="canvas_background" fill="none"/>
 </g>

 <g>
  <title>Layer 1</title>
  <g id="svg_1">
   <path d="m22.66,0l-19.32,0c-1.842,0 -3.34,1.498 -3.34,3.34l0,19.32c0,1.842 1.498,3.34 3.34,3.34l19.32,0c1.842,0 3.34,-1.498 3.34,-3.34l0,-19.32c0,-1.842 -1.498,-3.34 -3.34,-3.34z" id="svg_2" fill="#2793e8"/>
   <path d="m33.34,26l19.32,0c1.842,0 3.34,-1.498 3.34,-3.34l0,-19.32c0,-1.842 -1.498,-3.34 -3.34,-3.34l-19.32,0c-1.842,0 -3.34,1.498 -3.34,3.34l0,19.32c0,1.842 1.498,3.34 3.34,3.34z" id="svg_3" fill="#2793e8"/>
   <path d="m22.66,30l-19.32,0c-1.842,0 -3.34,1.498 -3.34,3.34l0,19.32c0,1.842 1.498,3.34 3.34,3.34l19.32,0c1.842,0 3.34,-1.498 3.34,-3.34l0,-19.32c0,-1.842 -1.498,-3.34 -3.34,-3.34z" id="svg_4" fill="#2793e8"/>
   <path d="m55,41l-10,0l0,-10c0,-1.104 -0.896,-2 -2,-2s-2,0.896 -2,2l0,10l-10,0c-1.104,0 -2,0.896 -2,2s0.896,2 2,2l10,0l0,10c0,1.104 0.896,2 2,2s2,-0.896 2,-2l0,-10l10,0c1.104,0 2,-0.896 2,-2s-0.896,-2 -2,-2z" id="svg_5" fill="#2793e8"/>
  </g>
  <g id="svg_6"/>
  <g id="svg_7"/>
  <g id="svg_8"/>
  <g id="svg_9"/>
  <g id="svg_10"/>
  <g id="svg_11"/>
  <g id="svg_12"/>
  <g id="svg_13"/>
  <g id="svg_14"/>
  <g id="svg_15"/>
  <g id="svg_16"/>
  <g id="svg_17"/>
  <g id="svg_18"/>
  <g id="svg_19"/>
  <g id="svg_20"/>
 </g>
</svg>