<svg width="999.9999999999999" height="962.9999999999999" xmlns="http://www.w3.org/2000/svg" preserveAspectRatio="xMidYMid meet">
 <metadata>Created by potrace 1.14, written by Peter Selinger 2001-2017</metadata>

 <g>
  <title>background</title>
  <rect fill="none" id="canvas_background" height="402" width="582" y="-1" x="-1"/>
 </g>
 <g>
  <title>Layer 1</title>
  <g id="svg_1" fill="#000000" transform="translate(0,963) scale(0.10000000149011612,-0.10000000149011612) ">
   <path fill="#1169ae" id="svg_2" d="m5860,9473c-187,-258 -231,-326 -296,-458c-276,-562 -254,-1216 62,-1814c274,-519 781,-972 1329,-1189c319,-127 546,-167 930,-167c234,1 349,14 535,60c546,136 952,468 1259,1030l33,60l-38,-45c-20,-25 -80,-88 -133,-140c-212,-211 -479,-343 -806,-401c-182,-32 -503,-32 -715,0c-457,69 -792,194 -1140,426c-546,364 -943,943 -1077,1570c-26,122 -28,145 -27,380c0,223 2,261 22,355c30,136 72,262 128,379c24,52 43,95 42,96c-2,2 -50,-63 -108,-142z"/>
   <path fill="#1169ae" id="svg_3" d="m3624,8783c-142,-202 -276,-393 -297,-426c-204,-318 -335,-678 -398,-1097c-30,-192 -32,-604 -6,-805c77,-577 266,-1064 614,-1583c167,-250 223,-318 430,-528c357,-362 690,-610 1100,-821c339,-175 732,-316 978,-352c1385,-201 2519,123 3289,940c281,298 528,687 645,1014l21,60l-28,-35c-141,-178 -197,-242 -308,-350c-316,-307 -669,-519 -1109,-665c-693,-231 -1485,-217 -2258,39c-1038,344 -1920,1102 -2401,2062c-262,524 -379,1043 -363,1598c13,443 109,830 296,1199c33,64 59,117 57,117c-1,0 -119,-165 -262,-367z"/>
   <path fill="#1169ae" id="svg_4" d="m964,7788c-204,-260 -381,-494 -426,-566c-279,-445 -453,-959 -520,-1537c-20,-172 -17,-715 5,-895c76,-611 238,-1147 513,-1700c280,-560 591,-989 1053,-1451c242,-241 388,-370 624,-547c542,-408 1121,-703 1797,-915c189,-60 303,-83 590,-121c344,-46 436,-51 875,-51c459,0 569,8 914,66c325,54 745,174 1026,294c517,219 962,516 1364,910c347,340 611,688 828,1090c49,90 153,309 153,322c0,3 -30,-32 -67,-78c-78,-97 -195,-221 -314,-334c-505,-483 -1210,-829 -1973,-970c-369,-68 -656,-90 -1081,-82c-406,7 -653,34 -1057,113c-511,100 -1149,354 -1663,662c-1035,620 -1852,1534 -2303,2577c-200,461 -323,929 -378,1430c-21,194 -24,650 -6,830c49,471 162,885 352,1291c27,57 47,104 46,104c-2,0 -160,-199 -352,-442z"/>
  </g>
 </g>
</svg>