<svg width="300" height="300" xmlns="http://www.w3.org/2000/svg" preserveAspectRatio="xMidYMid meet">
 <metadata>Created by potrace 1.14, written by Peter Selinger 2001-2017</metadata>

 <g>
  <title>background</title>
  <rect x="-1" y="-1" width="302" height="302" id="canvas_background" fill="none"/>
 </g>
 <g>
  <title>Layer 1</title>
  <g transform="translate(0,400) scale(0.10000000149011612,-0.10000000149011612) " fill="#000000" id="svg_1">
   <path d="m1374,3755c-166,-21 -328,-68 -448,-128c-359,-181 -609,-505 -694,-899c-30,-144 -30,-370 0,-514c110,-511 494,-895 1005,-1005c144,-30 370,-30 514,0c511,110 895,494 1005,1005c30,144 30,370 0,514c-110,512 -499,900 -1005,1004c-98,20 -302,32 -377,23zm321,-139c477,-83 861,-467 944,-944c19,-107 19,-295 0,-402c-83,-477 -467,-861 -944,-944c-142,-25 -131,-33 -131,98l0,113l283,144c155,79 285,148 289,154c4,6 8,41 8,78c0,61 2,69 26,84c79,52 66,173 -23,211c-71,29 -150,-18 -160,-94c-6,-47 15,-95 52,-119c21,-14 25,-24 25,-68l0,-51l-245,-123c-135,-67 -247,-122 -250,-122c-3,0 -5,46 -5,103l0,102l98,44c159,72 142,42 142,255l0,184l213,119l212,118l3,59c3,53 7,61 43,95c35,34 39,43 39,85c0,41 -5,53 -34,82c-28,28 -42,34 -75,34c-57,0 -95,-22 -116,-66c-23,-50 -13,-99 31,-140c26,-25 34,-41 34,-67l0,-35l-209,-117c-148,-83 -211,-124 -215,-139c-3,-11 -6,-96 -6,-187l0,-166l-27,-13c-16,-7 -52,-23 -80,-36l-53,-24l0,375l0,375l180,90l180,90l0,70c0,70 1,71 40,109c36,34 40,43 40,85c0,89 -69,142 -151,117c-92,-28 -112,-146 -34,-208c31,-25 35,-33 35,-76l0,-48l-142,-70l-143,-69l-3,217c-2,163 1,219 10,222c23,8 58,54 64,87c9,48 -21,104 -69,128c-33,16 -45,17 -77,7c-21,-6 -51,-26 -65,-43c-24,-28 -27,-39 -22,-82c4,-43 10,-55 41,-82l36,-31l0,-347c0,-190 -3,-346 -6,-346c-3,0 -50,23 -105,51l-99,51l0,171l0,172l-74,57c-72,56 -74,58 -70,95c10,75 -66,143 -142,128c-46,-8 -94,-65 -94,-111c0,-80 58,-131 139,-121c43,5 50,3 109,-44l62,-49l0,-174l0,-173l140,-74l140,-73l0,-128c0,-70 -3,-128 -7,-128c-5,0 -102,44 -218,98l-210,98l0,84c0,47 -4,91 -8,98c-5,7 -53,35 -108,62c-87,44 -99,53 -99,76c0,40 -30,93 -61,109c-119,62 -236,-79 -148,-179c37,-42 81,-54 130,-33c33,13 37,12 128,-32l93,-46l-5,-85c-4,-47 -3,-90 1,-96c4,-7 120,-64 257,-128l250,-115l3,-371l2,-371l-62,3l-63,3l-5,248l-5,249l-160,73c-143,66 -161,77 -166,102c-8,40 -26,69 -51,87c-29,21 -107,20 -136,0c-29,-20 -52,-65 -52,-101c0,-35 31,-88 61,-104c32,-17 94,-15 124,5c24,16 29,15 170,-50l145,-67l0,-213c0,-251 15,-233 -147,-179c-358,120 -630,389 -747,740c-56,166 -72,391 -41,566c83,474 465,858 938,944c99,18 307,18 408,0z" id="svg_2" fill="#2793e8"/>
  </g>
 </g>
</svg>