<svg width="512" height="512" xmlns="http://www.w3.org/2000/svg" preserveAspectRatio="xMidYMid meet">
 <metadata>Created by potrace 1.14, written by Peter Selinger 2001-2017</metadata>

 <g>
  <title>background</title>
  <rect fill="none" id="canvas_background" height="402" width="582" y="-1" x="-1"/>
 </g>
 <g>
  <title>Layer 1</title>
  <g id="svg_1" fill="#000000" transform="translate(0,512) scale(0.10000000149011612,-0.10000000149011612) ">
   <path fill="#ffffff" id="svg_2" d="m2360,5049c-154,-11 -357,-47 -516,-93c-902,-259 -1603,-1017 -1790,-1934c-136,-669 -8,-1355 354,-1908c255,-390 580,-686 968,-886c141,-73 341,-154 403,-164c58,-9 109,19 133,73c18,40 18,60 12,286l-7,243l-86,-14c-97,-15 -256,-9 -386,13c-105,19 -211,71 -278,139c-53,53 -67,76 -136,229c-63,139 -135,231 -232,297c-66,46 -121,106 -117,128c6,30 48,43 121,38c141,-10 288,-113 393,-274c72,-110 143,-179 230,-222c62,-31 79,-35 169,-38c103,-4 207,12 291,44c41,16 43,18 58,85c19,86 56,164 106,228l39,49l-82,11c-264,38 -452,102 -627,215c-229,148 -365,379 -431,731c-20,109 -23,389 -5,492c29,167 98,319 200,445l45,55l-20,62c-52,168 -42,372 28,574c18,50 22,52 103,48c118,-6 371,-108 543,-218l71,-46l56,11c30,6 87,18 127,27c271,58 655,58 926,0c40,-9 97,-21 127,-27l55,-10l95,58c226,137 484,230 575,206c26,-7 33,-17 53,-75c43,-125 55,-210 50,-351c-4,-95 -11,-148 -26,-195l-21,-64l44,-54c89,-109 155,-244 192,-389c22,-89 25,-417 4,-544c-32,-198 -114,-406 -210,-532c-165,-217 -464,-366 -843,-418l-87,-12l39,-49c47,-60 85,-137 106,-221c14,-52 17,-137 20,-503c5,-490 5,-489 72,-521c46,-21 83,-15 229,42c738,284 1320,932 1533,1703c141,513 111,1108 -80,1601c-172,440 -475,842 -848,1122c-405,303 -865,474 -1367,507c-175,12 -192,12 -375,0z"/>
  </g>
 </g>
</svg>