<svg width="464.585" height="464.585" xmlns="http://www.w3.org/2000/svg">
 <g>
  <title>background</title>
  <rect x="-1" y="-1" width="466.585" height="466.585" id="canvas_background" fill="none"/>
 </g>

 <g>
  <title>Layer 1</title>
  <g id="svg_1">
   <path d="m464.585,393.312l-87.463,-315.015l-75.392,20.932l8.329,29.998l-83.857,0l0,-41.781l-78.243,0l0,30.92l-42.373,0l0,-68.159l-105.586,0l0,364.17l90.586,0l15,0l42.373,0l15,0l48.243,0l15,0l98.153,0l0,-233.662l64.838,233.528l75.392,-20.931zm-301.626,-290.866l48.243,0l0,37.147l-48.243,0l0,-37.147zm0,99.364l48.243,0l0,170.575l-48.243,0l0,-170.575zm0,-15l0,-8.608l48.243,0l0,8.608l-48.243,0zm0,-23.608l0,-8.609l48.243,0l0,8.609l-48.243,0zm-72.373,206.987l-75.586,0l0,-275.99l75.586,0l0,275.99zm0,-304.982l0,13.992l-75.586,0l0,-13.992l75.586,0zm-75.586,334.171l0,-14.189l75.586,0l0,14.189l-75.586,0zm132.959,0l-42.373,0l0,-266.012l42.373,0l0,266.012zm15,0l0,-11.993l48.243,0l0,11.993l-48.243,0zm146.396,0l-83.153,0l0,-255.152l83.153,0l0,255.152zm90.279,-3.6l-52.742,-189.961l46.485,-12.907l52.742,189.961l-46.485,12.907zm-56.755,-204.414l-4.133,-14.884l46.485,-12.907l4.133,14.884l-46.485,12.907zm23.802,-94.602l14.537,52.358l-46.485,12.907l-14.537,-52.358l46.485,-12.907z" id="svg_2" fill="#2793e8"/>
   <rect x="243.621" y="160.457" width="48.315" height="15" id="svg_3" fill="#2793e8"/>
   <rect x="243.621" y="186.81" width="48.315" height="15" id="svg_4" fill="#2793e8"/>
   <rect x="243.621" y="213.164" width="48.315" height="15" id="svg_5" fill="#2793e8"/>
   <rect x="243.621" y="365.797" width="48.315" height="15" id="svg_6" fill="#2793e8"/>
   <rect x="119.272" y="272.274" width="15" height="25.255" id="svg_7" fill="#2793e8"/>
   <rect x="119.272" y="311.805" width="15" height="57.099" id="svg_8" fill="#2793e8"/>
   <rect x="119.272" y="189.919" width="15" height="68.081" id="svg_9" fill="#2793e8"/>
   <rect x="119.272" y="150.387" width="15" height="26.354" id="svg_10" fill="#2793e8"/>
  </g>
  <g id="svg_11"/>
  <g id="svg_12"/>
  <g id="svg_13"/>
  <g id="svg_14"/>
  <g id="svg_15"/>
  <g id="svg_16"/>
  <g id="svg_17"/>
  <g id="svg_18"/>
  <g id="svg_19"/>
  <g id="svg_20"/>
  <g id="svg_21"/>
  <g id="svg_22"/>
  <g id="svg_23"/>
  <g id="svg_24"/>
  <g id="svg_25"/>
 </g>
</svg>