<svg width="1600" height="1600" xmlns="http://www.w3.org/2000/svg" preserveAspectRatio="xMidYMid meet">
 <metadata>Created by potrace 1.14, written by Peter Selinger 2001-2017</metadata>

 <g>
  <title>background</title>
  <rect x="-1" y="-1" width="1602" height="1602" id="canvas_background" fill="none"/>
 </g>
 <g>
  <title>Layer 1</title>
  <g transform="translate(0,1600) scale(0.10000000149011612,-0.10000000149011612) " fill="#000000" id="svg_1">
   <path stroke-width="33" d="m12796.633957,14122.676018c-106,-22 -204,-97 -288,-219c-109,-159 -177,-297 -314,-637c-39,-96 -94,-222 -123,-280c-356,-709 -1037,-1344 -1925,-1794c-300,-153 -588,-271 -900,-370c-172,-54 -430,-124 -541,-146l-57,-11l-108,55c-713,360 -1558,282 -2190,-200l-72,-54l-107,15c-588,82 -1203,433 -1791,1020c-313,313 -413,441 -797,1014l-297,446l0,-1544l0,-1544l-49,-76c-87,-137 -169,-320 -206,-466c-10,-38 -19,-71 -20,-73c-1,-1 -51,28 -111,66c-646,410 -1352,452 -1868,111c-43,-28 -122,-93 -175,-144c-370,-356 -522,-911 -417,-1525c145,-848 756,-1668 1521,-2040c275,-134 499,-194 800,-215l100,-7l149,-111c469,-348 1047,-696 1513,-911c845,-390 1795,-684 2613,-810c407,-62 646,-80 1070,-80c456,0 736,25 1105,99c565,113 1093,316 1559,599l128,78l207,-100c510,-248 1192,-510 1736,-665c159,-46 266,-72 573,-142c21,-5 22,-9 22,-121c0,-362 124,-678 359,-911c161,-161 350,-285 666,-439c319,-156 566,-248 953,-354c119,-33 225,-63 235,-66c16,-5 17,14 17,300c0,616 -44,1213 -116,1591c-80,416 -143,563 -314,735c-204,204 -457,321 -731,337c-218,12 -450,-51 -605,-167l-50,-38l-100,75c-350,265 -906,597 -1469,878l-255,127l35,47c65,86 243,355 300,456c559,977 895,2352 1020,4170c26,387 35,629 41,1120c13,1014 -41,1831 -162,2439c-41,209 -63,263 -144,350c-70,74 -135,112 -227,131c-80,17 -119,17 -193,1zm19,-1157c53,-418 83,-1433 62,-2099c-32,-1007 -110,-1763 -262,-2530c-151,-763 -342,-1363 -599,-1885c-152,-309 -311,-563 -448,-715l-47,-52l-230,92c-178,72 -483,185 -631,235c-6,2 -14,40 -18,86c-19,207 -109,372 -313,570c-112,108 -239,206 -394,302c-107,66 -228,131 -234,125c-2,-2 15,-32 36,-68c137,-224 220,-462 222,-640c1,-69 -3,-93 -20,-125c-99,-188 -482,-318 -1163,-395c-579,-65 -1507,-85 -2370,-50c-118,5 -216,7 -218,5c-2,-2 106,-39 240,-83c868,-286 1746,-479 2407,-531c172,-14 549,-14 680,-1l100,11l253,-169c139,-92 306,-201 372,-242l118,-74l-98,-49c-978,-491 -2173,-586 -3534,-281c-796,179 -1724,524 -2350,874c-214,119 -723,437 -741,461c-2,4 23,27 56,52c78,59 206,193 270,282c71,100 159,278 200,406c51,159 76,313 82,522c5,152 8,177 21,172c8,-3 72,-17 141,-32c111,-24 149,-27 316,-27c113,0 220,5 265,13c344,60 627,190 882,407l87,73l65,-78c90,-107 225,-234 351,-329c523,-392 1214,-513 1840,-321c897,276 1507,1129 1472,2059c-17,437 -147,802 -425,1190c-13,17 -10,20 30,30c24,6 142,44 263,85c354,117 619,229 930,389c249,129 349,188 580,341c592,394 1047,847 1384,1376c96,152 226,400 301,577c29,67 54,121 56,119c2,-2 8,-37 13,-78zm-8530,-2263c61,-55 108,-103 104,-106c-5,-4 -35,-13 -68,-20c-82,-17 -221,-64 -312,-106c-42,-19 -77,-34 -79,-34c-2,0 -4,141 -4,312l0,313l124,-130c68,-72 173,-175 235,-229zm3613,-426c495,-104 899,-457 1067,-933c57,-162 74,-271 74,-467c0,-96 -4,-195 -10,-220l-9,-45l-18,58c-23,80 -102,230 -159,304c-142,185 -362,318 -594,358c-99,17 -227,20 -218,5c3,-5 14,-10 23,-10c36,0 141,-60 200,-115c275,-254 153,-714 -215,-810c-307,-80 -615,180 -590,500c6,83 35,166 83,235c19,27 32,50 30,50c-3,0 -38,-26 -78,-58c-155,-124 -276,-309 -329,-507c-31,-115 -32,-356 -1,-466c90,-328 325,-579 637,-680l70,-23l-45,-10c-25,-5 -124,-9 -220,-9c-143,-1 -194,3 -277,21c-276,59 -508,181 -705,371c-218,209 -355,456 -420,754c-31,147 -31,427 0,574c132,612 611,1056 1232,1143c104,14 361,4 472,-20zm-3027,-300c128,-18 229,-50 350,-110c141,-69 255,-156 348,-265l65,-76l-19,-67c-28,-95 -59,-237 -59,-267c0,-14 -2,-25 -5,-25c-3,0 -26,15 -52,34c-69,49 -161,92 -245,116c-82,24 -282,39 -238,19c14,-7 49,-23 78,-36c67,-32 142,-106 176,-176c109,-221 -6,-484 -242,-557c-150,-46 -302,-4 -412,116c-119,129 -134,337 -36,483l35,51l-42,-29c-61,-41 -167,-157 -210,-228c-242,-398 -90,-917 328,-1127c39,-19 100,-43 135,-53l65,-18l-45,-7c-126,-19 -324,1 -463,46c-94,31 -201,83 -283,138c-60,40 -63,45 -120,167c-98,209 -202,378 -336,544c-37,45 -48,240 -23,393c27,167 78,299 169,439c232,356 664,554 1081,495zm-2797,-980c536,-130 1054,-584 1334,-1167c275,-574 260,-1171 -37,-1469c-308,-310 -832,-281 -1362,77c-152,103 -340,278 -466,434c-262,325 -434,707 -482,1072c-19,148 -19,234 1,117c41,-249 187,-469 375,-569c464,-245 963,250 878,872c-43,313 -237,568 -494,645l-60,18l115,-5c63,-2 152,-14 198,-25zm12634,-5117c86,-41 184,-133 215,-202c91,-204 158,-608 179,-1068l7,-153l-79,27c-231,78 -544,279 -715,460c-81,86 -102,129 -128,260c-48,233 -10,437 106,572c40,47 131,109 187,127c63,21 154,12 228,-23z" id="svg_2" fill="#ffffff"/>
  </g>
 </g>
</svg>