<svg width="300" height="300" xmlns="http://www.w3.org/2000/svg">

 <g>
  <title>background</title>
  <rect fill="none" id="canvas_background" height="402" width="582" y="-1" x="-1"/>
 </g>
 <g>
  <title>Layer 1</title>
  <g id="XMLID_21_">
   <path fill="#00a7da" d="m0.005,149.995c0,59.367 34.502,110.683 84.543,134.992l-71.554,-196.034c-8.32,18.654 -12.989,39.297 -12.989,61.042zm251.254,-7.566c0,-18.544 -6.661,-31.377 -12.367,-41.366c-7.602,-12.362 -14.729,-22.817 -14.729,-35.18c0,-13.788 10.449,-26.621 25.184,-26.621c0.668,0 1.301,0.081 1.943,0.122c-26.682,-24.452 -62.241,-39.384 -101.29,-39.384c-52.403,0 -98.503,26.89 -125.326,67.603c3.525,0.116 6.843,0.188 9.655,0.188c15.685,0 39.98,-1.907 39.98,-1.907c8.083,-0.476 9.033,11.406 0.956,12.362c0,0 -8.129,0.951 -17.163,1.422l54.619,162.478l32.827,-98.447l-23.368,-64.032c-8.083,-0.471 -15.73,-1.422 -15.73,-1.422c-8.083,-0.48 -7.138,-12.838 0.95,-12.362c0,0 24.766,1.907 39.505,1.907c15.686,0 39.98,-1.907 39.98,-1.907c8.083,-0.476 9.039,11.406 0.956,12.362c0,0 -8.138,0.951 -17.162,1.422l54.203,161.238l14.962,-49.984c7.606,-19.494 11.415,-35.655 11.415,-48.492zm-98.623,20.687l-45.008,130.774c13.439,3.951 27.652,6.11 42.372,6.11c17.471,0 34.224,-3.015 49.813,-8.503c-0.395,-0.643 -0.769,-1.324 -1.072,-2.068l-46.105,-126.313zm128.988,-85.078c0.647,4.774 1.012,9.898 1.012,15.422c0,15.215 -2.854,32.326 -11.412,53.723l-45.812,132.459c44.598,-26 74.583,-74.311 74.583,-129.646c0,-26.081 -6.667,-50.598 -18.371,-71.958z" id="XMLID_4_"/>
  </g>
  <g id="svg_1"/>
  <g id="svg_2"/>
  <g id="svg_3"/>
  <g id="svg_4"/>
  <g id="svg_5"/>
  <g id="svg_6"/>
  <g id="svg_7"/>
  <g id="svg_8"/>
  <g id="svg_9"/>
  <g id="svg_10"/>
  <g id="svg_11"/>
  <g id="svg_12"/>
  <g id="svg_13"/>
  <g id="svg_14"/>
  <g id="svg_15"/>
 </g>
</svg>