<?xml version="1.0" standalone="no"?>
<!DOCTYPE svg PUBLIC "-//W3C//DTD SVG 20010904//EN"
 "http://www.w3.org/TR/2001/REC-SVG-20010904/DTD/svg10.dtd">
<svg version="1.0" xmlns="http://www.w3.org/2000/svg"
 width="500.000000pt" height="413.000000pt" viewBox="0 0 500.000000 413.000000"
 preserveAspectRatio="xMidYMid meet">
<metadata>
Created by potrace 1.14, written by Peter Selinger 2001-2017
</metadata>
<g transform="translate(0.000000,413.000000) scale(0.100000,-0.100000)"
fill="#000000" stroke="none">
<path d="M0 3955 l0 -175 585 0 585 0 0 175 0 175 -585 0 -585 0 0 -175z"/>
<path d="M0 3315 l0 -175 583 2 582 3 3 173 2 172 -585 0 -585 0 0 -175z"/>
<path d="M0 2686 l0 -175 1133 -4 c829 -3 1155 -7 1217 -17 246 -35 420 -108
532 -222 l68 -69 0 90 c0 101 -20 170 -75 256 -114 179 -317 277 -625 305 -69
6 -543 10 -1182 10 l-1068 0 0 -174z"/>
<path d="M0 2046 l0 -174 1263 -5 c856 -3 1296 -8 1367 -16 126 -14 236 -35
285 -55 l35 -15 0 75 c0 89 -18 132 -79 187 -78 70 -210 122 -391 154 -84 14
-237 17 -1287 20 l-1193 4 0 -175z"/>
<path d="M2897 1648 c-157 -59 -399 -68 -1754 -68 l-1143 0 0 -175 0 -175
1123 0 c679 0 1165 4 1232 10 314 29 509 111 576 242 15 30 19 55 17 111 l-3
73 -48 -18z"/>
<path d="M2875 1175 c-134 -135 -324 -201 -645 -225 -78 -6 -575 -10 -1182
-10 l-1048 0 0 -175 0 -175 1078 0 c649 0 1119 4 1184 10 290 28 494 126 606
293 64 97 84 161 80 268 l-3 84 -70 -70z"/>
<path d="M2945 642 c-3 -3 -5 -24 -5 -46 0 -61 36 -108 112 -145 130 -64 124
-64 1081 -68 l867 -4 0 110 0 111 -890 0 c-883 0 -1035 5 -1122 34 -20 8 -40
11 -43 8z"/>
<path d="M2940 342 c0 -158 131 -286 332 -327 66 -13 198 -15 903 -15 l825 0
0 104 0 105 -852 4 c-948 4 -922 2 -1065 72 -39 19 -85 51 -102 70 -17 19 -33
35 -36 35 -3 0 -5 -22 -5 -48z"/>
</g>
</svg>
