<svg width="573" height="513" xmlns="http://www.w3.org/2000/svg" preserveAspectRatio="xMidYMid meet">
 <metadata>Created by potrace 1.14, written by Peter Selinger 2001-2017</metadata>

 <g>
  <title>background</title>
  <rect fill="none" id="canvas_background" height="302" width="302" y="-1" x="-1"/>
 </g>
 <g>
  <title>Layer 1</title>
  <g id="svg_1" fill="#000000" transform="translate(0,513) scale(0.10000000149011612,-0.10000000149011612) ">
   <path fill="#63dbf9" id="svg_2" d="m3870,5065c-267,-49 -623,-255 -923,-535l-76,-71l-110,96c-520,449 -996,617 -1295,457c-64,-34 -150,-121 -195,-195c-140,-236 -165,-681 -64,-1152c14,-66 26,-126 27,-133c0,-7 -62,-33 -159,-66c-368,-124 -612,-261 -801,-450c-108,-108 -161,-189 -196,-299c-27,-85 -21,-226 15,-313c89,-220 334,-437 683,-604c104,-50 335,-139 412,-160c23,-6 42,-16 42,-23c0,-7 -11,-64 -24,-127c-136,-641 -46,-1150 234,-1330c82,-53 159,-73 285,-74c301,-2 652,169 1046,510l106,92l77,-69c615,-553 1176,-692 1446,-357c130,161 190,386 190,713c0,186 -17,348 -55,537c-14,67 -23,123 -21,125c2,3 57,22 121,44c524,179 887,440 1003,723c18,44 26,86 30,152c9,168 -50,296 -208,454c-187,188 -458,339 -825,460c-71,23 -132,44 -133,46c-2,1 8,63 22,136c58,299 73,597 40,815c-41,279 -156,474 -329,558c-109,54 -221,66 -365,40zm210,-236c64,-14 105,-45 150,-111c123,-184 147,-581 59,-1017c-11,-58 -24,-110 -29,-114c-4,-5 -77,5 -161,22c-161,31 -300,53 -480,74l-107,12l-119,160c-66,88 -173,221 -237,295l-116,135l77,74c149,142 344,281 509,364c196,98 341,132 454,106zm-2215,-18c210,-51 486,-215 748,-445l87,-77l-81,-92c-97,-109 -256,-307 -339,-421l-59,-82l-118,-13c-166,-18 -356,-47 -500,-76c-67,-14 -124,-25 -127,-25c-7,0 -44,164 -60,270c-30,185 -39,364 -27,497c39,408 171,537 476,464zm1071,-771c31,-36 102,-121 157,-190l100,-125l-161,-3c-88,-1 -235,-1 -327,0l-166,3l97,120c125,155 225,266 235,263c4,-2 33,-32 65,-68zm430,-578c40,-21 295,-437 441,-718l85,-164l-85,-162c-106,-204 -213,-391 -332,-578l-92,-145l-79,-8c-105,-10 -734,-12 -855,-2l-96,7l-100,157c-117,182 -231,378 -336,580l-75,144l32,66c98,204 283,527 418,731l63,95l95,6c164,11 893,4 916,-9zm-1329,-39c-2,-5 -45,-75 -95,-158c-50,-82 -122,-207 -160,-278l-69,-127l-55,142c-62,160 -122,337 -116,343c11,11 410,82 476,84c13,1 21,-2 19,-6zm1778,-8c55,-8 162,-27 238,-41c119,-23 137,-29 137,-45c0,-35 -161,-459 -174,-459c-2,0 -28,44 -57,98c-45,84 -215,374 -257,440c-18,27 -20,27 113,7zm-2470,-255c39,-118 151,-405 203,-519l29,-64l-32,-71c-59,-130 -137,-329 -192,-486c-63,-182 -41,-173 -233,-103c-165,59 -362,155 -480,234c-114,75 -264,222 -305,299c-25,47 -30,66 -30,130c0,98 25,149 122,251c97,102 216,184 388,270c139,70 474,194 486,181c4,-4 23,-59 44,-122zm3211,84c325,-107 575,-245 734,-404c100,-100 132,-158 138,-248c4,-55 1,-71 -29,-130c-69,-140 -270,-302 -533,-427c-108,-52 -302,-129 -403,-159c-19,-6 -24,1 -48,76c-42,125 -125,337 -194,491l-62,138l65,154c78,180 105,250 157,405c22,63 41,121 44,128c6,17 9,16 131,-24zm-2780,-1061c63,-120 201,-354 247,-422l30,-44l-69,7c-81,9 -338,51 -406,67l-47,11l40,116c44,127 139,372 144,372c2,0 29,-48 61,-107zm2254,104c0,-2 23,-59 51,-128c28,-68 68,-174 89,-236c35,-100 37,-113 22,-117c-58,-17 -493,-88 -500,-82c-1,2 35,66 82,142c46,76 118,203 161,282c43,78 82,142 86,142c5,0 9,-1 9,-3zm275,-848c38,-200 48,-314 42,-518c-4,-144 -10,-205 -26,-270c-39,-153 -105,-261 -184,-304c-36,-18 -57,-22 -142,-21c-86,0 -114,5 -195,33c-167,57 -378,180 -552,323c-108,89 -198,171 -198,181c0,5 28,41 63,81c104,118 217,262 385,494c16,21 32,25 186,43c158,18 384,54 521,83c33,7 63,10 68,6c4,-3 18,-62 32,-131zm-2410,57c105,-14 222,-28 261,-31l71,-7l58,-81c85,-117 244,-315 336,-418c43,-48 79,-92 79,-98c0,-14 -204,-187 -309,-262c-309,-219 -617,-320 -783,-256c-162,62 -249,355 -220,734c11,137 47,365 72,454l10,36l118,-23c64,-13 203,-34 307,-48zm1297,-70c-5,-6 -38,-49 -73,-96c-35,-47 -104,-132 -153,-189l-90,-104l-51,55c-60,64 -210,244 -254,304l-31,41l330,0c243,0 328,-2 322,-11z"/>
   <path fill="#63dbf9" id="svg_3" d="m2740,3074c-90,-24 -161,-65 -230,-134c-196,-196 -200,-490 -10,-694c96,-102 220,-156 359,-156c142,0 258,48 355,146c200,200 196,521 -10,714c-129,120 -304,167 -464,124z"/>
  </g>
 </g>
</svg>