<svg width="512" height="512" xmlns="http://www.w3.org/2000/svg" preserveAspectRatio="xMidYMid meet">
 <metadata>Created by potrace 1.14, written by Peter Selinger 2001-2017</metadata>

 <g>
  <title>background</title>
  <rect fill="none" id="canvas_background" height="402" width="582" y="-1" x="-1"/>
 </g>
 <g>
  <title>Layer 1</title>
  <g id="svg_1" fill="#000000" transform="translate(0,512) scale(0.10000000149011612,-0.10000000149011612) ">
   <path fill="#cf4547" id="svg_2" d="m2285,4898c-338,-38 -729,-182 -1020,-376c-570,-380 -936,-961 -1037,-1647c-20,-136 -17,-512 5,-655c103,-665 471,-1245 1027,-1616c287,-191 623,-320 966,-371c164,-24 504,-24 668,0c411,61 815,237 1136,494c459,368 764,897 857,1485c25,159 25,537 0,696c-83,524 -329,995 -708,1356c-370,352 -861,581 -1361,635c-114,13 -419,12 -533,-1zm895,-608c0,-5 6,-10 13,-10c7,0 25,-11 40,-26l27,-25l-41,-49c-23,-27 -44,-50 -48,-52c-3,-2 -48,-50 -100,-108c-52,-58 -114,-126 -137,-153c-31,-33 -48,-65 -59,-105c-9,-31 -29,-101 -44,-154c-28,-97 -28,-98 -7,-98c42,0 262,-20 331,-30c96,-14 175,-40 175,-57c0,-59 -401,-123 -775,-123c-375,0 -765,66 -765,129c0,11 89,37 170,50c116,19 301,31 497,31l192,0l16,58c19,68 28,100 55,210c11,46 26,90 33,99c6,9 64,70 128,137c64,66 151,158 194,204c72,75 105,98 105,72zm-1255,-956c157,-42 331,-58 635,-58c196,0 315,5 415,17c122,15 284,49 338,72c11,5 17,3 17,-6c0,-19 -35,-331 -71,-625c-16,-133 -29,-249 -29,-258c0,-29 -152,-162 -171,-150c-10,6 -5,14 43,72c16,18 39,55 53,83c21,41 24,53 14,72c-7,12 -17,25 -23,29c-30,20 -106,0 -135,-36c-17,-20 -31,-21 -31,-2c0,7 -7,20 -16,27c-14,11 -19,10 -35,-10c-10,-13 -24,-41 -31,-63c-8,-26 -29,-55 -62,-85c-50,-45 -104,-83 -118,-83c-14,0 -8,38 13,87c11,26 31,75 44,108c12,33 43,110 69,170c47,112 54,157 25,163c-28,5 -44,-22 -104,-175c-110,-280 -126,-318 -148,-335c-22,-18 -67,-25 -67,-10c1,26 24,100 46,147c30,66 29,99 -4,103c-18,3 -25,-3 -34,-28c-22,-63 -81,-166 -112,-192c-17,-15 -42,-27 -55,-28c-22,0 -23,3 -17,41c4,23 20,68 36,101c38,75 39,108 6,108c-30,0 -43,-21 -90,-137c-45,-112 -47,-169 -5,-192c33,-18 89,-4 133,34c37,32 44,31 48,-1c5,-44 30,-52 83,-26c45,22 45,22 65,2c31,-31 91,-21 137,22c13,12 25,19 28,16c3,-2 -15,-49 -40,-104c-52,-114 -58,-164 -22,-164c31,0 49,22 76,95c87,230 148,332 222,371c54,27 46,-8 -20,-96c-63,-84 -73,-116 -45,-144c31,-32 90,-17 170,44c29,21 54,37 56,35c3,-4 -58,-558 -68,-612c-18,-100 -210,-148 -589,-148c-258,0 -399,18 -522,66c-73,29 -84,51 -99,199c-7,69 -17,172 -23,229c-6,57 -11,118 -11,137c0,33 1,34 43,34c42,0 80,18 146,68c36,27 39,18 16,-48c-18,-50 -20,-106 -4,-116c20,-12 48,30 70,106c12,41 39,128 60,192c43,127 48,175 23,185c-28,10 -48,-11 -65,-71c-20,-67 -52,-113 -123,-179c-88,-82 -126,-75 -126,24c0,132 125,364 224,416c40,21 72,9 101,-37c30,-48 61,-53 71,-13c15,58 -61,133 -135,133c-102,0 -239,-138 -304,-309c-27,-70 -30,-60 -51,169c-9,102 -26,275 -37,386c-10,110 -19,204 -19,208c0,5 10,5 23,1c12,-4 62,-18 112,-31zm214,-1729c263,-61 602,-58 881,9c35,8 65,14 67,12c2,-1 -15,-32 -37,-69l-40,-66l-10,-228c-13,-295 -14,-308 -48,-331c-117,-79 -264,-117 -422,-109c-129,7 -198,25 -317,82l-93,44l0,43c0,24 -7,142 -16,263l-16,220l-41,70c-22,39 -44,72 -49,73c-19,8 -6,24 15,18c12,-4 69,-18 126,-31z"/>
  </g>
 </g>
</svg>