<svg width="512" height="512" xmlns="http://www.w3.org/2000/svg" preserveAspectRatio="xMidYMid meet">
 <metadata>Created by potrace 1.14, written by Peter Selinger 2001-2017</metadata>

 <g>
  <title>background</title>
  <rect fill="none" id="canvas_background" height="402" width="582" y="-1" x="-1"/>
 </g>
 <g>
  <title>Layer 1</title>
  <g id="svg_1" fill="#000000" transform="translate(0,512) scale(0.10000000149011612,-0.10000000149011612) ">
   <path fill="#ff8100" id="svg_2" d="m2380,5004c-253,-29 -387,-56 -580,-120c-157,-52 -394,-166 -530,-254c-360,-235 -654,-565 -841,-945c-112,-228 -186,-462 -225,-715c-25,-161 -25,-519 0,-680c107,-689 490,-1285 1066,-1660c118,-76 343,-188 475,-236c132,-47 332,-98 475,-120c161,-25 519,-25 680,0c585,91 1105,380 1477,821c231,274 398,599 488,950c56,217 69,332 69,585c0,253 -13,368 -69,585c-45,177 -92,304 -174,470c-343,696 -1005,1178 -1786,1300c-95,15 -450,28 -525,19zm590,-979c120,-26 277,-82 371,-132c83,-44 241,-153 247,-171c1,-5 -90,-107 -204,-226l-206,-217l-62,58c-178,167 -453,220 -653,126c-123,-57 -179,-203 -122,-320c41,-86 111,-123 422,-229c355,-120 509,-203 639,-343c75,-81 120,-166 150,-283c18,-71 20,-102 15,-218c-4,-92 -12,-160 -27,-215c-80,-295 -320,-515 -656,-601c-444,-112 -992,13 -1309,299l-50,46l214,215l215,215l61,-57c157,-147 336,-222 531,-222c229,0 364,105 364,284c0,172 -87,238 -495,374c-297,99 -403,151 -535,263c-61,53 -140,166 -170,246c-55,145 -63,357 -20,513c90,319 373,536 790,605c111,19 386,13 490,-10z"/>
  </g>
 </g>
</svg>