<svg width="200" height="171" xmlns="http://www.w3.org/2000/svg" preserveAspectRatio="xMidYMid meet">
 <metadata>Created by potrace 1.14, written by Peter Selinger 2001-2017</metadata>

 <g>
  <title>background</title>
  <rect fill="none" id="canvas_background" height="402" width="582" y="-1" x="-1"/>
 </g>
 <g>
  <title>Layer 1</title>
  <g id="svg_1" fill="#000000" transform="translate(0,171) scale(0.10000000149011612,-0.10000000149011612) ">
   <path stroke="null" fill="#2788b5" id="svg_2" d="m4,1685c10,-41 346,-1668 346,-1677c0,-4 74,-8 164,-8c148,0 165,2 170,18c3,9 40,170 81,357c42,187 78,341 80,343c6,6 12,-23 81,-375l66,-343l77,0l77,0l120,137c205,236 224,267 224,363c0,34 -5,71 -11,83c-7,12 -60,72 -119,133c-93,95 -114,123 -153,205c-43,88 -50,114 -112,434c-36,187 -69,343 -74,348c-4,4 -79,6 -167,5l-159,-3l-61,-285c-96,-448 -96,-448 -105,-425c-4,11 -33,155 -64,320c-31,165 -61,321 -67,348l-10,47l-195,0l-195,0l6,-25z"/>
   <path stroke="null" fill="#2788b5" id="svg_3" d="m1391,1643c-114,-151 -171,-301 -171,-448c1,-93 13,-144 61,-243c33,-69 59,-103 148,-195c60,-62 116,-126 125,-144c11,-22 16,-57 16,-110c0,-122 -43,-195 -242,-416c-38,-41 -68,-77 -68,-81c0,-3 121,-6 269,-6l268,0l28,42c64,97 146,268 160,335c22,104 19,199 -10,290c-33,106 -69,159 -192,285c-57,59 -110,123 -118,142c-9,21 -15,67 -15,113c0,120 39,187 224,393c47,52 86,98 86,103c0,4 -117,7 -259,7l-259,0l-51,-67z"/>
  </g>
 </g>
</svg>