<svg width="512" height="512" xmlns="http://www.w3.org/2000/svg">

 <g>
  <title>background</title>
  <rect fill="none" id="canvas_background" height="402" width="582" y="-1" x="-1"/>
 </g>
 <g>
  <title>Layer 1</title>
  <g id="svg_1">
   <g id="svg_2">
    <path fill="#f0db4f" id="svg_3" d="m488.534,4.267c-2.134,-2.134 -4.267,-4.267 -8.533,-4.267l-448.001,0c-2.133,0 -6.399,2.133 -8.533,4.267c-2.134,2.134 -2.133,4.267 -2.133,8.533l42.667,426.667c0,4.267 4.267,8.533 6.399,8.533l192,64c2.133,0 2.133,0 4.267,0c2.133,0 2.133,0 4.267,0l170.666,-64c4.267,-2.133 6.399,-4.267 6.399,-8.533l42.667,-426.667c0.002,-2.132 0.002,-6.4 -2.132,-8.533zm-232.533,381.867c0,2.133 -2.134,6.4 -4.267,8.533s-4.393,2.416 -6.525,2.416l-2.007,-0.283l-74.667,-21.333c-4.267,-2.133 -6.399,-4.267 -8.533,-8.533l-10.667,-53.334c-2.133,-6.399 2.133,-10.667 8.533,-12.8c6.399,-2.133 10.667,2.133 12.801,8.533l8.533,46.933l55.467,14.934l0,-241.066l-117.335,0c-6.399,0 -10.667,-4.267 -10.667,-10.667c0,-6.399 4.267,-10.667 10.667,-10.667l128,0c6.399,0 10.667,4.267 10.667,10.667l0,266.667zm149.333,-264.534l-10.667,42.667c-2.133,6.399 -6.482,9.559 -12.8,8.533c-6.658,-1.08 -9.208,-6.435 -8.533,-12.801c0.804,-7.594 6.399,-29.866 6.399,-29.866l-83.2,0l0,106.667l74.667,0c2.133,0 6.399,2.133 8.533,4.267c2.133,2.133 2.133,6.399 2.133,8.533l-21.333,117.333c0,4.267 -4.267,6.399 -6.399,8.533l-64,21.333c-2.133,0 -9.884,2.95 -14.934,-6.399c-2.133,-6.399 2.133,-10.667 6.399,-12.801l57.6,-19.2l17.067,-98.134l-72.534,0c-6.399,0 -10.667,-4.267 -10.667,-10.667l0,-128c0,-6.399 4.267,-10.667 10.667,-10.667l106.667,0c4.267,0 7.187,0.912 9.975,2.067c5.915,2.451 4.96,6.469 4.96,8.602z"/>
   </g>
  </g>
  <g id="svg_4"/>
  <g id="svg_5"/>
  <g id="svg_6"/>
  <g id="svg_7"/>
  <g id="svg_8"/>
  <g id="svg_9"/>
  <g id="svg_10"/>
  <g id="svg_11"/>
  <g id="svg_12"/>
  <g id="svg_13"/>
  <g id="svg_14"/>
  <g id="svg_15"/>
  <g id="svg_16"/>
  <g id="svg_17"/>
  <g id="svg_18"/>
 </g>
</svg>