<svg width="470.699" height="470.699" xmlns="http://www.w3.org/2000/svg">

 <g>
  <title>background</title>
  <rect fill="none" id="canvas_background" height="402" width="582" y="-1" x="-1"/>
 </g>
 <g>
  <title>Layer 1</title>
  <path fill="#2793e8" id="svg_1" d="m426.981,0l-383.28,0c-9.181,0 -16.069,7.769 -15.259,16.949l35.008,392.305c0.811,9.173 8.745,18.774 17.644,21.253l138.006,38.335c8.887,2.463 23.413,2.479 32.313,0.032l138.177,-38.281c8.901,-2.472 16.835,-11.986 17.645,-21.175l35.023,-392.469c0.81,-9.18 -6.049,-16.949 -15.277,-16.949zm-66.471,141.611c-0.006,0.06 -0.053,0.107 -0.112,0.117c-0.06,0.01 -0.118,-0.021 -0.144,-0.077l-108.124,44.309c-1.54,0.631 -2.418,2.264 -2.098,3.897c0.322,1.633 1.754,2.811 3.419,2.811l84.103,0c4.474,0 8.736,1.9 11.728,5.227c2.991,3.327 4.429,7.768 3.954,12.216l-13.141,123.273c-0.645,6.048 -4.709,11.186 -10.447,13.205l-89.269,31.41c-3.362,1.184 -7.027,1.193 -10.397,0.025l-88.852,-30.778c-5.773,-2 -9.871,-7.153 -10.52,-13.228l-5.957,-55.828c-0.313,-2.931 0.634,-5.857 2.604,-8.048c1.971,-2.192 4.779,-3.444 7.727,-3.444l24.725,0c5.313,0 9.769,4.007 10.331,9.289l3.655,34.316l61.521,21.385l61.803,-21.58l7.559,-71.17l-174.743,0c-5.297,0 -9.746,-3.985 -10.327,-9.25l-3.327,-30.164c-0.508,-4.601 2.088,-8.982 6.366,-10.745l111.837,-46.109c1.269,-0.523 1.99,-1.868 1.724,-3.214c-0.267,-1.345 -1.446,-2.314 -2.817,-2.314l-117.749,0c-3.545,0 -6.518,-2.677 -6.888,-6.201l-3.406,-32.421c-0.205,-1.951 0.428,-3.898 1.741,-5.357c1.313,-1.458 3.184,-2.291 5.146,-2.291l246.379,0c1.973,0 3.852,0.842 5.166,2.313c1.314,1.472 1.938,3.434 1.715,5.394l-4.885,43.032z"/>
  <g id="svg_2"/>
  <g id="svg_3"/>
  <g id="svg_4"/>
  <g id="svg_5"/>
  <g id="svg_6"/>
  <g id="svg_7"/>
  <g id="svg_8"/>
  <g id="svg_9"/>
  <g id="svg_10"/>
  <g id="svg_11"/>
  <g id="svg_12"/>
  <g id="svg_13"/>
  <g id="svg_14"/>
  <g id="svg_15"/>
  <g id="svg_16"/>
 </g>
</svg>