<svg width="225" height="225" xmlns="http://www.w3.org/2000/svg" preserveAspectRatio="xMidYMid meet">
 <metadata>Created by potrace 1.14, written by Peter Selinger 2001-2017</metadata>

 <g>
  <title>background</title>
  <rect fill="none" id="canvas_background" height="458.804" width="458.804" y="-1" x="-1"/>
 </g>
 <g>
  <title>Layer 1</title>
  <g id="svg_1" fill="#000000" transform="translate(0,225) scale(0.10000000149011612,-0.10000000149011612) ">
   <path stroke="null" fill="#1169ae" id="svg_2" d="m1325.221456,1916c-131.022146,-28 -232.518174,-84 -312.792305,-171c-236.208939,-256 -155.934807,-641 171.620557,-825c98.727955,-56 192.842454,-80 310.946923,-81l96.882572,-1l49.825323,-48c88.578352,-86 233.440865,-144 294.338482,-119l23.067279,9l-46.134558,54c-51.670705,59 -75.660676,111 -75.660676,161c0,28 7.381529,39 45.211867,69c340.47304,271 199.301292,801 -248.203924,935c-90.423734,28 -225.136645,35 -309.101541,17zm117.181778,-186c13.840367,0 15.68575,-7 10.149603,-45l-5.536147,-45l49.825323,1c27.680735,0 84.887587,6 128.254072,13c43.366485,7 79.35144,12 80.274131,11c1.845382,-1 5.536147,-22 8.30422,-47c5.536147,-45 5.536147,-45 -24.912661,-52c-17.531132,-4 -78.428749,-10 -134.71291,-13c-86.73297,-5 -104.264102,-9 -104.264102,-22c0,-9 -2.768073,-27 -6.458838,-39c-5.536147,-24 -4.613456,-24 48.902632,-16c29.526117,4 59.052235,13 63.66569,21c8.30422,12 17.531132,13 48.902632,4c21.221897,-7 38.753029,-18 38.753029,-25c0,-7 16.608441,-21 35.984955,-31c42.443794,-21 88.578352,-69 101.496028,-108c24.912661,-72 3.690765,-173 -47.057249,-223c-23.98997,-25 -83.964896,-58 -119.02716,-67c-20.299206,-6 -25.835353,-2 -38.753029,29c-18.453823,42 -15.68575,50 21.221897,59c35.062264,8 89.501043,63 96.882572,98c3.690765,15 3.690765,39 0.922691,53c-7.381529,30 -53.516088,84 -71.969911,84c-6.458838,0 -22.144588,-21 -35.062264,-47c-11.994985,-25 -42.443794,-70 -67.356455,-99c-37.830338,-45 -43.366485,-56 -35.062264,-73c15.68575,-30 12.917676,-38 -23.067279,-62l-34.139573,-22l-15.68575,22c-14.763059,23 -15.68575,23 -59.052235,7c-109.800249,-40 -178.079395,5 -174.38863,115c1.845382,82 56.284161,162 142.09444,210c34.139573,19 35.984955,21 35.984955,69l0,50l-73.815293,0l-73.815293,0l0,45l0,45l73.815293,0l73.815293,0l0,56l0,57l35.062264,-7c18.453823,-3 41.521102,-6 49.825323,-6z"/>
   <path stroke="null" fill="#1169ae" id="svg_3" d="m540.933965,1580c-218.677806,-34 -398.602584,-166 -485.335554,-355l-40.598411,-88l0,-116c0,-97 3.690765,-125 21.221897,-173c30.448808,-81 92.269117,-167 158.702881,-219c56.284161,-44 56.284161,-44 50.748014,-83c-7.381529,-56 -47.979941,-132 -91.346425,-172l-35.984955,-33l26.758044,-11c60.897617,-26 199.301292,30 297.106556,120c54.438779,49 59.974926,52 94.114499,46c57.206852,-10 200.223983,12 284.188879,43c131.944837,50 236.208939,134 309.101541,250l33.216882,55l-38.753029,25c-112.568322,71 -214.064351,186 -261.1216,296c-46.134558,106 -59.974926,254 -35.062264,366c5.536147,26 2.768073,28 -40.598411,38c-68.279146,16 -183.615542,21 -246.358541,11zm196.533218,-529c47.057249,-181 84.887587,-334 84.887587,-340c0,-8 -19.376514,-11 -60.897617,-9l-61.820308,3l-11.994985,45c-6.458838,25 -16.608441,64 -22.144588,88l-10.149603,42l-82.119514,0l-82.119514,0l-13.840367,-52c-7.381529,-29 -17.531132,-69 -22.144588,-88l-7.381529,-35l-61.820308,-3c-34.139573,-2 -61.820308,-1 -61.820308,2c0,5 89.501043,350 162.393645,624l13.840367,52l75.660676,0l76.583367,0l84.887587,-329z"/>
   <path stroke="null" fill="#1169ae" id="svg_4" d="m564.001244,1242c0,-11 -11.994985,-73 -27.680735,-137c-14.763059,-64 -27.680735,-118 -27.680735,-121c0,-2 29.526117,-4 65.511073,-4c61.820308,0 64.588382,1 59.052235,22c-3.690765,11 -18.453823,73 -33.216882,136c-25.835353,115 -35.984955,144 -35.984955,104z"/>
  </g>
 </g>
</svg>