<svg width="200" height="200" xmlns="http://www.w3.org/2000/svg" preserveAspectRatio="xMidYMid meet">
 <metadata>Created by potrace 1.14, written by Peter Selinger 2001-2017</metadata>

 <g>
  <title>background</title>
  <rect x="-1" y="-1" width="202" height="202" id="canvas_background" fill="none"/>
 </g>
 <g>
  <title>Layer 1</title>
  <path stroke="#000" id="svg_2" d="m180.726297,95.090902c-7.905843,-1.459431 -16.134238,-2.420344 -22.815696,-2.68044l-1.178306,-0.043349c0.269891,-0.650242 0.473956,-1.090961 0.539783,-1.155985c0.14482,-0.130048 0.263309,-0.679141 0.276474,-1.213784c0,-0.296221 0.118489,-1.257134 0.302805,-2.528717c1.810247,0.072249 4.212939,0.130048 6.83286,0.151723c10.117635,0.086699 20.702644,0.982587 27.96338,2.391444c4.324845,0.838089 5.753294,0.80919 2.560677,-0.043349c-3.232114,-0.859764 -12.816549,-2.124122 -20.452501,-2.673215c-5.127936,-0.38292 -12.480831,-0.527418 -16.812258,-0.447944c0.125072,-0.823639 0.269891,-1.741202 0.421294,-2.68044c0.612193,-3.634128 0.816257,-7.289931 0.829422,-14.565411c0.013165,-11.285304 -0.539783,-14.392014 -3.890386,-21.855342c-1.362622,-3.04891 -2.902978,-5.635427 -4.765887,-7.976297c1.625931,-5.266957 1.586435,-13.423876 -0.098741,-20.576533c-1.388953,-5.866624 -1.876074,-6.242319 -6.720954,-5.115234c-4.107615,0.960913 -7.398974,2.268621 -11.618495,4.602265c-1.994563,1.105411 -4.746139,2.824938 -6.740702,4.175996c-5.200346,-2.008524 -10.578426,-3.337907 -16.318555,-4.053172c-5.819122,-0.722491 -20.083868,-0.317896 -25.145978,0.708041c-4.950203,1.004262 -9.406702,2.232496 -13.441907,3.691927c-2.014311,-1.365507 -4.937037,-3.207858 -7.023759,-4.363843c-4.23927,-2.34087 -7.530628,-3.641353 -11.651408,-4.602265c-4.831714,-1.13431 -5.332,-0.75139 -6.714371,5.115234c-1.711506,7.246581 -1.724672,15.540774 -0.032914,20.793281c0.197481,0.599667 0.31597,1.025937 0.362049,1.358282c-6.859191,9.479077 -9.097314,20.08524 -7.60962,34.889073c0.38838,3.8581 0.987407,7.398304 1.823413,10.642287c-4.377507,-0.0289 -10.604757,0.144498 -15.100752,0.462394c-7.649117,0.556318 -17.233552,1.806227 -20.465666,2.66599c-3.186035,0.852539 -1.770751,0.881439 2.560677,0.050574c7.260736,-1.401632 17.852328,-2.31197 27.96338,-2.391444c1.908988,-0.007225 3.692904,-0.050574 5.226677,-0.093924c0.46079,1.712303 0.987407,3.345132 1.586435,4.898487l-0.046079,0.007225c-6.681457,0.252872 -14.90327,1.213784 -22.809113,2.673215c-5.931028,1.090961 -14.686041,3.272883 -15.706362,3.901449c-1.072983,0.657466 -0.197481,0.512968 4.397255,-0.76584c8.379798,-2.32642 19.274194,-4.110972 32.768763,-5.353656l1.507442,-0.144498c2.896395,7.383854 7.359477,13.019281 13.66572,17.412024c3.857472,2.69489 10.038643,5.462029 13.152268,5.895524c0.855753,0.115599 3.34402,0.679141 5.529482,1.242684c2.192045,0.563543 6.477393,1.408857 9.518608,1.892925l0.07241,0c-0.059244,0.043349 -0.111906,0.072249 -0.164568,0.115599c-3.686321,2.102448 -6.08243,5.37533 -7.695196,10.526689c-0.724099,0.238422 -1.625931,0.563543 -2.600173,0.932013c-3.482257,1.300483 -4.838297,1.567805 -8.366633,1.596704c-3.65999,0.0289 -4.528909,-0.144498 -6.714371,-1.271584c-3.179452,-1.625604 -6.141675,-4.616715 -8.11649,-8.185819c-3.297941,-5.967773 -8.998574,-10.187118 -13.751295,-10.187118c-4.061536,0 -4.831714,1.806227 -1.895822,4.443317c4.423586,3.966474 7.728109,8.012421 9.084149,11.104681c0.763595,1.733978 1.935319,4.414418 2.613339,5.953323c0.717516,1.640054 2.251289,3.865325 3.712652,5.40423c3.436178,3.598003 6.753867,5.317531 11.70407,6.126721c3.317689,0.534643 4.133946,0.534643 8.050662,-0.01445c1.88924,-0.252872 3.482257,-0.549093 4.910707,-0.917563c0,1.762877 0,3.793076 0,6.177295c0,12.759185 -0.138237,16.862932 -0.599027,18.062266c-0.868919,2.28307 -2.817403,4.631165 -4.713225,5.686001c-1.88924,1.054836 -2.475101,2.218046 -1.678593,3.287332c0.441042,0.577993 1.290212,0.679141 4.140529,0.476844c5.410993,-0.36847 9.235551,-2.564842 11.184036,-6.437392c0.625358,-1.242684 0.770178,-3.742502 0.967659,-16.747333c0.210647,-14.110242 0.302805,-15.468525 1.13881,-17.484273c0.506869,-1.199334 1.237551,-2.499818 1.645679,-2.853838c0.684603,-0.621342 0.730682,0.606892 0.730682,17.484273c-0.006583,18.625809 -0.177733,20.872755 -1.876074,24.456308c-0.381798,0.816414 -1.105896,1.878476 -1.612766,2.384219c-0.888667,0.888663 -1.263882,3.164509 -0.645106,3.850875c1.020321,1.112636 6.135092,-0.635792 8.926164,-3.04891c4.752721,-4.132646 5.318835,-7.550027 5.358331,-32.230307l0.019748,-14.478712l1.441615,0.151723l1.441615,0.144498l0.236978,18.93648c0.269891,21.320699 0.309388,21.63137 3.613911,25.749566c1.876074,2.32642 3.765314,3.612453 6.839443,4.616715c4.114198,1.358282 5.351749,-0.73694 2.587008,-4.371068c-3.008302,-3.952024 -3.153121,-5.462029 -2.988553,-28.856276c0.111906,-14.998906 0.111906,-14.998906 0.99399,-14.124692c1.856326,1.849576 2.211793,4.884037 2.211793,18.950929c0,17.469824 0.454207,19.131552 6.075847,22.180463c2.626504,1.408857 3.363768,1.582254 6.727536,1.596704c3.580998,0.01445 3.798228,-0.043349 3.929882,-1.069286c0.111906,-0.830864 -0.329136,-1.394407 -2.001146,-2.514267c-2.192045,-1.481106 -3.712652,-3.374031 -4.667146,-5.75825c-0.362049,-0.917563 -0.60561,-6.928685 -0.770178,-19.30495c-0.236978,-17.289201 -0.28964,-18.076716 -1.270464,-20.786056c-1.323126,-3.641353 -3.34402,-6.516866 -5.904697,-8.424241c-0.664854,-0.476844 -1.329709,-0.874214 -2.192045,-1.170435c1.059817,-0.115599 2.086721,-0.238422 3.080711,-0.39737c10.348031,-1.510005 15.818268,-2.767139 20.20894,-4.631165c9.288213,-3.923124 15.568125,-10.43999 18.971389,-19.680645c0.302805,-0.823639 0.60561,-1.603929 0.862336,-2.232496l2.619921,0.238422c13.501152,1.249909 24.395548,3.034461 32.775346,5.368105c4.594736,1.278808 5.470238,1.430531 4.397255,0.758615c-1.000573,-0.614117 -9.755586,-2.788814 -15.680031,-3.879775zm-39.588458,-0.223972c-1.533773,3.699152 -5.812539,8.45314 -9.268465,10.317166c-3.409847,1.849576 -8.755013,3.258433 -14.811112,3.930349c-4.140529,0.462394 -27.232699,0.599667 -31.044092,0.187848c-12.619068,-1.358282 -19.688905,-4.024273 -24.902417,-9.363479c-4.937037,-5.071884 -7.240988,-11.95722 -6.839443,-20.432035c0.256726,-5.303081 1.421867,-8.633763 4.469665,-12.679711c2.771324,-3.684702 5.687467,-5.960548 9.123645,-7.116533c2.876647,-0.968137 11.70407,-1.054836 23.572708,-0.216747c5.246425,0.36847 9.584435,0.36847 14.824278,0c12.415004,-0.859764 20.702644,-0.76584 23.763607,0.274546c4.811966,1.632829 9.196055,6.025572 11.829142,11.877746c1.184889,2.615416 1.415284,3.728052 1.586435,7.766774c0.236978,5.563178 -0.638524,11.473151 -2.303951,15.454075zm-62.601635,-23.885541c-7.063255,-1.358282 -11.09846,11.913871 -5.680884,18.690833c2.573842,3.215083 4.858045,3.742502 7.714944,1.791777c2.646252,-1.813452 4.081284,-5.201933 4.081284,-9.594676c0,-5.859399 -2.429022,-10.165443 -6.115344,-10.887934zm42.873233,0.79474c-7.063255,-1.358282 -11.105043,11.899421 -5.687467,18.683608c2.580425,3.215083 4.858045,3.749726 7.721527,1.784552c2.639669,-1.806227 4.081284,-5.201933 4.081284,-9.594676c0,-5.837724 -2.429022,-10.158218 -6.115344,-10.873484zm-18.99772,26.096362c-0.151402,0.534643 -0.888667,1.329383 -1.632514,1.755652c-1.882657,1.062061 -3.238697,0.693591 -5.226677,-1.293258c-1.230968,-1.221009 -1.790499,-1.864026 -2.165714,-0.585217c-0.348884,1.184885 1.843161,3.561879 3.534919,4.291594c1.553521,0.679141 2.666,0.700816 4.351176,-0.072249c1.67201,-0.76584 3.133373,-2.824938 3.133373,-4.161546c0,-1.242684 -1.625931,-1.184885 -1.994563,0.065024zm-2.086721,-4.154321c1.072983,-1.040387 1.316543,-3.178959 0.28964,-4.313269s-3.113625,-0.960913 -3.929882,0.310671c-0.947911,1.488331 -0.441042,2.622641 0.236978,3.8292c1.053235,0.895888 2.468519,1.076511 3.403265,0.173398z" stroke-opacity="null" stroke-width="0" fill="#000000"/>
 </g>
</svg>