<svg width="512" height="512" xmlns="http://www.w3.org/2000/svg"><path fill="none" d="M-1-1h514v514H-1z"/><g><path d="M205.264 210.602c-28.366-28.367-87.715-22.944-111.917-19.295-7.623 1.149-13.155 7.6-13.155 15.339v17.279a7.5 7.5 0 0 0 15 0v-17.28c0-.255.168-.473.392-.507 9.666-1.457 28.851-3.705 48.725-2.38 23.388 1.557 40.327 7.428 50.349 17.45a7.5 7.5 0 0 0 10.606 0 7.5 7.5 0 0 0 0-10.606z" fill="#2793e8"/><path d="M262.601 393.638l-46.145-16.78a7.491 7.491 0 0 0-2.044-5.742l-13.971-14.678v-24.64a90.427 90.427 0 0 0 4.344-3.789c17.625-16.521 27.733-39.844 27.733-63.991V244.34c5.322-11.581 8.019-23.837 8.019-36.457v-80.192a7.5 7.5 0 0 0-7.5-7.5H120.769c-39.51 0-71.653 32.144-71.653 71.654v16.038c0 12.62 2.697 24.876 8.019 36.457v16.931c0 28.036 12.466 53.294 32.077 69.946v25.219l-13.972 14.68a7.491 7.491 0 0 0-2.044 5.742l-46.145 16.78C11.469 399.303 1 414.25 1 430.831v57.725a7.5 7.5 0 0 0 15 0v-57.725c0-10.296 6.501-19.579 16.178-23.097l48.652-17.692 20.254 30.382a15.461 15.461 0 0 0 11.384 6.834 15.458 15.458 0 0 0 12.503-4.469l12.357-12.357v78.124a7.5 7.5 0 0 0 15 0v-78.124l12.357 12.357a15.45 15.45 0 0 0 12.503 4.469 15.461 15.461 0 0 0 11.384-6.835l20.254-30.381 48.652 17.692c9.676 3.519 16.178 12.801 16.178 23.097v57.725a7.5 7.5 0 0 0 15 0v-57.725c-.004-16.581-10.473-31.528-26.055-37.193zM72.134 261.271v-18.608a7.501 7.501 0 0 0-.746-3.261c-4.826-9.994-7.273-20.599-7.273-31.518v-16.038c0-31.239 25.415-56.654 56.653-56.654h104.769v72.692c0 10.919-2.447 21.524-7.273 31.518a7.501 7.501 0 0 0-.746 3.261v21.355c0 20.311-8.165 39.15-22.991 53.047-14.814 13.885-34.185 20.806-54.555 19.488-38.04-2.462-67.838-35.53-67.838-75.282zm42.229 150.911a.484.484 0 0 1-.418.149.475.475 0 0 1-.381-.229l-23.325-34.988 7.506-7.887 35.385 24.187-18.767 18.768zm30.463-28.942l-40.615-27.762v-14c10.51 5.681 22.277 9.234 34.792 10.044 1.976.128 3.941.191 5.899.191 14.341 0 28.143-3.428 40.539-9.935v13.7l-40.615 27.762zm31.263 28.864a.475.475 0 0 1-.381.229c-.245.021-.366-.098-.418-.149l-18.767-18.767 35.385-24.187 7.506 7.887-23.325 34.987z" fill="#2793e8"/><path d="M53.615 448.979a7.5 7.5 0 0 0-7.5 7.5v32.077a7.5 7.5 0 0 0 15 0v-32.077a7.5 7.5 0 0 0-7.5-7.5zM232.037 448.979a7.5 7.5 0 0 0-7.5 7.5v32.077a7.5 7.5 0 0 0 15 0v-32.077a7.5 7.5 0 0 0-7.5-7.5zM480.442 64.059h-40.095a7.5 7.5 0 0 0 0 15h40.095c9.13 0 16.558 7.428 16.558 16.558v128.307c0 9.13-7.428 16.558-16.558 16.558H400.25a7.495 7.495 0 0 0-4.411 1.435l-71.518 52.012 11.032-44.128a7.5 7.5 0 0 0-7.276-9.319h-24.058c-9.13 0-16.558-7.428-16.558-16.558V95.615c0-9.13 7.428-16.558 16.558-16.558h40.096a7.5 7.5 0 0 0 0-15h-40.096c-17.401 0-31.558 14.157-31.558 31.558v128.307c0 17.401 14.157 31.558 31.558 31.558h14.452l-11.033 44.129c-1.188 4.752.669 9.593 4.73 12.333a11.493 11.493 0 0 0 6.441 1.993c2.366 0 4.728-.744 6.765-2.226l77.314-56.228h77.753c17.401 0 31.558-14.157 31.558-31.558V95.615c.001-17.401-14.156-31.556-31.557-31.556z" fill="#2793e8"/><path d="M413.735 18.307a7.5 7.5 0 0 0-5.466-2.365h-32.077a7.5 7.5 0 0 0-7.485 7.968l8.02 128.307a7.5 7.5 0 0 0 7.485 7.032h16.038a7.5 7.5 0 0 0 7.485-7.032l8.019-128.307a7.504 7.504 0 0 0-2.019-5.603zM393.204 144.25h-1.946l-7.082-113.307h16.11l-7.082 113.307zM392.231 168.307c-12.979 0-23.539 10.56-23.539 23.539s10.56 23.538 23.539 23.538 23.538-10.559 23.538-23.538-10.559-23.539-23.538-23.539zm0 32.078c-4.708 0-8.539-3.83-8.539-8.538s3.831-8.539 8.539-8.539 8.538 3.831 8.538 8.539-3.83 8.538-8.538 8.538z" fill="#cc181e"/></g></svg>