<svg width="512" height="512" xmlns="http://www.w3.org/2000/svg">
 <g>
  <title>background</title>
  <rect fill="none" id="canvas_background" height="514" width="514" y="-1" x="-1"/>
 </g>

 <g>
  <title>Layer 1</title>
  <g id="svg_1"/>
  <g id="svg_4">
   <path fill-opacity="0" stroke="#cc181e" id="svg_2" d="m21.95747,119.47883l0,0c0,-26.50626 24.41913,-47.99381 54.54166,-47.99381l24.79168,0l0,0l119,0l223.12496,0c14.46538,0 28.33826,5.05646 38.56682,14.05706c10.22851,9.00059 15.97487,21.20801 15.97487,33.93675l0,119.98455l0,0l0,71.99071l0,0c0,26.50626 -24.41912,47.99381 -54.54167,47.99381l-223.12496,0l-155.45883,122.03712l36.45882,-122.03712l-24.79168,0c-30.12251,0 -54.54165,-21.48755 -54.54165,-47.99381l0,0l0,-71.99071l0,0l-0.00002,-119.98455z" stroke-width="21" fill="#ffffff"/>
   <path stroke="#cc181e" id="svg_5" d="m408.866627,271.108117l-39.891933,-78.022853c-12.027268,-23.51589 -31.699523,-62.013261 -43.726865,-85.533705l-39.888214,-78.018109c-12.039205,-23.529678 -31.711445,-23.529678 -43.734714,0l-39.880143,78.018109c-12.027268,23.520444 -31.711504,62.026779 -43.734803,85.533705l-39.884201,78.022853c-12.027238,23.53858 -2.183062,42.778118 21.86746,42.778118l246.982123,0c24.074528,0 33.906517,-19.239554 21.89129,-42.778118l0,0zm-133.983495,12.078532l-23.659783,0l0,-25.654019l23.659783,0l0,25.654019zm-1.139875,-44.556914l-21.359848,0l-2.122729,-109.764134l25.415897,0l-1.933305,109.764134l-0.000015,0z" stroke-width="1.5" fill="#cc181e"/>
  </g>
  <g id="svg_7"/>
  <g id="svg_10"/>
  <g id="svg_19"/>
  <g id="svg_25"/>
  <g id="svg_26"/>
  <g id="svg_27"/>
  <g id="svg_28"/>
  <g id="svg_29"/>
  <g id="svg_30"/>
  <g id="svg_31"/>
  <g id="svg_32"/>
  <g id="svg_33"/>
  <g id="svg_34"/>
  <g id="svg_35"/>
  <g id="svg_36"/>
  <g id="svg_37"/>
  <g id="svg_38"/>
  <g id="svg_39"/>
 </g>
</svg>