<svg width="512" height="512" xmlns="http://www.w3.org/2000/svg" preserveAspectRatio="xMidYMid meet">
 <metadata>Created by potrace 1.14, written by Peter Selinger 2001-2017</metadata>

 <g>
  <title>background</title>
  <rect fill="none" id="canvas_background" height="202" width="202" y="-1" x="-1"/>
 </g>
 <g>
  <title>Layer 1</title>
  <g id="svg_1" fill="#000000" transform="translate(0,512) scale(0.10000000149011612,-0.10000000149011612) ">
   <path fill="#cc181e" id="svg_2" d="m2420,5104c-234,-50 -436,-254 -485,-489c-95,-454 306,-855 760,-760c238,50 440,252 490,490c95,456 -309,857 -765,759zm286,-225c111,-42 190,-115 239,-222c139,-303 -113,-644 -442,-597c-187,26 -333,171 -364,359c-28,176 73,366 236,442c110,52 223,58 331,18z"/>
   <path fill="#cc181e" id="svg_3" d="m3845,3743c-231,-405 -421,-739 -423,-744c-2,-5 366,-9 846,-9l851,0l-421,738c-232,405 -424,740 -427,744c-3,3 -195,-325 -426,-729zm665,-118c128,-225 235,-413 237,-417c2,-5 -214,-8 -481,-8l-485,0l242,424c133,233 245,421 248,418c3,-4 111,-191 239,-417z"/>
   <path fill="#cc181e" id="svg_4" d="m422,3837l-422,-422l428,-428l427,-427l423,423c232,232 422,427 422,432c0,13 -832,845 -845,845c-6,0 -200,-190 -433,-423zm708,-152l275,-275l-275,-275l-275,-275l-277,277l-278,278l272,272c150,150 275,273 278,273c3,0 129,-124 280,-275z"/>
   <path fill="#cc181e" id="svg_5" d="m2220,3184c-234,-50 -436,-254 -485,-489c-95,-454 306,-855 760,-760c238,50 440,252 490,490c95,456 -309,857 -765,759z"/>
   <path fill="#cc181e" id="svg_6" d="m140,2114c-77,-33 -124,-107 -124,-194c1,-48 29,-125 223,-610c132,-329 234,-569 250,-589c54,-69 160,-99 236,-67c21,9 204,140 405,291c202,151 370,275 373,275c4,0 7,-274 7,-610l0,-610l850,0l850,0l0,610c0,336 3,610 7,610c3,0 171,-124 373,-275c201,-151 384,-282 405,-291c79,-33 185,-2 239,69c13,18 124,282 247,587c195,485 222,562 223,610c0,122 -89,210 -214,210c-61,0 -115,-25 -156,-72c-20,-23 -82,-167 -194,-446c-90,-226 -168,-412 -172,-412c-5,0 -153,109 -330,242c-223,167 -336,245 -366,255c-66,19 -1758,19 -1824,0c-30,-10 -143,-88 -366,-255c-177,-133 -325,-242 -330,-242c-4,0 -83,188 -175,418c-177,442 -184,456 -264,496c-40,20 -127,20 -173,0z"/>
  </g>
 </g>
</svg>