<svg width="525" height="551" xmlns="http://www.w3.org/2000/svg" preserveAspectRatio="xMidYMid meet">
 <metadata>Created by potrace 1.15, written by Peter Selinger 2001-2017</metadata>

 <g>
  <title>background</title>
  <rect fill="none" id="canvas_background" height="402" width="582" y="-1" x="-1"/>
 </g>
 <g>
  <title>Layer 1</title>
  <g id="svg_1" fill="#000000" transform="translate(0,551) scale(0.10000000149011612,-0.10000000149011612) ">
   <path fill="#2793e8" id="svg_2" d="m1992,5423c-16,-49 -188,-533 -382,-1078c-810,-2280 -792,-2228 -786,-2265c3,-19 19,-47 36,-65l30,-30l1309,-3l1308,-2l34,23c21,14 39,37 48,62l13,40l-435,1230c-490,1383 -451,1292 -549,1283c-35,-4 -57,-12 -73,-29c-17,-17 -125,-306 -369,-991c-190,-532 -346,-977 -346,-988c0,-20 5,-21 121,-18l121,3l276,774c201,563 278,768 284,755c5,-11 158,-442 341,-959l333,-940l-1095,-3c-602,-1 -1096,-1 -1097,1c-2,1 37,115 86,252c49,138 307,867 574,1620c268,754 491,1380 496,1393l10,22l-129,0l-129,0l-30,-87z"/>
   <path fill="#2793e8" id="svg_3" d="m2980,5503c0,-3 442,-1243 982,-2755l982,-2748l126,0l127,0l-968,2713c-533,1491 -976,2731 -985,2755l-16,42l-124,0c-68,0 -124,-3 -124,-7z"/>
   <path fill="#2793e8" id="svg_4" d="m1883,1420l-1302,-5l-22,-21c-14,-14 -104,-257 -260,-700c-132,-372 -239,-681 -239,-686c0,-4 244,-8 543,-8l542,0l133,373c73,205 134,386 135,402l2,30l-118,0l-119,0l-84,-235c-46,-129 -95,-268 -110,-307l-26,-73l-290,0c-272,0 -290,1 -286,18c20,73 342,968 351,974c6,3 22,5 36,3c14,-1 679,-3 1476,-4l1450,-1l206,-588l206,-587l127,-3c69,-1 126,-1 126,2c0,18 -472,1342 -486,1363c-34,53 -38,53 -375,56c-173,1 -900,0 -1616,-3z"/>
  </g>
 </g>
</svg>