<svg width="512" height="512" xmlns="http://www.w3.org/2000/svg"><path fill="none" d="M-1-1h582v402H-1z"/><g><path fill="#cc181e" d="M403.344 378.656c2.422 0 4.812.422 7.094 1.219l14.219 5.031V288H222v-75.578l-14.219 5.023a21.212 21.212 0 0 1-7.117 1.219c-11.758 0-21.328-9.57-21.328-21.328 0-11.766 9.57-21.336 21.328-21.336 2.438 0 4.828.406 7.117 1.219L222 182.25V85.336H119.75l5.031 14.219a21.2 21.2 0 0 1 1.219 7.109C126 118.43 116.43 128 104.664 128c-11.758 0-21.328-9.57-21.328-21.336 0-2.43.406-4.82 1.219-7.109l5.023-14.219H-2v299.57l14.219-5.031a21.593 21.593 0 0 1 7.117-1.219c11.758 0 21.328 9.578 21.328 21.344s-9.57 21.344-21.328 21.344c-2.438 0-4.828-.422-7.117-1.219L-2 415.094V512h426.656v-96.906l-14.219 5.031a21.49 21.49 0 0 1-7.094 1.219C391.562 421.344 382 411.766 382 400s9.562-21.344 21.344-21.344zM19.336 106.664H62c0 23.531 19.141 42.672 42.664 42.672 23.531 0 42.672-19.141 42.672-42.672h53.328v48c-23.523 0-42.664 19.141-42.664 42.672C158 220.859 177.141 240 200.664 240v48h-75.578l5.031 14.219a21.4 21.4 0 0 1 1.219 7.125c0 11.75-9.57 21.312-21.336 21.312s-21.336-9.562-21.336-21.312c0-2.438.414-4.844 1.219-7.125L94.914 288H19.336V106.664zm195.555 313.461l-14.227-5.031v75.562H19.336v-48C42.859 442.656 62 423.531 62 400s-19.141-42.656-42.664-42.656v-48h48C67.336 332.859 86.477 352 110 352s42.664-19.141 42.664-42.656h48v75.562l14.227-5.031a21.546 21.546 0 0 1 7.109-1.219c11.766 0 21.336 9.578 21.336 21.344s-9.57 21.344-21.336 21.344c-2.43 0-4.828-.422-7.109-1.219zm188.453 22.531v48H222v-48c23.523 0 42.664-19.125 42.664-42.656S245.523 357.344 222 357.344v-48h181.344v48c-23.531 0-42.688 19.125-42.688 42.656s19.156 42.656 42.688 42.656z"/><path fill="#606060" d="M490.656 90.664c2.438 0 4.844.414 7.125 1.219L512 96.914V0H288v69.336c-23.523 0-42.664 19.141-42.664 42.664s19.141 42.664 42.664 42.664V224h69.344c0 23.523 19.125 42.664 42.656 42.664s42.656-19.141 42.656-42.664H512v-96.914l-14.219 5.031a21.4 21.4 0 0 1-7.125 1.219c-11.75 0-21.312-9.57-21.312-21.336s9.562-21.336 21.312-21.336zm0 64v48h-75.562l5.031 14.227a21.546 21.546 0 0 1 1.219 7.109c0 11.766-9.578 21.336-21.344 21.336s-21.344-9.57-21.344-21.336c0-2.43.422-4.828 1.219-7.109l5.031-14.227h-75.562v-75.578l-14.234 5.031a21.307 21.307 0 0 1-7.109 1.219c-11.766 0-21.336-9.57-21.336-21.336s9.57-21.336 21.336-21.336c2.438 0 4.828.414 7.109 1.219l14.234 5.031V21.336h181.312v48C467.141 69.336 448 88.477 448 112s19.141 42.664 42.656 42.664z"/></g></svg>