<svg width="300" height="300" xmlns="http://www.w3.org/2000/svg"><path fill="none" d="M-1-1h302v302H-1z"/><g><path d="M137.4 24.5c-16.6 2.1-32.8 6.8-44.8 12.8-35.9 18.1-60.9 50.5-69.4 89.9-3 14.4-3 37 0 51.4 11 51.1 49.4 89.5 100.5 100.5 14.4 3 37 3 51.4 0 51.1-11 89.5-49.4 100.5-100.5 3-14.4 3-37 0-51.4-11-51.2-49.9-90-100.5-100.4-9.8-2-30.2-3.2-37.7-2.3zm32.1 13.9c47.7 8.3 86.1 46.7 94.4 94.4 1.9 10.7 1.9 29.5 0 40.2-8.3 47.7-46.7 86.1-94.4 94.4-14.2 2.5-13.1 3.3-13.1-9.8v-11.3l28.3-14.4c15.5-7.9 28.5-14.8 28.9-15.4.4-.6.8-4.1.8-7.8 0-6.1.2-6.9 2.6-8.4 7.9-5.2 6.6-17.3-2.3-21.1-7.1-2.9-15 1.8-16 9.4-.6 4.7 1.5 9.5 5.2 11.9 2.1 1.4 2.5 2.4 2.5 6.8v5.1l-24.5 12.3c-13.5 6.7-24.7 12.2-25 12.2-.3 0-.5-4.6-.5-10.3v-10.2l9.8-4.4c15.9-7.2 14.2-4.2 14.2-25.5v-18.4l21.3-11.9 21.2-11.8.3-5.9c.3-5.3.7-6.1 4.3-9.5 3.5-3.4 3.9-4.3 3.9-8.5 0-4.1-.5-5.3-3.4-8.2-2.8-2.8-4.2-3.4-7.5-3.4-5.7 0-9.5 2.2-11.6 6.6-2.3 5-1.3 9.9 3.1 14 2.6 2.5 3.4 4.1 3.4 6.7v3.5l-20.9 11.7c-14.8 8.3-21.1 12.4-21.5 13.9-.3 1.1-.6 9.6-.6 18.7v16.6l-2.7 1.3c-1.6.7-5.2 2.3-8 3.6l-5.3 2.4v-75l18-9 18-9v-7c0-7 .1-7.1 4-10.9 3.6-3.4 4-4.3 4-8.5 0-8.9-6.9-14.2-15.1-11.7-9.2 2.8-11.2 14.6-3.4 20.8 3.1 2.5 3.5 3.3 3.5 7.6v4.8l-14.2 7-14.3 6.9-.3-21.7c-.2-16.3.1-21.9 1-22.2 2.3-.8 5.8-5.4 6.4-8.7.9-4.8-2.1-10.4-6.9-12.8-3.3-1.6-4.5-1.7-7.7-.7-2.1.6-5.1 2.6-6.5 4.3-2.4 2.8-2.7 3.9-2.2 8.2.4 4.3 1 5.5 4.1 8.2l3.6 3.1v34.7c0 19-.3 34.6-.6 34.6s-5-2.3-10.5-5.1l-9.9-5.1v-34.3l-7.4-5.7c-7.2-5.6-7.4-5.8-7-9.5 1-7.5-6.6-14.3-14.2-12.8-4.6.8-9.4 6.5-9.4 11.1 0 8 5.8 13.1 13.9 12.1 4.3-.5 5-.3 10.9 4.4l6.2 4.9v34.7l14 7.4 14 7.3v12.8c0 7-.3 12.8-.7 12.8-.5 0-10.2-4.4-21.8-9.8l-21-9.8v-8.4c0-4.7-.4-9.1-.8-9.8-.5-.7-5.3-3.5-10.8-6.2-8.7-4.4-9.9-5.3-9.9-7.6 0-4-3-9.3-6.1-10.9-11.9-6.2-23.6 7.9-14.8 17.9 3.7 4.2 8.1 5.4 13 3.3 3.3-1.3 3.7-1.2 12.8 3.2l9.3 4.6-.5 8.5c-.4 4.7-.3 9 .1 9.6.4.7 12 6.4 25.7 12.8l25 11.5.3 37.1.2 37.1-6.2-.3-6.3-.3-.5-24.8-.5-24.9-16-7.3c-14.3-6.6-16.1-7.7-16.6-10.2-.8-4-2.6-6.9-5.1-8.7-2.9-2.1-10.7-2-13.6 0-2.9 2-5.2 6.5-5.2 10.1 0 3.5 3.1 8.8 6.1 10.4 3.2 1.7 9.4 1.5 12.4-.5 2.4-1.6 2.9-1.5 17 5l14.5 6.7v21.3c0 25.1 1.5 23.3-14.7 17.9-35.8-12-63-38.9-74.7-74-5.6-16.6-7.2-39.1-4.1-56.6 8.3-47.4 46.5-85.8 93.8-94.4 9.9-1.8 30.7-1.8 40.8 0z" fill="#2793e8"/></g></svg>