<svg width="512" height="512" xmlns="http://www.w3.org/2000/svg"><path fill="none" d="M-1-1h582v402H-1z"/><g><path fill="#fff" d="M236 7.1c-15.4 1.1-35.7 4.7-51.6 9.3C94.2 42.3 24.1 118.1 5.4 209.8c-13.6 66.9-.8 135.5 35.4 190.8 25.5 39 58 68.6 96.8 88.6 14.1 7.3 34.1 15.4 40.3 16.4 5.8.9 10.9-1.9 13.3-7.3 1.8-4 1.8-6 1.2-28.6l-.7-24.3-8.6 1.4c-9.7 1.5-25.6.9-38.6-1.3-10.5-1.9-21.1-7.1-27.8-13.9-5.3-5.3-6.7-7.6-13.6-22.9-6.3-13.9-13.5-23.1-23.2-29.7-6.6-4.6-12.1-10.6-11.7-12.8.6-3 4.8-4.3 12.1-3.8 14.1 1 28.8 11.3 39.3 27.4 7.2 11 14.3 17.9 23 22.2 6.2 3.1 7.9 3.5 16.9 3.8 10.3.4 20.7-1.2 29.1-4.4 4.1-1.6 4.3-1.8 5.8-8.5 1.9-8.6 5.6-16.4 10.6-22.8l3.9-4.9-8.2-1.1c-26.4-3.8-45.2-10.2-62.7-21.5-22.9-14.8-36.5-37.9-43.1-73.1-2-10.9-2.3-38.9-.5-49.2 2.9-16.7 9.8-31.9 20-44.5l4.5-5.5-2-6.2c-5.2-16.8-4.2-37.2 2.8-57.4 1.8-5 2.2-5.2 10.3-4.8 11.8.6 37.1 10.8 54.3 21.8l7.1 4.6 5.6-1.1c3-.6 8.7-1.8 12.7-2.7 27.1-5.8 65.5-5.8 92.6 0 4 .9 9.7 2.1 12.7 2.7l5.5 1 9.5-5.8c22.6-13.7 48.4-23 57.5-20.6 2.6.7 3.3 1.7 5.3 7.5 4.3 12.5 5.5 21 5 35.1-.4 9.5-1.1 14.8-2.6 19.5l-2.1 6.4 4.4 5.4c8.9 10.9 15.5 24.4 19.2 38.9 2.2 8.9 2.5 41.7.4 54.4-3.2 19.8-11.4 40.6-21 53.2-16.5 21.7-46.4 36.6-84.3 41.8l-8.7 1.2 3.9 4.9c4.7 6 8.5 13.7 10.6 22.1 1.4 5.2 1.7 13.7 2 50.3.5 49 .5 48.9 7.2 52.1 4.6 2.1 8.3 1.5 22.9-4.2 73.8-28.4 132-93.2 153.3-170.3 14.1-51.3 11.1-110.8-8-160.1-17.2-44-47.5-84.2-84.8-112.2-40.5-30.3-86.5-47.4-136.7-50.7-17.5-1.2-19.2-1.2-37.5 0z"/></g></svg>