<svg width="225" height="225" xmlns="http://www.w3.org/2000/svg"><path fill="none" d="M-1-1h458.8v458.8H-1z"/><g><g stroke="null" fill="#1169ae"><path d="M132.522 33.4c-13.102 2.8-23.252 8.4-31.28 17.1-23.62 25.6-15.593 64.1 17.163 82.5 9.873 5.6 19.284 8 31.095 8.1l9.688.1 4.982 4.8c8.858 8.6 23.345 14.4 29.434 11.9l2.307-.9-4.613-5.4c-5.167-5.9-7.566-11.1-7.566-16.1 0-2.8.738-3.9 4.52-6.9 34.048-27.1 19.93-80.1-24.82-93.5-9.042-2.8-22.513-3.5-30.91-1.7zM144.24 52c1.384 0 1.569.7 1.015 4.5l-.553 4.5 4.982-.1c2.768 0 8.489-.6 12.826-1.3 4.336-.7 7.935-1.2 8.027-1.1.185.1.554 2.2.83 4.7.554 4.5.554 4.5-2.49 5.2-1.754.4-7.844 1-13.472 1.3-8.673.5-10.427.9-10.427 2.2 0 .9-.276 2.7-.645 3.9-.554 2.4-.462 2.4 4.89 1.6 2.952-.4 5.905-1.3 6.366-2.1.83-1.2 1.754-1.3 4.89-.4 2.123.7 3.876 1.8 3.876 2.5s1.66 2.1 3.598 3.1c4.245 2.1 8.858 6.9 10.15 10.8 2.491 7.2.37 17.3-4.706 22.3-2.399 2.5-8.396 5.8-11.902 6.7-2.03.6-2.584.2-3.876-2.9-1.845-4.2-1.568-5 2.123-5.9 3.506-.8 8.95-6.3 9.688-9.8.369-1.5.369-3.9.092-5.3-.738-3-5.352-8.4-7.197-8.4-.646 0-2.214 2.1-3.506 4.7-1.2 2.5-4.245 7-6.736 9.9-3.783 4.5-4.336 5.6-3.506 7.3 1.569 3 1.292 3.8-2.307 6.2l-3.414 2.2-1.568-2.2c-1.477-2.3-1.569-2.3-5.906-.7-10.98 4-17.807-.5-17.438-11.5.184-8.2 5.628-16.2 14.21-21 3.413-1.9 3.598-2.1 3.598-6.9v-5h-14.763v-9h14.763V50.7l3.506.7c1.845.3 4.152.6 4.982.6z" stroke-width=".1"/><path d="M54.093 67c-21.867 3.4-39.86 16.6-48.533 35.5l-4.06 8.8v11.6c0 9.7.37 12.5 2.122 17.3 3.045 8.1 9.227 16.7 15.87 21.9 5.629 4.4 5.629 4.4 5.075 8.3-.738 5.6-4.798 13.2-9.134 17.2l-3.599 3.3 2.676 1.1c6.09 2.6 19.93-3 29.71-12 5.444-4.9 5.998-5.2 9.412-4.6 5.72 1 20.022-1.2 28.419-4.3 13.194-5 23.62-13.4 30.91-25l3.322-5.5-3.876-2.5c-11.256-7.1-21.406-18.6-26.112-29.6-4.613-10.6-5.997-25.4-3.506-36.6.554-2.6.277-2.8-4.06-3.8-6.828-1.6-18.361-2.1-24.636-1.1zm19.654 52.9c4.705 18.1 8.488 33.4 8.488 34 0 .8-1.937 1.1-6.09.9l-6.181-.3-1.2-4.5c-.646-2.5-1.66-6.4-2.214-8.8l-1.015-4.2H49.11l-1.384 5.2c-.738 2.9-1.753 6.9-2.215 8.8l-.738 3.5-6.182.3c-3.414.2-6.182.1-6.182-.2 0-.5 8.95-35 16.24-62.4l1.384-5.2h15.224l8.489 32.9z" stroke-width=".1"/><path d="M56.4 100.8c0 1.1-1.2 7.3-2.768 13.7-1.476 6.4-2.768 11.8-2.768 12.1 0 .2 2.953.4 6.551.4 6.182 0 6.459-.1 5.905-2.2-.369-1.1-1.845-7.3-3.321-13.6-2.584-11.5-3.599-14.4-3.599-10.4z" stroke-width=".1"/></g></g></svg>