<svg width="300" height="300" xmlns="http://www.w3.org/2000/svg"><path fill="none" d="M-1-1h582v402H-1z"/><g><path fill="#00a7da" d="M.005 149.995c0 59.367 34.502 110.683 84.543 134.992L12.994 88.953A149.46 149.46 0 0 0 .005 149.995zm251.254-7.566c0-18.544-6.661-31.377-12.367-41.366-7.602-12.362-14.729-22.817-14.729-35.18 0-13.788 10.449-26.621 25.184-26.621.668 0 1.301.081 1.943.122C224.608 14.932 189.049 0 150 0 97.597 0 51.497 26.89 24.674 67.603c3.525.116 6.843.188 9.655.188 15.685 0 39.98-1.907 39.98-1.907 8.083-.476 9.033 11.406.956 12.362 0 0-8.129.951-17.163 1.422l54.619 162.478 32.827-98.447-23.368-64.032c-8.083-.471-15.73-1.422-15.73-1.422-8.083-.48-7.138-12.838.95-12.362 0 0 24.766 1.907 39.505 1.907 15.686 0 39.98-1.907 39.98-1.907 8.083-.476 9.039 11.406.956 12.362 0 0-8.138.951-17.162 1.422l54.203 161.238 14.962-49.984c7.606-19.494 11.415-35.655 11.415-48.492zm-98.623 20.687L107.628 293.89A149.988 149.988 0 0 0 150 300c17.471 0 34.224-3.015 49.813-8.503a14.133 14.133 0 0 1-1.072-2.068l-46.105-126.313zm128.988-85.078c.647 4.774 1.012 9.898 1.012 15.422 0 15.215-2.854 32.326-11.412 53.723l-45.812 132.459c44.598-26 74.583-74.311 74.583-129.646 0-26.081-6.667-50.598-18.371-71.958z"/></g></svg>